<svg width="353px" height="380px" version="1.1" xmlns="http://www.w3.org/2000/svg" xmlns:xlink="http://www.w3.org/1999/xlink">
  <defs>
    <path d="M5.58358694,0.36290912 L2.44168552,2.16377362 C1.40043181,2.75998146 0.556544663,4.21089788 0.556544663,5.40403362 L0.556544663,9.00432251 C0.556544663,10.1967382 1.40043181,10.679897 2.44168552,10.0836891 L5.58358694,8.28426473 C6.62484065,7.68733683 7.4687278,6.23642041 7.4687278,5.04400473 L7.4687278,1.44371584 C7.4687278,0.596927897 7.04424458,0.108008667 6.42529725,0.108008667 C6.17205855,0.108008667 5.88616729,0.190095253 5.58358694,0.36290912" id="path-1"/>
    <path d="M5.58358694,0.36290912 L2.44168552,2.16377362 C1.40043181,2.75998146 0.556544663,4.21089788 0.556544663,5.40403362 L0.556544663,9.00432251 C0.556544663,10.1967382 1.40043181,10.679897 2.44168552,10.0836891 L5.58358694,8.28426473 C6.62484065,7.68733683 7.4687278,6.23642041 7.4687278,5.04400473 L7.4687278,1.44371584 C7.4687278,0.596927897 7.04424458,0.108008667 6.42529725,0.108008667 C6.17205855,0.108008667 5.88616729,0.190095253 5.58358694,0.36290912 Z" id="path-3"/>
    <path d="M5.47982438,0.36290912 L2.33792295,2.16377362 C1.29594364,2.75998146 0.452056487,4.21089788 0.452056487,5.40403362 L0.452056487,9.00432251 C0.452056487,10.1974582 1.29594364,10.680617 2.33792295,10.0836891 L5.47982438,8.28426473 C6.52035247,7.68733683 7.36496523,6.23642041 7.36496523,5.04400473 L7.36496523,1.44371584 C7.36496523,0.596927897 6.9397564,0.108008667 6.32153469,0.108008667 C6.06757037,0.108008667 5.78167911,0.190095253 5.47982438,0.36290912 Z" id="path-5"/>
    <path d="M5.3753362,0.363629178 L2.23343478,2.16305356 C1.19218107,2.7592614 0.348293922,4.21089788 0.348293922,5.40331356 L0.348293922,9.00432251 C0.348293922,10.1974582 1.19218107,10.680617 2.23343478,10.0844092 L5.3753362,8.28426473 C6.41586429,7.68733683 7.26047705,6.23714047 7.26047705,5.04400473 L7.26047705,1.44371584 C7.26047705,0.596927897 6.83599384,0.108008667 6.21777212,0.108008667 C5.96380781,0.108728724 5.67791655,0.190095253 5.3753362,0.363629178" id="path-7"/>
    <path d="M5.3753362,0.363629178 L2.23343478,2.16305356 C1.19218107,2.7592614 0.348293922,4.21089788 0.348293922,5.40331356 L0.348293922,9.00432251 C0.348293922,10.1974582 1.19218107,10.680617 2.23343478,10.0844092 L5.3753362,8.28426473 C6.41586429,7.68733683 7.26047705,6.23714047 7.26047705,5.04400473 L7.26047705,1.44371584 C7.26047705,0.596927897 6.83599384,0.108008667 6.21777212,0.108008667 C5.96380781,0.108728724 5.67791655,0.190095253 5.3753362,0.363629178 Z" id="path-9"/>
    <path d="M5.27084802,0.363629178 L2.1289466,2.16305356 C1.08769289,2.75998146 0.243805746,4.21017782 0.243805746,5.40331356 L0.243805746,9.00432251 C0.243805746,10.1974582 1.08769289,10.680617 2.1289466,10.0844092 L5.27084802,8.28426473 C6.31210173,7.68733683 7.15671449,6.23714047 7.15671449,5.04400473 L7.15671449,1.44299579 C7.15671449,0.596927897 6.73223127,0.108008667 6.11328395,0.108008667 C5.85931963,0.108008667 5.57342837,0.190095253 5.27084802,0.363629178 Z" id="path-11"/>
    <path d="M5.58358694,0.363629178 L2.44168552,2.16305356 C1.40043181,2.75998146 0.556544663,4.21017782 0.556544663,5.40331356 L0.556544663,9.00360245 C0.556544663,10.1967382 1.40043181,10.680617 2.44168552,10.0844092 L5.58358694,8.28354467 C6.62484065,7.68733683 7.4687278,6.23642041 7.4687278,5.04328467 L7.4687278,1.44299579 C7.4687278,0.596927897 7.04424458,0.107288609 6.42602287,0.107288609 C6.17205855,0.108008667 5.88616729,0.189375195 5.58358694,0.363629178 Z" id="path-13"/>
    <path d="M5.47982438,0.363629178 L2.33792295,2.16305356 C1.29594364,2.75998146 0.452056487,4.21089788 0.452056487,5.40331356 L0.452056487,9.00360245 C0.452056487,10.1967382 1.29594364,10.680617 2.33792295,10.0844092 L5.47982438,8.28354467 C6.52035247,7.68733683 7.36496523,6.23642041 7.36496523,5.04328467 L7.36496523,1.44299579 C7.36496523,0.59620784 6.94048201,0.108008667 6.32153469,0.108008667 C6.06757037,0.108008667 5.78167911,0.190095253 5.47982438,0.363629178" id="path-15"/>
    <path d="M5.47982438,0.363629178 L2.33792295,2.16305356 C1.29594364,2.75998146 0.452056487,4.21089788 0.452056487,5.40331356 L0.452056487,9.00360245 C0.452056487,10.1967382 1.29594364,10.680617 2.33792295,10.0844092 L5.47982438,8.28354467 C6.52035247,7.68733683 7.36496523,6.23642041 7.36496523,5.04328467 L7.36496523,1.44299579 C7.36496523,0.59620784 6.94048201,0.108008667 6.32153469,0.108008667 C6.06757037,0.108008667 5.78167911,0.190095253 5.47982438,0.363629178 Z" id="path-17"/>
    <path d="M5.3753362,0.36290912 L2.23343478,2.16377362 C1.19218107,2.75998146 0.348293922,4.21089788 0.348293922,5.40403362 L0.348293922,9.00360245 C0.348293922,10.1967382 1.19218107,10.679897 2.23343478,10.0836891 L5.3753362,8.28354467 C6.41586429,7.68733683 7.26047705,6.23642041 7.26047705,5.04328467 L7.26047705,1.44299579 C7.26047705,0.596927897 6.83526822,0.108008667 6.21704651,0.108008667 C5.96380781,0.108008667 5.67791655,0.190095253 5.3753362,0.36290912" id="path-19"/>
    <path d="M5.3753362,0.36290912 L2.23343478,2.16377362 C1.19218107,2.75998146 0.348293922,4.21089788 0.348293922,5.40403362 L0.348293922,9.00360245 C0.348293922,10.1967382 1.19218107,10.679897 2.23343478,10.0836891 L5.3753362,8.28354467 C6.41586429,7.68733683 7.26047705,6.23642041 7.26047705,5.04328467 L7.26047705,1.44299579 C7.26047705,0.596927897 6.83526822,0.108008667 6.21704651,0.108008667 C5.96380781,0.108008667 5.67791655,0.190095253 5.3753362,0.36290912 Z" id="path-21"/>
    <path d="M5.3753362,0.363629178 L2.23343478,2.16305356 C1.19218107,2.7592614 0.348293922,4.21089788 0.348293922,5.40331356 L0.348293922,9.00432251 C0.348293922,10.1974582 1.19218107,10.680617 2.23343478,10.0844092 L5.3753362,8.28426473 C6.41586429,7.68733683 7.26047705,6.23714047 7.26047705,5.04400473 L7.26047705,1.44371584 C7.26047705,0.596927897 6.83599384,0.108008667 6.21777212,0.108008667 C5.96380781,0.108728724 5.67791655,0.190095253 5.3753362,0.363629178" id="path-23"/>
    <path d="M5.3753362,0.363629178 L2.23343478,2.16305356 C1.19218107,2.7592614 0.348293922,4.21089788 0.348293922,5.40331356 L0.348293922,9.00432251 C0.348293922,10.1974582 1.19218107,10.680617 2.23343478,10.0844092 L5.3753362,8.28426473 C6.41586429,7.68733683 7.26047705,6.23714047 7.26047705,5.04400473 L7.26047705,1.44371584 C7.26047705,0.596927897 6.83599384,0.108008667 6.21777212,0.108008667 C5.96380781,0.108728724 5.67791655,0.190095253 5.3753362,0.363629178 Z" id="path-25"/>
    <path d="M5.3753362,0.36290912 L2.23343478,2.16377362 C1.19218107,2.75998146 0.348293922,4.21089788 0.348293922,5.40403362 L0.348293922,9.00360245 C0.348293922,10.1967382 1.19218107,10.679897 2.23343478,10.0836891 L5.3753362,8.28354467 C6.41586429,7.68733683 7.26047705,6.23642041 7.26047705,5.04328467 L7.26047705,1.44299579 C7.26047705,0.596927897 6.83526822,0.108008667 6.21704651,0.108008667 C5.96380781,0.108008667 5.67791655,0.190095253 5.3753362,0.36290912" id="path-27"/>
    <path d="M5.3753362,0.36290912 L2.23343478,2.16377362 C1.19218107,2.75998146 0.348293922,4.21089788 0.348293922,5.40403362 L0.348293922,9.00360245 C0.348293922,10.1967382 1.19218107,10.679897 2.23343478,10.0836891 L5.3753362,8.28354467 C6.41586429,7.68733683 7.26047705,6.23642041 7.26047705,5.04328467 L7.26047705,1.44299579 C7.26047705,0.596927897 6.83526822,0.108008667 6.21704651,0.108008667 C5.96380781,0.108008667 5.67791655,0.190095253 5.3753362,0.36290912 Z" id="path-29"/>
    <path d="M5.27084802,0.36290912 L2.1289466,2.16377362 C1.08769289,2.75998146 0.243805746,4.21089788 0.243805746,5.40403362 L0.243805746,9.00360245 C0.243805746,10.1974582 1.08769289,10.680617 2.1289466,10.0836891 L5.27084802,8.28354467 C6.31210173,7.68733683 7.15671449,6.23642041 7.15671449,5.04328467 L7.15671449,1.44371584 C7.15671449,0.596927897 6.73150566,0.108008667 6.11255834,0.108008667 C5.85931963,0.108008667 5.57342837,0.190095253 5.27084802,0.36290912 Z" id="path-31"/>
    <linearGradient x1="27.5194315%" y1="93.5538225%" x2="100%" y2="-9.50866738%" id="linearGradient-33">
      <stop stop-color="#3CCAFF" offset="0%"/>
      <stop stop-color="#DEF6FF" offset="100%"/>
    </linearGradient>
    <filter x="0.0%" y="0.0%" width="100.0%" height="100.0%" filterUnits="objectBoundingBox" id="filter-34">
      <feGaussianBlur stdDeviation="0" in="SourceGraphic"/>
    </filter>
    <path d="M73.1326446,82.3006221 C77.5952761,78.4528253 84.6097547,76.6260062 85.90332,76.6260062 C88.3603878,76.6260062 86.9060525,94.0124607 86.9060525,102.709124 C86.9060525,111.884324 85.2379743,119.125362 84.7756144,125.10303 C84.4679206,129.08108 82.8141593,136.640281 82.8141593,142.603404 C82.8141593,148.224293 84.0219462,147.835926 78.8650327,149.179506 C76.7875412,149.720775 73.3363802,150.879732 73.371181,147.958051 C73.3916654,146.238292 73.623597,136.695896 73.8551221,132.965164 C74.1515769,128.188173 73.8551221,125.872492 73.8551221,123.462058 C73.8551221,121.433684 73.7440462,119.05031 73.371181,114.86672 C73.3241808,114.339372 73.371181,105.797791 73.371181,102.709124 C73.371181,100.977597 73.4183351,100.114014 73.4567224,99.7182539 C73.3426713,99.7728879 73.2617924,100.026496 73.2757486,100.832277 C73.341263,104.614824 71.1452847,116.050144 70.9768571,119.027981 C70.6126235,125.467712 70.3480417,125.766179 70.2295333,126.606508 C69.6331637,130.835294 69.5297934,133.590224 68.615084,139.312121 C68.1220467,142.396279 66.69001,151.728029 66.158701,153.919518 C65.7610089,155.559878 67.3551889,155.236372 64.8222786,156.19627 C61.2331586,157.55644 60.0816152,157.983487 57.3490882,156.19627 C55.1906463,154.784534 58.8348826,142.048358 59.2015514,138.16282 C59.4033462,136.024429 59.275386,128.893712 59.2015514,125.455497 C59.0465564,118.237922 57.3456158,112.661008 57.3490882,103.917877 C57.3509489,99.2328486 56.1411691,93.3854788 56.1433788,86.6267058 C56.1453611,80.5637217 57.3509489,77.29121 57.3490882,76.6260062 C57.342631,74.3175081 61.9282217,87.6111608 67.5562589,86.6267058 C71.7322795,85.8962372 73.9713777,78.3437457 73.2757486,81.1911433 C73.2063474,81.4752213 73.1600028,81.8510575 73.1326446,82.3006221 Z" id="path-35"/>
    <filter x="-10.0%" y="-3.9%" width="120.0%" height="107.7%" filterUnits="objectBoundingBox" id="filter-36">
      <feOffset dx="-5" dy="0" in="SourceAlpha" result="shadowOffsetInner1"/>
      <feComposite in="shadowOffsetInner1" in2="SourceAlpha" operator="arithmetic" k2="-1" k3="1" result="shadowInnerInner1"/>
      <feColorMatrix values="0 0 0 0 0.524206913   0 0 0 0 0.793295055   0 0 0 0 1  0 0 0 0.661911232 0" type="matrix" in="shadowInnerInner1"/>
    </filter>
    <path d="M9.19164457,3.45974341 L9.54975462,3.88322793 C10.1171944,3.74811474 10.5526545,3.82648908 10.8155462,4.59042426 C11.2235837,5.77613735 10.8035075,5.55267347 9.64741628,6.26862675 C9.33511201,6.46203299 8.95224513,6.73532696 8.55878725,7.01991041 C9.68027189,6.63908123 10.8122193,6.20458833 11.0662053,6.62624781 C11.4905374,7.33071058 11.5897666,7.28622744 11.4171363,8.13037123 C11.364877,8.38591373 10.7619913,8.61445615 9.98353646,8.83412626 C10.4665387,8.738779 10.4262381,8.8671102 10.5679938,9.32044131 C10.9449716,10.5260074 10.3708933,10.7915318 8.76400987,11.139658 C8.59698072,11.1758444 8.42121512,11.2233649 8.24103241,11.2782591 C8.23438536,11.2866793 8.22738018,11.2951604 8.22000756,11.3037031 C7.24194352,12.4369992 4.64159617,14.3001823 3.60909855,13.7278595 C2.6969788,13.2222633 0.603357882,12.5755203 0.410165369,10.5772632 C0.266674081,9.0930831 -0.306786488,8.33838803 0.403569091,7.05687265 C1.47392442,5.12590052 2.48185649,3.27978364 3.59983905,3.09160822 C3.62481654,3.03856456 3.66017373,2.98140922 3.70769247,2.91943183 C4.07525376,2.44003176 5.30860834,2.70391245 5.87316333,2.52047741 C6.41225508,2.34531589 7.59269365,1.86670231 8.82139672,1.46641732 C10.6118611,0.883122591 12.6639307,0.493961599 12.6650998,1.39683549 C12.6661184,2.18348185 10.8416625,2.77051285 9.47086732,3.30752291 C9.37727809,3.34418656 9.28411407,3.39601086 9.19164457,3.45974341 Z" id="path-37"/>
    <filter x="-23.8%" y="-23.1%" width="147.6%" height="146.3%" filterUnits="objectBoundingBox" id="filter-38">
      <feOffset dx="-2" dy="-5" in="SourceAlpha" result="shadowOffsetInner1"/>
      <feComposite in="shadowOffsetInner1" in2="SourceAlpha" operator="arithmetic" k2="-1" k3="1" result="shadowInnerInner1"/>
      <feColorMatrix values="0 0 0 0 0.839215686   0 0 0 0 0.952941176   0 0 0 0 0.988235294  0 0 0 1 0" type="matrix" in="shadowInnerInner1"/>
    </filter>
    <path d="M14.2324016,4.73290445 C20.8531953,2.70952409 30.0716355,9.78541745 33.9582066,10.9781624 C37.8447777,12.1709074 42.456611,11.5048533 42.4972245,17.7195838 C42.537838,23.9343144 36.2304854,23.864663 30.5064429,21.831422 C28.2860292,21.0427074 23.4714594,16.5670915 19.8711394,15.2833101 C16.2708194,13.9995288 16.2511073,15.9550025 14.0710617,19.9558361 C12.6385698,22.5847545 10.0499435,25.6812749 8.39613919,28.5885505 C6.52849934,31.8717344 5.66586319,34.8158116 5.50140968,34.7418361 C3.15812536,33.6877654 -1.08109664,35.2053615 1.01113828,28.47398 C1.94359392,25.4739753 3.58206435,18.9970037 5.61827752,14.3451702 C7.90660102,9.11737767 10.7290164,5.80357379 14.2324016,4.73290445 Z" id="path-39"/>
    <filter x="-8.7%" y="-9.0%" width="117.4%" height="118.1%" filterUnits="objectBoundingBox" id="filter-40">
      <feOffset dx="-2" dy="5" in="SourceAlpha" result="shadowOffsetInner1"/>
      <feComposite in="shadowOffsetInner1" in2="SourceAlpha" operator="arithmetic" k2="-1" k3="1" result="shadowInnerInner1"/>
      <feColorMatrix values="0 0 0 0 0.68627451   0 0 0 0 0.850980392   0 0 0 0 0.91372549  0 0 0 0.719231205 0" type="matrix" in="shadowInnerInner1"/>
    </filter>
    <path d="M35.6162761,39.3498176 C37.5215639,39.7534852 38.9069187,39.9553189 39.7723405,39.9553189 C40.6377623,39.9553189 41.7080856,39.7534852 42.9833104,39.3498176 L43.0435221,35.5616247 C41.8618542,36.5838905 40.7714603,37.0950234 39.7723405,37.0950234 C38.7732207,37.0950234 37.258539,36.8084232 35.2282955,36.2352228 L35.6162761,39.3498176 Z" id="path-41"/>
    <filter x="-19.0%" y="-33.9%" width="138.1%" height="167.8%" filterUnits="objectBoundingBox" id="filter-42">
      <feOffset dx="2" dy="-2" in="SourceAlpha" result="shadowOffsetInner1"/>
      <feComposite in="shadowOffsetInner1" in2="SourceAlpha" operator="arithmetic" k2="-1" k3="1" result="shadowInnerInner1"/>
      <feColorMatrix values="0 0 0 0 0.68627451   0 0 0 0 0.854901961   0 0 0 0 0.91372549  0 0 0 1 0" type="matrix" in="shadowInnerInner1"/>
    </filter>
    <path d="M2.72528899,9.63806526 C7.63159154,5.39082642 13.6717501,0.0522236123 22.532042,0.0522236123 C31.3923339,0.0522236123 33.0972443,8.86196095 33.0972443,12.4811819 C33.0972443,15.41677 32.3222033,23.8462763 32.0178671,31.0917462 C31.7215188,38.1470471 33.408653,44.3518289 33.0972443,44.947587 C31.6665624,47.684634 28.7168144,49.4933997 22.532042,51.992781 C10.815599,56.7276131 6.7432825,57.4445744 2.72528899,55.4422726 C1.74942452,54.9559663 3.08152126,45.5844385 0.496343597,33.6656568 C-0.34345553,29.7938214 0.382222581,25.4311127 0.496343597,21.5752518 C0.6607838,16.0192326 0.712919506,11.3801131 2.72528899,9.63806526 Z M18.1292865,12.4811819 C22.7277852,11.9978602 26.1934478,9.11179255 25.8700607,6.0349694 C25.5466736,2.95814625 21.5566967,0.855697909 16.958198,1.3390196 C12.3596993,1.82234129 8.89403661,4.70840892 9.21742376,7.78523207 C9.5408109,10.8620552 13.5307877,12.9645036 18.1292865,12.4811819 Z" id="path-43"/>
    <filter x="-5.0%" y="-2.9%" width="110.0%" height="105.9%" filterUnits="objectBoundingBox" id="filter-44">
      <feOffset dx="2" dy="2" in="SourceAlpha" result="shadowOffsetInner1"/>
      <feComposite in="shadowOffsetInner1" in2="SourceAlpha" operator="arithmetic" k2="-1" k3="1" result="shadowInnerInner1"/>
      <feColorMatrix values="0 0 0 0 0.921568627   0 0 0 0 0.968627451   0 0 0 0 0.984313725  0 0 0 0.59057971 0" type="matrix" in="shadowInnerInner1"/>
    </filter>
    <path d="M11.2864338,7.9489249 C13.5828108,8.60805788 11.1766859,6.36462955 12.4105928,6.88484398 C13.2453368,7.23677154 14.3029563,9.61252729 17.3779316,12.4511237 C19.990683,14.8630282 22.232893,18.9448956 23.2993329,20.743675 C25.6208774,24.6594575 28.8990378,29.9004673 30.2405888,30.7174964 C32.1571753,31.8847325 38.9288038,36.7721992 40.4281212,37.5604035 C44.1934226,39.5398554 43.9843031,42.3656456 44.8003593,42.1918397 C46.3909074,41.8530804 54.2925577,43.9806089 50.6287568,48.2249384 C49.0772181,50.0223182 50.2460381,55.9161958 41.7981118,51.5184489 C33.3501855,47.120702 31.004019,41.0073847 25.2090232,35.5745039 C23.753282,33.1662482 25.1853454,35.8926461 20.0525458,30.2369241 C17.5244168,27.4512329 12.4666695,14.8669764 10.5248405,12.2229228 C7.35510832,7.90691886 10.1182666,9.79007342 10.789997,8.44921708 C11.1648894,7.70088583 10.8097765,7.81210915 11.2864338,7.9489249 Z" id="path-45"/>
    <filter x="-6.7%" y="-12.2%" width="113.5%" height="124.4%" filterUnits="objectBoundingBox" id="filter-46">
      <feOffset dx="2" dy="6" in="SourceAlpha" result="shadowOffsetInner1"/>
      <feComposite in="shadowOffsetInner1" in2="SourceAlpha" operator="arithmetic" k2="-1" k3="1" result="shadowInnerInner1"/>
      <feColorMatrix values="0 0 0 0 0.921568627   0 0 0 0 0.968627451   0 0 0 0 0.984313725  0 0 0 0.661911232 0" type="matrix" in="shadowInnerInner1"/>
    </filter>
    <path d="M68.0439344,40.6970703 L63.9703215,40.6970703 C63.6646716,40.689941 63.0648342,40.2022415 62.1708095,39.2339719 C61.6482721,38.66804 60.535024,38.2456034 59.6010178,37.123382 C59.1583428,36.5915018 58.5186733,35.5125547 57.6820092,33.8865407 L54.096331,33.315754 C52.5683385,32.7071364 52.3572746,32.2253295 53.4631394,31.8703333 C54.5690042,31.5153371 56.5761096,31.6834613 59.4844557,32.3747059 L60.7954971,33.3147265 L59.3923076,31.6431308 L55.8693745,31.3527628 C54.9023235,30.5822 54.9023235,30.0009226 55.8693745,29.6089308 C56.8364255,29.2169389 58.4961122,29.2330674 60.8484347,29.6573164 L62.8229839,30.8903174 C61.0405743,29.9786222 60.3423745,29.1468687 60.7283844,28.3950568 C61.1143943,27.643245 62.277198,28.0853035 64.2167957,29.7212324 C65.218765,30.42737 65.9631038,31.3140881 66.449812,32.3813866 C66.6077536,32.7277356 67.7519056,35.7973526 67.8692672,36.1928942 C68.0321316,36.7417925 68.2561198,37.0086259 68.541232,36.9933943 L68.0439344,40.6970703 Z" id="path-47"/>
    <filter x="-19.0%" y="-23.7%" width="138.1%" height="147.4%" filterUnits="objectBoundingBox" id="filter-48">
      <feOffset dx="2" dy="5" in="SourceAlpha" result="shadowOffsetInner1"/>
      <feComposite in="shadowOffsetInner1" in2="SourceAlpha" operator="arithmetic" k2="-1" k3="1" result="shadowInnerInner1"/>
      <feColorMatrix values="0 0 0 0 0.921568627   0 0 0 0 0.968627451   0 0 0 0 0.984313725  0 0 0 0.661911232 0" type="matrix" in="shadowInnerInner1"/>
    </filter>
    <path d="M28.1933538,28.4797957 C34.372463,30.5300084 37.879074,31.5809838 41.7656451,32.7737288 C45.6522162,33.9664738 52.2837136,36.0487713 52.2593377,40.8923757 C52.2349618,45.7359801 46.7142237,47.7075565 40.1455567,45.3776093 C37.9245341,44.5897987 27.9975407,39.273166 24.3476949,37.462374 C21.6397025,36.1188622 15.4515697,32.5571394 13.0126604,30.0325723 C11.2051626,28.1615927 2.06416611,17.4287396 2.09005596,17.309289 C2.77177056,14.1639948 5.8378624,13.4406672 6.33730732,12.5759449 C6.39764366,12.4714805 8.36524258,13.0883181 11.9828581,16.2257989 C14.8733151,18.7326306 19.0435125,22.280939 20.583603,23.8751196 C24.4826316,27.9110872 28.0162304,28.4210267 28.1933538,28.4797957 Z" id="path-49"/>
    <filter x="-5.6%" y="-18.2%" width="111.1%" height="136.4%" filterUnits="objectBoundingBox" id="filter-50">
      <feOffset dx="-2" dy="5" in="SourceAlpha" result="shadowOffsetInner1"/>
      <feComposite in="shadowOffsetInner1" in2="SourceAlpha" operator="arithmetic" k2="-1" k3="1" result="shadowInnerInner1"/>
      <feColorMatrix values="0 0 0 0 0.68627451   0 0 0 0 0.850980392   0 0 0 0 0.91372549  0 0 0 0.719231205 0" type="matrix" in="shadowInnerInner1"/>
    </filter>
    <path d="M64.5691898,39.8403305 C64.6162569,39.0468625 63.9511505,37.2597165 64.5691898,37.2415802 C66.6514386,37.1804768 67.0842575,36.4094885 67.2542822,35.635331 C68.2080548,31.2926082 70.4407436,30.2140541 71.1358266,29.1795254 C71.4313586,28.7396696 67.7129205,32.3972626 67.6885657,31.4052405 C67.6748015,30.8445969 66.6350095,30.1026919 64.5691898,29.1795254 C71.6528686,28.9507364 75.465837,28.9507364 76.008095,29.1795254 C76.1560667,29.2419575 77.3748972,27.6714991 77.3131269,27.7755673 C76.7111535,28.7897499 76.4666397,30.4752205 76.008095,34.705311 C75.5495504,38.9354015 78.352832,38.9354015 79.1382539,40.3775226 C80.1274107,42.1937236 79.5637242,43.4955369 79.1382539,44.2554034 C78.1228167,46.0689182 72.5217895,48.4375221 67.2542822,46.0308433 C61.9867749,43.6241645 64.5217974,40.6392822 64.5691898,39.8403305 Z" id="path-51"/>
    <filter x="-21.8%" y="-17.8%" width="143.6%" height="135.7%" filterUnits="objectBoundingBox" id="filter-52">
      <feOffset dx="6" dy="6" in="SourceAlpha" result="shadowOffsetInner1"/>
      <feComposite in="shadowOffsetInner1" in2="SourceAlpha" operator="arithmetic" k2="-1" k3="1" result="shadowInnerInner1"/>
      <feColorMatrix values="0 0 0 0 0.921568627   0 0 0 0 0.968627451   0 0 0 0 0.984313725  0 0 0 0.661911232 0" type="matrix" in="shadowInnerInner1"/>
    </filter>
    <path d="M65.737229,45.3760505 L65.737229,42.8014602 C64.6845679,42.0297111 64.087453,41.2842334 63.9458841,40.565027 C63.7335308,39.4862174 64.8598164,38.1869283 64.8598164,37.7779121 C64.8598164,37.5052346 64.4614508,37.703369 63.6647196,38.3723154 L63.9458841,36.9761842 L62.5305371,37.2716613 C61.6575752,38.8877155 61.2017768,39.9855041 61.1631419,40.565027 C60.8916274,44.6377427 61.3757468,46.2260539 61.7946179,44.9586435 C62.3028933,43.4207157 63.0199821,42.7016546 63.9458841,42.8014602 L64.8598164,44.4742982 L65.737229,45.3760505 Z" id="path-53"/>
    <filter x="-61.8%" y="-34.2%" width="223.6%" height="168.4%" filterUnits="objectBoundingBox" id="filter-54">
      <feOffset dx="2" dy="5" in="SourceAlpha" result="shadowOffsetInner1"/>
      <feComposite in="shadowOffsetInner1" in2="SourceAlpha" operator="arithmetic" k2="-1" k3="1" result="shadowInnerInner1"/>
      <feColorMatrix values="0 0 0 0 0.921568627   0 0 0 0 0.968627451   0 0 0 0 0.984313725  0 0 0 0.661911232 0" type="matrix" in="shadowInnerInner1"/>
    </filter>
    <path d="M17.3658982,27.1024214 C20.044989,27.0000032 25.0485518,23.9051505 25.5912036,23.5304709 C28.648269,21.4196883 30.0440622,17.1736413 29.779957,15.4808625 C29.1571948,11.4892756 29.0388364,10.9587822 25.2149387,7.63633894 C23.720231,6.33764269 21.2800073,5.40620001 17.4247692,5.59640016 C16.2414154,5.65478153 11.0232181,6.72971221 9.68642127,9.80282099 C9.29497853,10.7026931 8.80359754,12.3789981 7.72397473,13.9257543 C6.96557215,15.0123041 5.62535571,15.8679953 5.08418442,17.0663583 C4.32267968,18.7526249 3.61998994,21.9654122 4.62088494,23.8750202 C4.96135521,24.5246036 5.72521106,26.245078 7.52764466,27.026432 C8.17822784,27.3084595 8.43126487,27.485568 9.60588322,27.7383693" id="path-55"/>
    <filter x="-11.7%" y="-13.5%" width="123.4%" height="127.1%" filterUnits="objectBoundingBox" id="filter-56">
      <feOffset dx="2" dy="5" in="SourceAlpha" result="shadowOffsetInner1"/>
      <feComposite in="shadowOffsetInner1" in2="SourceAlpha" operator="arithmetic" k2="-1" k3="1" result="shadowInnerInner1"/>
      <feColorMatrix values="0 0 0 0 0.921568627   0 0 0 0 0.968627451   0 0 0 0 0.984313725  0 0 0 0.661911232 0" type="matrix" in="shadowInnerInner1"/>
    </filter>
    <path d="M3.09053938,5.3022786 C3.38329,4.95041682 6.65745742,6.45670432 6.55871329,5.32849946 C6.45996915,4.2002946 5.5855776,2.93481861 4.85890672,2.93481861 C4.59294101,2.93481861 4.34557213,3.01100245 4.06683665,3.24673255 C3.92111991,3.36996703 3.75404218,3.44271962 3.59868983,3.77283335 C3.41328682,4.16680279 2.98140122,4.72564299 2.50580993,5.1886636 C2.13722351,5.54750766 1.87583275,5.79763271 1.5762433,5.76423694 C1.0860731,5.70959679 0.624659191,5.16852022 0.395800726,5.12405221 C0.18468982,5.08303261 0.128374309,5.91810748 1.25885815,6.23364515 C2.11120527,6.47155002 2.7149514,5.75370397 3.09053938,5.3022786 Z" id="path-57"/>
    <filter x="-25.4%" y="-16.1%" width="150.7%" height="132.3%" filterUnits="objectBoundingBox" id="filter-58">
      <feOffset dx="0" dy="2" in="SourceAlpha" result="shadowOffsetInner1"/>
      <feComposite in="shadowOffsetInner1" in2="SourceAlpha" operator="arithmetic" k2="-1" k3="1" result="shadowInnerInner1"/>
      <feColorMatrix values="0 0 0 0 0.258823529   0 0 0 0 0.611764706   0 0 0 0 0.709803922  0 0 0 1 0" type="matrix" in="shadowInnerInner1"/>
    </filter>
    <path d="M81.3864538,24.7021998 C80.8661064,24.0851977 80.9190335,23.6791102 80.2682014,23.8269774 C78.5632406,24.2143396 79.1332518,25.4333766 77.7834406,27.097589 C76.4336294,28.7618014 77.0959595,30.1996774 78.4323261,30.1996774 C78.8185235,30.1996774 79.2469988,30.022284 79.5363046,29.7541869" id="path-59"/>
    <filter x="-67.7%" y="-45.9%" width="235.3%" height="191.8%" filterUnits="objectBoundingBox" id="filter-60">
      <feOffset dx="2" dy="5" in="SourceAlpha" result="shadowOffsetInner1"/>
      <feComposite in="shadowOffsetInner1" in2="SourceAlpha" operator="arithmetic" k2="-1" k3="1" result="shadowInnerInner1"/>
      <feColorMatrix values="0 0 0 0 0.921568627   0 0 0 0 0.968627451   0 0 0 0 0.984313725  0 0 0 0.661911232 0" type="matrix" in="shadowInnerInner1"/>
    </filter>
    <path d="M76.5289069,22.1551054 L76.497404,22.1499165 C76.0228504,20.0703106 75.6378082,18.8541944 75.3422775,18.501568 C74.8989814,17.9726284 74.8989814,17.2593547 71.8457002,17.2593547 C68.7924191,17.2593547 66.7053286,19.3659101 64.2614441,19.3659101 C61.8175595,19.3659101 61.7759437,19.7208031 60.0722392,20.2679531 C59.4476725,20.4685346 60.5747185,19.3659101 60.5747185,19.0305076 C60.5747185,17.9775864 57.4677067,20.2679531 58.2682207,19.3659101 C58.7724916,18.7976825 58.7148308,18.5849001 58.8472457,18.166185 C58.9796607,17.7474698 56.5012747,17.9704866 57.7163113,17.6846769 C58.9313479,17.3988671 57.8402881,15.918916 59.4360079,13.8347625 C61.0317276,11.7506091 60.5424084,11.6472978 62.482504,10.435239 C64.4225996,9.22318014 65.3499899,9.40515528 68.4392843,8.86105806 C71.5285787,8.31696084 73.6946057,8.72530444 75.7855736,9.22922013 C77.8765414,9.73313583 77.3286301,7.24734549 77.3286301,7.64699024 C77.3286301,8.04663499 78.3750226,8.70668066 78.3750226,10.075922 C78.3750226,10.435239 78.0444233,11.1260794 79.1659049,11.1260794 C79.3941559,11.1260794 79.3941559,11.3616276 79.1659049,11.832724 C79.9729834,13.107108 80.4948238,14.0729161 80.7314262,14.7301484 C81.247787,16.1644916 81.354724,17.814933 81.4330053,18.501568 C81.5075392,19.1553329 81.4655495,19.9014421 81.3070361,20.7398956 C81.4442031,20.7600091 81.5843321,20.7812656 81.7274231,20.8036651 C81.4004321,22.3955582 81.1237519,23.2806525 80.8973826,23.4589482 C80.0395991,24.1345655 78.6976693,24.4977611 78.3364904,25.5765386 C77.61547,27.7300985 77.388753,28.9704729 77.388753,30.533859 C77.388753,32.097245 77.0078831,33.3065434 74.8193663,35.5833294 C72.6308495,37.8601155 69.4512055,38.9760844 65.4329247,38.6052865 C61.414644,38.2344886 59.709661,32.5010119 59.709661,31.4847194 C59.709661,30.468427 62.2242271,29.4414851 63.9973586,29.4414851 C68.108659,29.4414851 72.9987603,31.8501561 74.8193663,30.533859 C76.4640755,29.3447351 76.4640755,26.0464748 76.727508,24.3119663 C76.8591631,23.4451145 76.6610268,22.7329151 76.5289069,22.1551054 Z" id="path-61"/>
    <filter x="-6.2%" y="-4.8%" width="112.3%" height="109.7%" filterUnits="objectBoundingBox" id="filter-62">
      <feOffset dx="2" dy="-2" in="SourceAlpha" result="shadowOffsetInner1"/>
      <feComposite in="shadowOffsetInner1" in2="SourceAlpha" operator="arithmetic" k2="-1" k3="1" result="shadowInnerInner1"/>
      <feColorMatrix values="0 0 0 0 0.921568627   0 0 0 0 0.968627451   0 0 0 0 0.984313725  0 0 0 0.661911232 0" type="matrix" in="shadowInnerInner1"/>
    </filter>
    <path d="M57.7583392,84.1617324 C60.4981951,87.0312454 60.4276158,87.7416887 66.7079273,90.2438155 C72.9882387,92.7459423 78.0676586,92.3655863 81.8199267,92.3655863 C85.5721948,92.3655863 86.1552363,91.9470297 87.1996008,90.2438155 C87.8958437,89.1083393 87.8958437,87.7338849 87.1996008,86.1204523 C86.7244444,87.7372073 84.6363368,88.5455848 80.935278,88.5455848 C75.3836897,88.5455848 73.8910335,88.5455848 66.7079273,86.1204523 C61.9191898,84.5036972 58.5146192,81.3388819 56.4942157,76.6260062 C55.5103941,79.7368151 55.9317686,82.2487238 57.7583392,84.1617324 Z" id="path-63"/>
    <filter x="-4.7%" y="-9.5%" width="109.5%" height="119.1%" filterUnits="objectBoundingBox" id="filter-64">
      <feOffset dx="0" dy="2" in="SourceAlpha" result="shadowOffsetInner1"/>
      <feComposite in="shadowOffsetInner1" in2="SourceAlpha" operator="arithmetic" k2="-1" k3="1" result="shadowInnerInner1"/>
      <feColorMatrix values="0 0 0 0 0.921568627   0 0 0 0 0.968627451   0 0 0 0 0.984313725  0 0 0 0.661911232 0" type="matrix" in="shadowInnerInner1"/>
    </filter>
    <path d="M86.6019791,100.397567 C88.5072669,100.801235 89.8926217,101.003068 90.7580435,101.003068 C91.6234653,101.003068 92.6937886,100.801235 93.9690134,100.397567 L93.9690134,96.6916811 C92.8274866,97.6590755 91.7571633,98.1427728 90.7580435,98.1427728 C89.7589237,98.1427728 88.0473149,97.8618763 85.6232171,97.3000835 L86.6019791,100.397567 Z" id="path-65"/>
    <filter x="-17.8%" y="-34.5%" width="135.7%" height="169.1%" filterUnits="objectBoundingBox" id="filter-66">
      <feOffset dx="2" dy="-2" in="SourceAlpha" result="shadowOffsetInner1"/>
      <feComposite in="shadowOffsetInner1" in2="SourceAlpha" operator="arithmetic" k2="-1" k3="1" result="shadowInnerInner1"/>
      <feColorMatrix values="0 0 0 0 0.68627451   0 0 0 0 0.854901961   0 0 0 0 0.91372549  0 0 0 1 0" type="matrix" in="shadowInnerInner1"/>
    </filter>
    <path d="M70.4909827,46.2881512 C70.4909827,46.4524267 70.9399596,45.8045367 71.8379133,44.3444814 C73.4337743,47.1146594 74.1196777,48.8156089 73.8956235,49.4473299 C73.5595423,50.3949113 79.4423038,45.2682528 80.4279635,44.3444814 C81.0850699,43.7286338 81.1793615,42.2751874 80.7108382,39.9841423 C79.8947664,38.7910724 79.1582968,37.9195704 78.5014294,37.3696364 C77.844562,36.8197024 77.1228295,36.4354788 76.3362317,36.2169657 C76.3275554,36.6320498 76.5703658,37.2545877 77.064663,38.0845792 C77.8061087,39.3295666 79.1116487,39.3295666 78.245572,40.7434133 C77.3794953,42.1572601 72.4523934,42.7903455 71.8379133,43.112902 C71.2234331,43.4354585 70.4909827,46.0417379 70.4909827,46.2881512 Z" id="path-67"/>
    <filter x="-27.4%" y="-21.5%" width="154.7%" height="143.1%" filterUnits="objectBoundingBox" id="filter-68">
      <feOffset dx="2" dy="5" in="SourceAlpha" result="shadowOffsetInner1"/>
      <feComposite in="shadowOffsetInner1" in2="SourceAlpha" operator="arithmetic" k2="-1" k3="1" result="shadowInnerInner1"/>
      <feColorMatrix values="0 0 0 0 0.921568627   0 0 0 0 0.968627451   0 0 0 0 0.984313725  0 0 0 0.661911232 0" type="matrix" in="shadowInnerInner1"/>
    </filter>
  </defs>
  <g id="v2" stroke="none" stroke-width="1" fill="none" fill-rule="evenodd">
    <g id="v2-Overview" transform="translate(-209.000000, -2889.000000)">
      <g id="Group-56" transform="translate(386.000000, 3079.334802) scale(-1, 1) translate(-386.000000, -3079.334802) translate(211.000000, 2892.000000)">
        <g id="Group-52">
          <g id="Laptop" transform="translate(169.202926, 199.442456) scale(-1, 1) translate(-169.202926, -199.442456) translate(0.214445, 24.308564)" fill="#FFFFFF" stroke="#429CB5" stroke-linejoin="round">
            <g id="Group" transform="translate(10.495464, 151.053432)">
              <g id="LAPTOP">
                <path d="M325.635247,71.2554744 L291.504786,63.2655701 L277.205495,54.6795285 L274.077525,56.4871162 L274.077525,52.4200438 L269.162144,49.7086623 L259.331381,44.2858991 L242.350973,34.3441666 L238.329298,36.6036513 L238.329298,31.6327851 L224.030007,23.0467434 L220.902037,24.8543311 L220.902037,21.2391557 L206.602746,12.653114 L191.409749,21.2391557 L191.409749,24.4024342 L188.728632,22.5948465 L173.535635,31.1808881 L173.535635,34.3441666 L170.854518,32.5365789 L155.661522,41.5745175 L155.661522,44.737796 L152.980405,42.9302083 L137.787408,51.9681469 L137.787408,55.1314254 L135.106291,53.3238377 L119.913294,61.9098793 L119.913294,65.0731579 L117.232177,63.2655701 L102.039181,71.8516118 L102.039181,75.0148903 L99.3580636,73.2073026 L84.1650669,82.2452412 L84.1650669,85.4085197 L81.4839499,83.600932 L66.2909532,92.1869736 L66.2909532,95.3502521 L63.6098362,93.5426644 L48.4168395,102.128706 L48.4168395,112.974232 L56.9070435,117.945099 L53.3322208,120.204583 L53.3322208,116.589408 L39.0329298,108.003366 L23.8399332,116.589408 L23.8399332,127.434934 L38.1392242,136.020976 L41.2671941,134.213388 L41.2671941,137.828564 L55.566485,146.414605 L58.6944549,144.607017 L58.6944549,148.222193 L72.9937459,156.808235 L76.1217158,155.000647 L76.1217158,158.615822 L90.4210067,167.201864 L93.5489766,165.394276 L93.5489766,169.461349 L107.848268,178.04739 L139.574819,159.519616 L139.574819,157.260131 L141.362231,158.163925 L164.598579,144.607017 L164.598579,141.895636 L166.832843,143.251327 L175.323047,138.28046 L175.323047,142.347533 L190.962896,151.837368 L132.425174,185.729638 C131.978321,186.181535 131.084615,186.181535 130.637763,186.633432 C129.744057,186.633432 129.297204,187.085329 128.850351,187.085329 C128.403498,187.085329 127.956645,187.085329 127.509793,187.537226 C127.06294,187.537226 126.169234,187.537226 125.722381,187.989123 C124.381823,187.989123 123.93497,187.989123 123.041264,187.989123 C121.700706,187.989123 121.253853,187.989123 120.360147,187.989123 C119.019589,187.989123 118.572736,187.989123 117.67903,187.537226 C116.785324,187.537226 115.891619,187.085329 115.444766,187.085329 C114.55106,186.633432 114.104207,186.633432 113.210502,186.181535 L4.17840814,122.012171 C1.49729108,120.65648 0.156732556,118.396996 0.156732556,116.589408 C0.156732556,120.204583 0.156732556,123.819759 0.156732556,127.434934 C0.156732556,129.242522 1.49729108,131.502007 4.17840814,132.857697 L113.210502,197.027061 C113.657355,197.478958 114.55106,197.930855 114.997913,197.930855 C115.444766,197.930855 115.891619,198.382752 116.338472,198.382752 C117.232177,198.382752 117.67903,198.382752 117.67903,198.382752 C118.125883,198.382752 118.572736,198.382752 119.019589,198.382752 C119.913294,198.382752 120.360147,198.382752 120.360147,198.382752 C120.807,198.382752 121.253853,198.382752 121.700706,198.382752 C122.594411,198.382752 123.041264,198.382752 123.041264,198.382752 C123.488117,198.382752 123.93497,198.382752 124.381823,198.382752 C125.275528,198.382752 125.722381,198.382752 126.169234,198.382752 C127.06294,198.382752 127.509793,198.382752 127.956645,197.930855 C128.850351,197.930855 129.297204,197.930855 129.297204,197.478958 C130.19091,197.027061 131.084615,197.027061 131.531468,196.575164 L320.997073,85.8604166 C325.277124,82.8885441 326.823182,78.02023 325.635247,71.2554744 Z" id="Shape" stroke-width="4.95"/>
                <path d="M323.231338,66.8807456 L214.199244,2.71138158 C209.283863,-0.45189693 200.793659,-0.45189693 195.431425,2.71138158 L5.96581951,113.426129 C0.603585398,116.589408 0.603585398,121.560274 5.96581951,124.271656 L114.997913,188.44102 C119.913294,191.604298 128.403498,191.604298 133.765732,188.44102 L323.231338,77.7262719 C328.146719,74.5629934 328.146719,70.0440241 323.231338,66.8807456 Z" id="Shape" stroke-width="1.85625"/>
                <polygon id="Shape" stroke-width="1.85625" points="198.112542 37.9593421 212.411833 46.0934868 197.665689 55.1314254 182.919545 46.5453837"/>
                <polygon id="Shape" stroke-width="1.85625" points="221.34889 45.189693 235.64818 53.3238377 220.902037 62.3617763 206.155893 53.7757346"/>
                <polygon id="Shape" stroke-width="1.85625" points="241.90412 33.8922697 258.884528 43.8340022 268.715291 49.2567653 273.183819 51.9681469 248.16006 66.8807456 233.413916 58.2947039 241.457267 53.7757346 224.476859 44.2858991"/>
                <polygon id="Shape" stroke-width="1.85625" points="204.368482 54.6795285 218.667772 63.2655701 203.921629 72.3035087 189.175485 63.7174671"/>
                <polygon id="Shape" stroke-width="1.85625" points="276.758642 54.2276315 291.057933 62.3617763 260.225087 80.8895504 245.925796 72.3035087"/>
                <polygon id="Shape" stroke-width="1.85625" points="244.138384 73.2073026 258.884528 81.3414473 235.201328 95.3502521 220.902037 86.7642105"/>
                <polygon id="Shape" stroke-width="1.85625" points="198.112542 79.5338596 212.411833 87.6680043 197.665689 96.7059429 182.919545 88.1199013"/>
                <polygon id="Shape" stroke-width="1.85625" points="205.70904 12.653114 220.008331 21.2391557 205.262187 29.8251974 190.516043 21.2391557"/>
                <polygon id="Shape" stroke-width="1.85625" points="187.834926 23.0467434 202.134217 31.6327851 187.388074 40.2188267 172.64193 31.6327851"/>
                <polygon id="Shape" stroke-width="1.85625" points="223.583154 23.0467434 237.882445 31.1808881 214.646097 45.189693 200.346806 36.6036513"/>
                <polygon id="Shape" stroke-width="1.85625" points="169.960813 33.4403728 184.260104 42.0264144 169.51396 50.6124561 154.767816 42.4783114"/>
                <polygon id="Shape" stroke-width="1.85625" points="152.086699 43.8340022 166.38599 52.4200438 151.639846 61.4579824 137.340555 52.8719408"/>
                <polygon id="Shape" stroke-width="1.85625" points="181.132134 47.9010745 195.431425 56.0352193 180.685281 65.0731579 165.939137 56.4871162"/>
                <polygon id="Shape" stroke-width="1.85625" points="134.212585 54.6795285 148.958729 62.8136732 133.765732 71.8516118 119.019589 63.2655701"/>
                <polygon id="Shape" stroke-width="1.85625" points="164.151726 57.842807 178.451017 66.4288486 163.25802 75.0148903 148.958729 66.4288486"/>
                <polygon id="Shape" stroke-width="1.85625" points="231.626505 59.6503947 245.925796 68.2364364 231.179652 76.822478 216.433508 68.2364364"/>
                <polygon id="Shape" stroke-width="1.85625" points="116.338472 65.0731579 131.084615 73.6591995 115.891619 82.2452412 101.592328 73.6591995"/>
                <polygon id="Shape" stroke-width="1.85625" points="187.388074 64.6212609 202.134217 73.2073026 186.941221 82.2452412 172.64193 73.6591995"/>
                <polygon id="Shape" stroke-width="1.85625" points="146.724465 67.7845394 161.470609 76.3705811 146.277612 84.9566228 131.978321 76.822478"/>
                <polygon id="Shape" stroke-width="1.85625" points="214.646097 69.5921272 229.392241 78.1781688 214.199244 86.7642105 199.899953 78.1781688"/>
                <polygon id="Shape" stroke-width="1.85625" points="170.407666 74.5629934 185.153809 83.149035 169.960813 92.1869736 155.661522 83.600932"/>
                <polygon id="Shape" stroke-width="1.85625" points="98.4643579 75.4667872 113.210502 84.0528289 98.017505 92.6388706 83.7182141 84.0528289"/>
                <polygon id="Shape" stroke-width="1.85625" points="129.744057 77.7262719 144.490201 86.3123135 129.297204 95.3502521 114.997913 86.7642105"/>
                <polygon id="Shape" stroke-width="1.85625" points="153.87411 84.5047258 168.173401 93.0907675 152.980405 101.676809 138.681114 93.5426644"/>
                <polygon id="Shape" stroke-width="1.85625" points="80.5902442 85.8604166 95.336388 94.4464583 80.1433913 103.0325 65.8441004 94.8983552"/>
                <polygon id="Shape" stroke-width="1.85625" points="112.763649 87.6680043 127.06294 96.254046 112.316796 105.291985 97.5706522 96.7059429"/>
                <polygon id="Shape" stroke-width="1.85625" points="180.685281 89.4755921 194.984572 98.0616337 180.238428 106.647675 165.492284 98.5135306"/>
                <polygon id="Shape" stroke-width="1.85625" points="136.893702 94.4464583 151.192993 103.0325 136.446849 111.618542 121.700706 103.484397"/>
                <polygon id="Shape" stroke-width="1.85625" points="62.7161305 96.254046 77.4622743 104.840088 62.2692776 113.878026 47.9699867 105.291985"/>
                <polygon id="Shape" stroke-width="1.85625" points="95.7832408 98.0616337 110.082532 106.195778 95.336388 115.233717 80.5902442 106.647675"/>
                <polygon id="Shape" stroke-width="1.85625" points="164.151726 99.4173245 178.451017 108.003366 163.25802 116.589408 148.958729 108.003366"/>
                <polygon id="Shape" stroke-width="1.85625" points="119.913294 104.388191 134.212585 112.974232 119.466441 121.560274 104.720298 113.426129"/>
                <polygon id="Shape" stroke-width="1.85625" points="147.171318 109.359057 161.470609 117.945099 146.724465 126.53114 131.978321 117.945099"/>
                <polygon id="Shape" stroke-width="1.85625" points="38.1392242 110.714748 52.4385151 119.300789 37.6923713 128.338728 22.9462275 119.752686"/>
                <polygon id="Shape" stroke-width="1.85625" points="102.932886 114.329923 117.67903 122.915965 102.486033 131.502007 88.1867425 122.915965"/>
                <polygon id="Shape" stroke-width="1.85625" points="219.114625 87.6680043 233.860769 96.254046 167.726548 135.117182 153.427257 126.53114"/>
                <polygon id="Shape" stroke-width="1.85625" points="130.19091 119.300789 144.937053 127.434934 129.744057 136.472873 115.444766 127.886831"/>
                <polygon id="Shape" stroke-width="1.85625" points="77.9091271 108.455263 92.2084181 117.041305 55.566485 138.732357 40.8203412 130.146316"/>
                <polygon id="Shape" stroke-width="1.85625" points="230.285946 102.580603 251.734883 115.233717 197.665689 146.414605 176.663605 134.213388"/>
                <polygon id="Shape" stroke-width="1.85625" points="85.9524783 124.271656 100.698622 132.857697 72.9937459 148.67409 58.6944549 140.539945"/>
                <polygon id="Shape" stroke-width="1.85625" points="151.192993 127.886831 165.939137 136.020976 142.255936 150.029781 127.956645 141.443739"/>
                <polygon id="Shape" stroke-width="1.85625" points="113.210502 129.242522 127.956645 137.376667 90.8678596 159.067719 76.1217158 150.933574"/>
                <polygon id="Shape" stroke-width="1.85625" points="126.169234 142.347533 140.468525 150.933574 108.741973 169.461349 93.9958295 161.327204"/>
              </g>
            </g>
            <path d="M211.735975,4.18693033 C211.735975,4.18693033 211.289122,4.18693033 211.735975,4.18693033 C210.395417,3.28313647 209.501711,2.83123954 208.608005,2.37934261 C207.7143,1.92744569 206.820594,1.47554876 205.926888,1.02365183 C204.139477,0.119857967 201.905213,0.119857967 199.224096,1.47554876 L9.75849048,112.190296 C4.39625637,115.353575 0.374580785,122.583926 0.374580785,128.458586 L0.821433627,255.89352 C0.821433627,259.056799 1.71513931,260.864386 3.50255068,261.76818 C5.73681489,263.123871 7.97107911,264.479562 10.2053433,265.835253 C8.41793195,264.931459 7.52422626,262.671974 7.52422626,259.960592 L7.07737342,132.525658 C7.07737342,126.650998 11.099049,119.420647 16.4612831,116.257369 L205.926888,5.54262112 C208.608005,4.18693033 210.84227,3.7350334 212.629681,5.09072419 C212.182828,4.63882726 211.735975,4.18693033 211.735975,4.18693033 Z" id="Shape" stroke-width="4.95"/>
          </g>
          <g id="Group-8" transform="translate(119.469540, 0.000000)">
            <g id="Group-51" transform="translate(114.896091, 145.139989) scale(-1, 1) translate(-114.896091, -145.139989) translate(0.116265, 0.000000)">
              <g id="Group-5" transform="translate(114.909515, 145.139989) scale(-1, 1) translate(-114.909515, -145.139989) translate(0.384189, 0.000000)">
                <g id="Group" transform="translate(114.629291, 145.139989) scale(-1, 1) translate(-114.629291, -145.139989) translate(0.358466, 0.000000)">
                  <g id="Shape">
                    <path d="M215.295621,1.21573248 C212.607809,-0.0799869593 210.148826,-0.552387931 207.382386,1.13183623 L11.4210288,112.858883 C5.888149,115.986728 1.43778918,124.528151 1.43778918,131.866556 C0.394670121,218.043526 -0.060129374,264.348544 0.0733906944,270.78161 C0.273670797,280.431208 9.76462779,296.18147 25.0757391,287.359354 C63.9101868,264.983315 125.109223,229.377159 208.672848,180.540886 L208.672848,180.540886 C220.268784,173.763987 227.38983,161.335411 227.372164,147.904411 L227.193468,12.0493659 C227.18988,9.32184879 225.691162,6.81587338 223.289905,5.52230173 L215.295621,1.21573248 Z" stroke="#238DAE" stroke-width="4.95" fill="#FFFFFF"/>
                    <g transform="translate(11.134266, 5.790348)" stroke="#429CB5">
                      <path d="M207.288635,167.700605 L17.7134182,277.730928 C7.79091594,281.88581 0.466802501,270.928067 0.22557781,263.80487 L0.527322914,133.775519 C0.527322914,126.437114 4.97768273,118.015993 10.5105625,114.767846 L207.288635,1.20301726 C212.821514,-1.92482761 217.271874,1.44362071 217.271874,8.66172424 L217.271874,148.572631 C217.271874,156.031338 212.821514,164.452459 207.288635,167.700605 Z" stroke-width="1.99691895" fill="#EDFAFF"/>
                      <path d="M202.745876,158.344235 L16.0713238,266.134581 C11.139844,269.021823 7.05032412,266.01428 7.05032412,259.397685 L7.05032412,139.817769 C7.05032412,133.201175 11.019564,125.501864 16.0713238,122.734924 L202.745876,14.9445783 C207.677356,12.0573369 211.766876,15.06488 211.766876,21.6814749 L211.766876,141.26139 C211.766876,147.757683 207.677356,155.456994 202.745876,158.344235 Z" stroke-width="1.85625" fill="#FFFFFF"/>
                    </g>
                  </g>
                </g>
                <g id="Group-2" transform="translate(107.839871, 144.457083) scale(-1, 1) translate(-107.839871, -144.457083) translate(23.299863, 35.001146)">
                  <path d="M167.019161,0.134195117 L2.7754455,95.5795622 C1.06119975,96.559311 0,98.4371629 0,100.478306 L0.326523,216.251955 C0.326523,217.966515 2.20403025,219.02791 3.67338375,218.211453 L167.917099,122.766086 C168.651776,122.357857 169.05993,121.623045 169.05993,120.806588 L168.733407,1.19558964 C168.733407,0.297486583 167.835468,-0.274033546 167.019161,0.134195117 Z" id="Shape" fill="#FFFFFF" opacity="0.376897321"/>
                  <g id="Group" transform="translate(67.145572, 64.937746)">
                    <polyline id="Shape" fill-opacity="0.660000026" fill="#F2FCFF" points="28.6690919 62.3571239 16.5408796 69.4019542 16.5408796 76.691822 28.7303455 69.6469917 28.6690919 62.3571239"/>
                    <polygon id="Shape" fill="#7CB7C8" points="16.5408796 62.1830183 16.5408796 84.0429492 28.7303455 76.998119 28.7303455 55.138188"/>
                    <polyline id="Shape" fill-opacity="0.660000026" fill="#F2FCFF" points="12.5226155 9.95427979 0.394403183 16.99911 0.394403183 24.5952748 12.5226155 17.5504446 12.5226155 9.95427979"/>
                    <polyline id="Shape-Copy-22" fill-opacity="0.660000026" fill="#C9F1FF" points="29.0007527 0.654102087 16.8725404 7.69893234 16.8725404 15.2950971 29.0007527 8.25026688 29.0007527 0.654102087"/>
                    <polyline id="Shape" fill="#CBF3FF" points="46.8537538 26.1753916 34.7255414 33.2202219 34.8480486 73.8351998 46.976261 66.8516289 46.8537538 26.1753916"/>
                    <polyline id="Shape" fill-opacity="0.660000026" fill="#F2FCFF" points="73.874247 18.31162 61.7460347 25.3564502 61.7460347 37.5470696 73.9355006 30.5634987 73.874247 18.31162"/>
                    <polyline id="Shape" fill="#98DAED" points="64.496066 30.5634987 52.3066001 36.8216294 52.3678537 61.5123891 64.5573196 54.5288183 64.496066 29.8380585"/>
                    <polyline id="Shape" fill="#BAF0FF" points="79.83754 29.6800738 67.7093277 35.9994638 67.7093277 53.5422196 79.8987936 46.4973894 79.83754 28.9546336"/>
                    <polyline id="Shape-Copy" fill="#D1F5FF" points="95.0858575 18.798471 82.9576451 25.117861 82.9576451 45.5623776 95.1471111 38.5175473 95.0858575 18.0730308"/>
                  </g>
                </g>
                <g id="Group-41" transform="translate(159.119599, 144.406709) scale(-1, 1) translate(-159.119599, -144.406709) translate(140.253678, 124.605120)">
                  <g id="Group-7" transform="translate(0.000000, 17.281387)">
                    <g id="Group-3">
                      <mask id="mask-2" fill="white">
                        <use xlink:href="#path-1"/>
                      </mask>
                      <g id="Clip-2"/>
                      <path d="M2.44197576,2.1634856 L5.58387719,0.363341154 C6.62513089,-0.233586743 7.46901804,0.250292083 7.46901804,1.44342782 L7.46901804,5.04371671 C7.46901804,6.23685244 6.62513089,7.68704881 5.58387719,8.28397671 L2.44197576,10.0841211 C1.39999645,10.680329 0.556109296,10.1971702 0.556109296,9.00403448 L0.556109296,5.4037456 C0.556109296,4.21060986 1.39999645,2.75969344 2.44197576,2.1634856" id="Fill-1" fill="#FFFFFF" mask="url(#mask-2)"/>
                    </g>
                    <g id="Group-6">
                      <mask id="mask-4" fill="white">
                        <use xlink:href="#path-3"/>
                      </mask>
                      <g id="Clip-5"/>
                      <path d="M2.44197576,2.1634856 L5.58387719,0.363341154 C6.62513089,-0.233586743 7.46901804,0.250292083 7.46901804,1.44342782 L7.46901804,5.04371671 C7.46901804,6.23685244 6.62513089,7.68704881 5.58387719,8.28397671 L2.44197576,10.0841211 C1.39999645,10.680329 0.556109296,10.1971702 0.556109296,9.00403448 L0.556109296,5.4037456 C0.556109296,4.21060986 1.39999645,2.75969344 2.44197576,2.1634856 Z" id="Stroke-4" stroke="#76E1F3" stroke-width="1.87945312" mask="url(#mask-4)"/>
                    </g>
                  </g>
                  <g id="Group-10" transform="translate(10.158573, 11.520924)">
                    <mask id="mask-6" fill="white">
                      <use xlink:href="#path-5"/>
                    </mask>
                    <g id="Clip-9"/>
                    <path d="M2.33777783,2.1634856 L5.47967925,0.363341154 C6.52093296,-0.233586743 7.36482011,0.250292083 7.36482011,1.44342782 L7.36482011,5.04371671 C7.36482011,6.23685244 6.52093296,7.68704881 5.47967925,8.28397671 L2.33777783,10.0841211 C1.29579851,10.680329 0.451911364,10.1971702 0.451911364,9.00403448 L0.451911364,5.4037456 C0.451911364,4.21060986 1.29579851,2.75969344 2.33777783,2.1634856 Z" id="Stroke-8" stroke="#76E1F3" stroke-width="1.87945312" mask="url(#mask-6)"/>
                  </g>
                  <g id="Group-17" transform="translate(20.317145, 5.760462)">
                    <g id="Group-13">
                      <mask id="mask-8" fill="white">
                        <use xlink:href="#path-7"/>
                      </mask>
                      <g id="Clip-12"/>
                      <path d="M2.2335799,2.1634856 L5.37548132,0.363341154 C6.41673503,-0.233586743 7.26062218,0.250292083 7.26062218,1.44342782 L7.26062218,5.04371671 C7.26062218,6.23685244 6.41673503,7.68704881 5.37548132,8.28397671 L2.2335799,10.0841211 C1.19160058,10.680329 0.347713432,10.1971702 0.347713432,9.00403448 L0.347713432,5.4037456 C0.347713432,4.21060986 1.19160058,2.75969344 2.2335799,2.1634856" id="Fill-11" fill="#9DF5FF" mask="url(#mask-8)"/>
                    </g>
                    <g id="Group-16">
                      <mask id="mask-10" fill="white">
                        <use xlink:href="#path-9"/>
                      </mask>
                      <g id="Clip-15"/>
                      <path d="M2.2335799,2.1634856 L5.37548132,0.363341154 C6.41673503,-0.233586743 7.26062218,0.250292083 7.26062218,1.44342782 L7.26062218,5.04371671 C7.26062218,6.23685244 6.41673503,7.68704881 5.37548132,8.28397671 L2.2335799,10.0841211 C1.19160058,10.680329 0.347713432,10.1971702 0.347713432,9.00403448 L0.347713432,5.4037456 C0.347713432,4.21060986 1.19160058,2.75969344 2.2335799,2.1634856 Z" id="Stroke-14" stroke="#76E1F3" stroke-width="1.87945312" mask="url(#mask-10)"/>
                    </g>
                  </g>
                  <g id="Group-20" transform="translate(30.475718, 0.000000)">
                    <mask id="mask-12" fill="white">
                      <use xlink:href="#path-11"/>
                    </mask>
                    <g id="Clip-19"/>
                    <path d="M2.12945453,2.1634856 L5.27135595,0.363341154 C6.31260966,-0.233586743 7.15649681,0.250292083 7.15649681,1.44342782 L7.15649681,5.04371671 C7.15649681,6.23685244 6.31260966,7.68704881 5.27135595,8.28397671 L2.12945453,10.0841211 C1.08747521,10.680329 0.243588062,10.1971702 0.243588062,9.00403448 L0.243588062,5.4037456 C0.243588062,4.21060986 1.08747521,2.75969344 2.12945453,2.1634856 Z" id="Stroke-18" stroke="#76E1F3" stroke-width="1.87945312" mask="url(#mask-12)"/>
                  </g>
                  <g id="Group-23" transform="translate(0.000000, 28.802311)">
                    <mask id="mask-14" fill="white">
                      <use xlink:href="#path-13"/>
                    </mask>
                    <g id="Clip-22"/>
                    <path d="M2.44197576,2.16319757 L5.58387719,0.363053131 C6.62513089,-0.233154708 7.46901804,0.25000406 7.46901804,1.4431398 L7.46901804,5.04342868 C7.46901804,6.23656442 6.62513089,7.68748084 5.58387719,8.28368868 L2.44197576,10.0838331 C1.39999645,10.680761 0.556109296,10.1968822 0.556109296,9.00374646 L0.556109296,5.40345757 C0.556109296,4.21032184 1.39999645,2.76012547 2.44197576,2.16319757 Z" id="Stroke-21" stroke="#76E1F3" stroke-width="1.87945312" mask="url(#mask-14)"/>
                  </g>
                  <g id="Group-30" transform="translate(10.158573, 23.041849)">
                    <g id="Group-26">
                      <mask id="mask-16" fill="white">
                        <use xlink:href="#path-15"/>
                      </mask>
                      <g id="Clip-25"/>
                      <path d="M2.33777783,2.16319757 L5.47967925,0.363053131 C6.52093296,-0.233154708 7.36482011,0.25000406 7.36482011,1.4431398 L7.36482011,5.04342868 C7.36482011,6.23656442 6.52093296,7.68748084 5.47967925,8.28368868 L2.33777783,10.0838331 C1.29579851,10.680761 0.451911364,10.1968822 0.451911364,9.00374646 L0.451911364,5.40345757 C0.451911364,4.21032184 1.29579851,2.76012547 2.33777783,2.16319757" id="Fill-24" fill="#A2F7FF" mask="url(#mask-16)"/>
                    </g>
                    <g id="Group-29">
                      <mask id="mask-18" fill="white">
                        <use xlink:href="#path-17"/>
                      </mask>
                      <g id="Clip-28"/>
                      <path d="M2.33777783,2.16319757 L5.47967925,0.363053131 C6.52093296,-0.233154708 7.36482011,0.25000406 7.36482011,1.4431398 L7.36482011,5.04342868 C7.36482011,6.23656442 6.52093296,7.68748084 5.47967925,8.28368868 L2.33777783,10.0838331 C1.29579851,10.680761 0.451911364,10.1968822 0.451911364,9.00374646 L0.451911364,5.40345757 C0.451911364,4.21032184 1.29579851,2.76012547 2.33777783,2.16319757 Z" id="Stroke-27" stroke="#76E1F3" stroke-width="1.87945312" mask="url(#mask-18)"/>
                    </g>
                  </g>
                  <g id="Group-37" transform="translate(20.317145, 17.281387)">
                    <g id="Group-33">
                      <mask id="mask-20" fill="white">
                        <use xlink:href="#path-19"/>
                      </mask>
                      <g id="Clip-32"/>
                      <path d="M2.2335799,2.16319757 L5.37548132,0.363053131 C6.41673503,-0.233154708 7.26062218,0.25000406 7.26062218,1.4431398 L7.26062218,5.04342868 C7.26062218,6.23656442 6.41673503,7.68748084 5.37548132,8.28368868 L2.2335799,10.0838331 C1.19160058,10.680761 0.347713432,10.1968822 0.347713432,9.00374646 L0.347713432,5.40345757 C0.347713432,4.21032184 1.19160058,2.76012547 2.2335799,2.16319757" id="Fill-31" fill="#FFF6F6" mask="url(#mask-20)"/>
                    </g>
                    <g id="Group-36">
                      <mask id="mask-22" fill="white">
                        <use xlink:href="#path-21"/>
                      </mask>
                      <g id="Clip-35"/>
                      <path d="M2.2335799,2.16319757 L5.37548132,0.363053131 C6.41673503,-0.233154708 7.26062218,0.25000406 7.26062218,1.4431398 L7.26062218,5.04342868 C7.26062218,6.23656442 6.41673503,7.68748084 5.37548132,8.28368868 L2.2335799,10.0838331 C1.19160058,10.680761 0.347713432,10.1968822 0.347713432,9.00374646 L0.347713432,5.40345757 C0.347713432,4.21032184 1.19160058,2.76012547 2.2335799,2.16319757 Z" id="Stroke-34" stroke="#76E1F3" stroke-width="1.87945312" mask="url(#mask-22)"/>
                    </g>
                  </g>
                  <g id="Group-17-Copy" transform="translate(20.317145, 5.760462)">
                    <g id="Group-13">
                      <mask id="mask-24" fill="white">
                        <use xlink:href="#path-23"/>
                      </mask>
                      <g id="Clip-12"/>
                      <path d="M2.2335799,2.1634856 L5.37548132,0.363341154 C6.41673503,-0.233586743 7.26062218,0.250292083 7.26062218,1.44342782 L7.26062218,5.04371671 C7.26062218,6.23685244 6.41673503,7.68704881 5.37548132,8.28397671 L2.2335799,10.0841211 C1.19160058,10.680329 0.347713432,10.1971702 0.347713432,9.00403448 L0.347713432,5.4037456 C0.347713432,4.21060986 1.19160058,2.75969344 2.2335799,2.1634856" id="Fill-11" fill="#9DF5FF" mask="url(#mask-24)"/>
                    </g>
                    <g id="Group-16">
                      <mask id="mask-26" fill="white">
                        <use xlink:href="#path-25"/>
                      </mask>
                      <g id="Clip-15"/>
                      <path d="M2.2335799,2.1634856 L5.37548132,0.363341154 C6.41673503,-0.233586743 7.26062218,0.250292083 7.26062218,1.44342782 L7.26062218,5.04371671 C7.26062218,6.23685244 6.41673503,7.68704881 5.37548132,8.28397671 L2.2335799,10.0841211 C1.19160058,10.680329 0.347713432,10.1971702 0.347713432,9.00403448 L0.347713432,5.4037456 C0.347713432,4.21060986 1.19160058,2.75969344 2.2335799,2.1634856 Z" id="Stroke-14" stroke="#76E1F3" stroke-width="1.87945312" mask="url(#mask-26)"/>
                    </g>
                  </g>
                  <g id="Group-37-Copy" transform="translate(20.317145, 17.281387)">
                    <g id="Group-33">
                      <mask id="mask-28" fill="white">
                        <use xlink:href="#path-27"/>
                      </mask>
                      <g id="Clip-32"/>
                      <path d="M2.2335799,2.16319757 L5.37548132,0.363053131 C6.41673503,-0.233154708 7.26062218,0.25000406 7.26062218,1.4431398 L7.26062218,5.04342868 C7.26062218,6.23656442 6.41673503,7.68748084 5.37548132,8.28368868 L2.2335799,10.0838331 C1.19160058,10.680761 0.347713432,10.1968822 0.347713432,9.00374646 L0.347713432,5.40345757 C0.347713432,4.21032184 1.19160058,2.76012547 2.2335799,2.16319757" id="Fill-31" fill="#FFF6F6" mask="url(#mask-28)"/>
                    </g>
                    <g id="Group-36">
                      <mask id="mask-30" fill="white">
                        <use xlink:href="#path-29"/>
                      </mask>
                      <g id="Clip-35"/>
                      <path d="M2.2335799,2.16319757 L5.37548132,0.363053131 C6.41673503,-0.233154708 7.26062218,0.25000406 7.26062218,1.4431398 L7.26062218,5.04342868 C7.26062218,6.23656442 6.41673503,7.68748084 5.37548132,8.28368868 L2.2335799,10.0838331 C1.19160058,10.680761 0.347713432,10.1968822 0.347713432,9.00374646 L0.347713432,5.40345757 C0.347713432,4.21032184 1.19160058,2.76012547 2.2335799,2.16319757 Z" id="Stroke-34" stroke="#76E1F3" stroke-width="1.87945312" mask="url(#mask-30)"/>
                    </g>
                  </g>
                  <g id="Group-40" transform="translate(30.475718, 11.520924)">
                    <mask id="mask-32" fill="white">
                      <use xlink:href="#path-31"/>
                    </mask>
                    <g id="Clip-39"/>
                    <path d="M2.12945453,2.16319757 L5.27135595,0.363053131 C6.31260966,-0.233154708 7.15649681,0.25000406 7.15649681,1.4431398 L7.15649681,5.04342868 C7.15649681,6.23656442 6.31260966,7.68748084 5.27135595,8.28368868 L2.12945453,10.0838331 C1.08747521,10.680761 0.243588062,10.1968822 0.243588062,9.00374646 L0.243588062,5.40345757 C0.243588062,4.21032184 1.08747521,2.76012547 2.12945453,2.16319757 Z" id="Stroke-38" stroke="#76E1F3" stroke-width="1.87945312" mask="url(#mask-32)"/>
                  </g>
                </g>
                <path d="M116.0666,179.13174 C117.121372,179.639365 118.586747,180.441095 120.462616,181.536824 C123.276474,183.180471 122.022535,180.796849 122.796524,177.994732 C123.570403,175.192616 127.694948,177.572405 128.363109,181.203408 C129.03127,184.83452 128.579914,187.316031 131.112331,188.730941 C133.644748,190.145741 132.560945,183.211568 133.537058,180.388647 C134.513062,177.565617 137.836778,179.653709 138.753623,183.531406 C139.670578,187.409213 138.237411,195.443166 141.962637,197.690574 C145.687863,199.938093 142.823282,190.740634 146.887792,193.365585 C150.952412,195.990427 147.104268,200.443856 150.895992,202.845545" id="Stroke-1-Copy" stroke="#429CB5" stroke-width="1.87945312" opacity="0.296875"/>
                <path d="M29.8695367,130.792401 L184.124538,40.7726696 C185.319873,40.0750989 186.854377,40.4786169 187.551947,41.6739522 C187.775657,42.0572934 187.893539,42.493173 187.893539,42.9370156 L187.893539,153.931857 C187.893539,155.721995 186.938738,157.37622 185.388648,158.271663 L31.1432183,247.374928 C29.9448139,248.067213 28.4121075,247.656922 27.7198228,246.458517 C27.4996864,246.077442 27.3837885,245.645114 27.3837885,245.205025 L27.3837885,135.121093 C27.3837885,133.33886 28.3302449,131.690697 29.8695367,130.792401 Z" id="Path-9" opacity="0.754241071" style="mix-blend-mode:multiply" stroke-linecap="round" stroke-linejoin="round" transform="translate(107.638664, 144.068492) scale(-1, 1) translate(-107.638664, -144.068492) "/>
                <g id="Group-7" transform="translate(57.666510, 81.138218) scale(-1, 1) translate(-57.666510, -81.138218) translate(40.735555, 65.683319)" stroke="#76E1F3" stroke-linecap="round" stroke-linejoin="round" stroke-width="1.56621094">
                  <path d="M21.5744865,11.3721008 C21.5744865,7.73923368 24.1944308,3.28339322 27.4277594,1.420112 C30.661088,-0.443169218 33.2819997,0.991238561 33.2819997,4.62410567 C33.2819997,8.25600685 30.5014532,12.8036108 27.2681247,14.6678579 L0.604289955,30.0367887" id="Stroke-1"/>
                  <path d="M12.4731793,19.6074367 C12.4731793,17.6263119 13.8276557,15.239496 15.4984991,14.2754967 C17.1693424,13.3124633 18.5238188,14.1383345 18.5238188,16.1194593 C18.5238188,18.10155 17.0871063,20.5356966 15.416263,21.4987299 L9.03764679,25.1760299" id="Stroke-3"/>
                  <path d="M19.4127422,26.9688947 C19.4127422,29.280368 21.1010003,30.1806158 23.1839914,28.9799634 C25.2679501,27.779311 26.9571756,24.9317459 26.9571756,22.6202726 C26.9571756,20.3087993 25.1644294,19.4674733 23.0814382,20.6681257 L6.92930758,29.9787362" id="Stroke-5"/>
                </g>
                <path d="M69.6745065,109.770467 L52.4293028,100.601544" id="Path-2" stroke="#76E1F3" stroke-width="1.25296875" stroke-linecap="round" fill-rule="nonzero"/>
                <path d="M69.6745065,112.66826 L56.6990269,105.769463" id="Path-2-Copy" stroke="#76E1F3" stroke-width="0.626484375" stroke-linecap="round" fill-rule="nonzero"/>
                <path d="M69.6745065,113.634191 L56.6990269,106.735394" id="Path-2-Copy-2" stroke="#76E1F3" stroke-width="0.626484375" stroke-linecap="round" fill-rule="nonzero"/>
                <path d="M68.7070234,114.600122 L62.5631034,111.333526" id="Path-2-Copy-3" stroke="#76E1F3" stroke-width="0.626484375" stroke-linecap="round" fill-rule="nonzero"/>
                <path d="M176.097649,169.658199 L145.189327,153.224875" id="Path-2-Copy-7" stroke="#76E1F3" stroke-width="1.25296875" stroke-linecap="round" fill-rule="nonzero"/>
                <path d="M175.130166,172.555992 L149.345514,158.846819" id="Path-2-Copy-6" stroke="#76E1F3" stroke-width="1.002375" stroke-linecap="round" fill-rule="nonzero"/>
                <path d="M174.162683,174.487855 L148.378031,160.778681" id="Path-2-Copy-5" stroke="#76E1F3" stroke-width="1.002375" stroke-linecap="round" fill-rule="nonzero"/>
              </g>
              <g id="Group-66" style="mix-blend-mode:hard-light" transform="translate(43.145866, 117.993607)"/>
              <path d="M60.6925618,215.979144 C66.9396003,212.378153 72.003407,203.621021 72.003407,196.419038 C72.003407,189.217055 66.9396003,186.298011 60.6925618,189.899002 C54.4455233,193.499994 49.3817167,202.257126 49.3817167,209.459109 C49.3817167,216.661091 54.4455233,219.580135 60.6925618,215.979144 Z" id="Stroke-1" stroke="#76E1F3" stroke-width="1.87945312"/>
              <g id="Group-5" transform="translate(53.251649, 194.152164)" stroke="#76E1F3" stroke-width="1.25296875">
                <path d="M14.5711665,3.42374301 C14.5711665,0.788682796 12.705859,-0.271909623 10.4042167,1.05431387 C9.28870866,1.69762402 8.27478635,3.47203957 7.52788939,4.7219545 C6.77905746,4.3346161 5.76610263,3.72801133 4.64962711,4.37132149 C2.34895226,5.69754498 0.48364481,8.9092661 0.48364481,11.5443263 C0.48364481,12.9623133 1.02446787,13.9243807 1.88359288,14.3030257 L7.53659674,16.8318335 L12.9486973,8.13555523 L13.5050001,7.22371622 C14.167726,5.99698364 14.5711665,4.64854373 14.5711665,3.42374301 Z" id="Stroke-1"/>
                <polyline id="Stroke-3" stroke-linecap="round" stroke-linejoin="round" points="1.22386614 13.5769353 5.31051483 11.2210292 6.17350977 8.59756011 7.57055539 12.4738419 9.17657737 5.736472 9.83059596 8.46522754 13.7788946 6.19045965"/>
              </g>
            </g>
          </g>
        </g>
        <path d="M237.948242,278.172846 C239.555999,278.49462 244.45287,276.275505 252.638853,271.515499 C260.824837,266.755494 268.275374,262.751973 274.990464,259.504937 L279.524845,248.901947 C279.696937,247.240763 279.824382,246.025536 279.90718,245.256265 C280.849719,236.499179 281.605172,231.273836 282.17354,229.580238 C282.941118,227.29304 282.639176,228.733114 283.993528,231.137392 C284.341675,231.75543 286.739439,230.324618 287.007653,231.39894 C288.319265,236.652565 290.373101,235.359711 293.65558,231.912973 C295.843899,229.615148 295.408497,227.169897 292.349373,224.577221 C297.50434,218.149509 300.75379,212.090562 302.097722,206.40038 C302.210721,205.921943 301.280291,200.36696 301.356182,199.828013 C302.634184,190.752181 298.859378,177.410431 296.786381,172.010688 C295.89172,169.680279 290.465626,166.157742 286.187033,162.244068 C284.786841,160.963298 286.742213,160.481635 285.081206,159.295825 C284.034983,158.548916 282.635738,157.284335 280.88347,155.502083 L282.419701,147.013423 C287.381757,145.693985 289.990974,142.852779 290.247351,138.489803 C290.631916,131.94534 294.424408,127.311107 286.246667,125.049856 C278.068926,122.788605 264.043631,123.049677 264.185057,131.283241 C264.326483,139.516805 264.365477,143.510312 265.81155,147.403155 C266.775599,149.998384 268.59658,150.986689 271.274492,150.368068 L270.080588,154.857276 C267.389585,154.668382 265.669265,154.380506 264.919629,153.99365 C261.109665,152.027483 256.931192,151.322384 256.320623,154.169741 C255.529853,157.857455 252.899463,160.833751 248.42945,163.098631 C241.988565,167.458222 234.937458,168.176832 227.276129,165.254461 C219.614799,162.332089 212.492982,156.207296 205.910677,146.880081 C197.279125,138.505266 193.507763,136.216393 194.596592,140.013462 C195.68542,143.81053 197.688196,147.262066 200.604918,150.368068 L205.910677,159.526598 C210.995982,166.735138 218.776801,172.215032 229.253135,175.96628 C244.967636,181.593152 249.397664,172.297552 255.248502,179.647375 C261.09934,186.997198 253.005683,212.346813 249.003754,223.16147 C246.335801,230.371241 244.178184,236.224364 242.530902,240.720838 L205.910677,269.909665 L226.784707,266.647224 C240.680476,255.931249 249.97886,248.343946 254.679857,243.885315 C259.380854,239.426684 263.665456,234.131292 267.533661,227.999139 C268.122617,233.872505 268.17204,238.554291 267.681931,242.044496 C266.946767,247.279804 265.665057,244.660206 264.185057,251.84549 C263.19839,256.63568 250.731607,264.068821 226.784707,274.144916 L237.948242,278.172846 Z" id="Path-6" fill-opacity="0.29" fill="url(#linearGradient-33)" style="mix-blend-mode:multiply" opacity="0.591796875" filter="url(#filter-34)"/>
        <g id="Advisor-guy" transform="translate(151.137987, 112.766172)">
          <path d="M80.0826,169.891393 C84.4755128,169.891393 85.6416023,169.996603 86.6713485,169.681029 C87.3774312,169.464644 87.3523099,168.542422 88.1968797,166.255983 C88.4167011,165.660877 88.7271937,165.141333 88.5772086,162.726213 C88.4272236,160.311093 87.6400806,162.167991 86.4518836,162.389124 C85.5643589,162.5543 84.9020845,162.739461 84.4802022,161.511622 C84.1237444,160.474193 82.0898924,158.989529 80.7972866,158.414251 C79.0228454,157.624531 78.9233064,159.069406 76.6989288,159.721624 C73.7058852,160.599224 68.2349643,160.090877 65.3845439,161.037983 C64.1166711,161.459258 63.0532926,162.800913 63.4947915,163.597427 C68.4666002,172.567127 71.8935344,169.891393 80.0826,169.891393 Z" id="Oval-40" stroke="#429CB5" stroke-width="1.32" fill="#FFFFFF" opacity="0.967131696" stroke-linecap="round" stroke-linejoin="round" transform="translate(76.004880, 164.224617) rotate(-24.000000) translate(-76.004880, -164.224617) "/>
          <path d="M80.248903,167.991391 C84.5071446,167.991391 85.6374859,168.093376 86.6356637,167.787476 C87.3201004,167.577724 87.2957493,166.683775 88.1144275,164.46743 C88.32751,163.890567 88.628484,163.386951 88.4830969,161.04587 C88.3377099,158.70479 87.574698,160.504761 86.4229268,160.719115 C85.5626105,160.879227 84.9206391,161.058712 84.5116902,159.868514 C84.1661602,158.862889 82.1946588,157.423739 80.9416798,156.866097 C79.2216367,156.100587 79.1251492,157.501168 76.9689632,158.133391 C72.7771771,159.362479 62.7795089,159.382463 64.169618,161.890376 C68.9890087,170.585096 72.3108852,167.991391 80.248903,167.991391 Z" id="Oval-40-Copy-2" stroke="#429CB5" stroke-width="1.32" fill="#A0E7FF" opacity="0.967131696" stroke-linecap="round" stroke-linejoin="round" transform="translate(76.279743, 162.498338) rotate(-24.000000) translate(-76.279743, -162.498338) "/>
          <path d="M63.2509556,160.049123 C67.5933667,160.049123 68.8372533,160.875101 69.8551614,160.563154 C70.5531268,160.349257 70.5282944,159.437638 71.3631549,157.177483 C71.5804492,156.589219 71.8873723,156.075648 71.7391115,153.688293 C71.5908507,151.300938 70.8127569,153.136488 69.6382195,153.355079 C68.760898,153.518356 68.1062372,153.701389 67.6892049,152.487665 C67.336845,151.462162 65.3263745,149.994566 64.0486287,149.425901 C62.2945869,148.64526 62.1961921,150.073525 59.9973864,150.718245 C56.6502855,151.699659 50.3275739,150.592099 48.1378316,151.871509 C47.5310151,152.226056 46.6374485,153.99455 46.9450461,154.549491 C51.8596981,163.416073 55.1560329,160.049123 63.2509556,160.049123 Z" id="Oval-40-Copy" stroke="#429CB5" stroke-width="1.32" fill="#FFFFFF" opacity="0.967131696" stroke-linecap="round" stroke-linejoin="round" transform="translate(59.330258, 154.937482) rotate(-24.000000) translate(-59.330258, -154.937482) "/>
          <path d="M63.1289615,158.208575 C67.3872031,158.208575 68.6069794,159.018543 69.6051572,158.712643 C70.2895939,158.502891 70.2652427,157.608942 71.083921,155.392596 C71.2970035,154.815734 71.5979775,154.312118 71.4525904,151.971037 C71.3072034,149.629957 70.5441914,151.429928 69.3924203,151.644282 C68.532104,151.804394 67.8901326,151.983879 67.4811837,150.793681 C67.1356537,149.788056 65.1641523,148.348906 63.9111732,147.791264 C62.1911302,147.025754 62.0946426,148.426335 59.9384567,149.058558 C55.7466705,150.287646 45.7490023,150.30763 47.1391115,152.815543 C51.9585021,161.510263 55.1909437,158.208575 63.1289615,158.208575 Z" id="Oval-40-Copy-3" stroke="#429CB5" stroke-width="1.32" fill="#A2E7FE" opacity="0.967131696" stroke-linecap="round" stroke-linejoin="round" transform="translate(59.249237, 153.196014) rotate(-24.000000) translate(-59.249237, -153.196014) "/>
          <g id="Combined-Shape" stroke-linecap="round" stroke-linejoin="round" transform="translate(71.738395, 116.869076) scale(-1, 1) translate(-71.738395, -116.869076) ">
            <use fill="#3ABBE7" fill-rule="evenodd" xlink:href="#path-35"/>
            <use fill="black" fill-opacity="1" filter="url(#filter-36)" xlink:href="#path-35"/>
            <use stroke="#429CB5" stroke-width="1.24325824" xlink:href="#path-35"/>
          </g>
          <g id="arm-copy-3" transform="translate(42.560781, 41.281440) scale(-1, 1) rotate(-28.000000) translate(-42.560781, -41.281440) translate(10.136723, 11.821063)">
            <g id="Group-69" transform="translate(32.399210, 29.489198) rotate(-15.000000) translate(-32.399210, -29.489198) translate(5.056534, 6.365946)">
              <g id="Group-24" transform="translate(46.522569, 34.795498) rotate(17.000000) translate(-46.522569, -34.795498) translate(40.182940, 27.877873)">
                <g id="Combined-Shape" stroke-linejoin="round">
                  <use fill="#FFFFFF" fill-rule="evenodd" xlink:href="#path-37"/>
                  <use fill="black" fill-opacity="1" filter="url(#filter-38)" xlink:href="#path-37"/>
                  <use stroke="#429CB5" stroke-width="1.002375" xlink:href="#path-37"/>
                </g>
                <path d="M3.24616588,0.594635741 C3.24616588,1.17348254 4.37609397,2.94413755 4.54334368,4.1013308 C4.77853139,5.72858402 4.30371759,7.27427372 5.54789771,7.45418397 C7.12397228,7.68208664 6.76840607,4.26621561 6.76840607,2.8733904 C6.76840607,2.27978215 7.40049905,1.18833586 7.05814517,0.690621536" id="Oval-3-Copy" stroke="#429CB5" stroke-width="1.12767188" fill="#FFFFFF" stroke-linejoin="round" transform="translate(5.202986, 4.029845) rotate(-153.000000) translate(-5.202986, -4.029845) "/>
                <path d="M8.39429458,4.40778334 C7.12265653,5.14800816 6.48683751,5.82009602 6.48683751,6.42404694 C6.48683751,7.02799786 6.82816204,7.30155295 7.51081111,7.2447122 L10.3017517,5.84599813" id="Path-88" stroke="#429CB5" stroke-width="1.12767188" stroke-linecap="round" fill-rule="nonzero" transform="translate(8.394295, 5.829915) rotate(5.000000) translate(-8.394295, -5.829915) "/>
                <path d="M10.3719077,6.23370723 C8.17316434,7.05206574 7.10024165,7.76222681 7.15313961,8.36419042 C7.20603757,8.96615403 7.76591393,9.22067252 8.8327687,9.12774588 L10.3697607,8.49601936" id="Path-88-Copy" stroke="#429CB5" stroke-width="1.12767188" stroke-linecap="round" fill-rule="nonzero" transform="translate(8.761592, 7.690047) rotate(5.000000) translate(-8.761592, -7.690047) "/>
                <path d="M10.2024246,8.7057021 C9.79206652,8.43893902 9.08507685,9.17839739 8.58107661,9.32980784 C7.74091903,9.58220581 7.18063571,9.82221411 7.18063571,10.1997099 C7.18063571,11.1056363 7.48397718,11.1683516 8.24107706,11.1993803 C8.74581031,11.2200662 9.44774422,10.9795093 10.3468788,10.4777096 C10.5589011,10.0923766 10.6700443,9.830643 10.6803084,9.6925088 C10.7233,9.11392924 10.4038589,8.83664926 10.2024246,8.7057021 Z" id="Path-88-Copy-2" stroke="#429CB5" stroke-width="1.12767188" stroke-linecap="round" fill-rule="nonzero" transform="translate(8.932438, 9.924403) rotate(5.000000) translate(-8.932438, -9.924403) "/>
              </g>
              <g id="Shape" stroke-linejoin="round" transform="translate(22.763123, 23.152996) rotate(-112.000000) translate(-22.763123, -23.152996) ">
                <use fill="#DCF7FF" fill-rule="evenodd" xlink:href="#path-39"/>
                <use fill="black" fill-opacity="1" filter="url(#filter-40)" xlink:href="#path-39"/>
                <use stroke="#429CB5" stroke-width="1.22634993" xlink:href="#path-39"/>
              </g>
              <g id="Path-149-Copy" stroke-linejoin="round" transform="translate(39.135909, 37.758472) rotate(-98.000000) translate(-39.135909, -37.758472) ">
                <use fill="#6FE0FF" fill-rule="evenodd" xlink:href="#path-41"/>
                <use fill="black" fill-opacity="1" filter="url(#filter-42)" xlink:href="#path-41"/>
                <use stroke="#429CB5" stroke-width="0.977315625" xlink:href="#path-41"/>
              </g>
            </g>
          </g>
          <g id="Group-13" transform="translate(55.266739, 34.250561)" stroke-linejoin="round">
            <g id="Group-61" transform="translate(17.372957, 29.023944) scale(-1, 1) rotate(1.000000) translate(-17.372957, -29.023944) translate(0.773775, 0.772942)" stroke-linecap="round">
              <g id="Combined-Shape">
                <use fill="#DCF7FF" fill-rule="evenodd" xlink:href="#path-43"/>
                <use fill="black" fill-opacity="1" filter="url(#filter-44)" xlink:href="#path-43"/>
                <use stroke="#429CB5" stroke-width="1.30434047" xlink:href="#path-43"/>
              </g>
            </g>
            <g id="arm" transform="translate(33.252231, 45.565818) scale(-1, 1) rotate(88.000000) translate(-33.252231, -45.565818) translate(-1.954522, 15.034614)">
              <g id="Shape" stroke-linecap="round" transform="translate(29.551718, 30.552180) scale(-1, 1) rotate(-55.000000) translate(-29.551718, -30.552180) ">
                <use fill="#FFFFFF" fill-rule="evenodd" xlink:href="#path-45"/>
                <use fill="black" fill-opacity="1" filter="url(#filter-46)" xlink:href="#path-45"/>
                <use stroke="#429CB5" stroke-width="1.24325824" xlink:href="#path-45"/>
              </g>
              <g id="Path-48" stroke-linecap="round" transform="translate(60.653950, 34.368525) scale(-1, 1) rotate(-59.000000) translate(-60.653950, -34.368525) ">
                <use fill="#FFFFFF" fill-rule="evenodd" xlink:href="#path-47"/>
                <use fill="black" fill-opacity="1" filter="url(#filter-48)" xlink:href="#path-47"/>
                <use stroke="#429CB5" stroke-width="1.002375" xlink:href="#path-47"/>
              </g>
              <g id="Shape" transform="translate(27.207140, 30.517046) scale(-1, 1) rotate(-39.000000) translate(-27.207140, -30.517046) ">
                <use fill-opacity="0.94" fill="#DCF7FF" fill-rule="evenodd" xlink:href="#path-49"/>
                <use fill="black" fill-opacity="1" filter="url(#filter-50)" xlink:href="#path-49"/>
                <use stroke="#429CB5" stroke-width="1.22634993" xlink:href="#path-49"/>
              </g>
            </g>
          </g>
          <g id="Path-143" stroke-linecap="round" stroke-linejoin="round">
            <use fill="#FFFFFF" fill-rule="evenodd" xlink:href="#path-51"/>
            <use fill="black" fill-opacity="1" filter="url(#filter-52)" xlink:href="#path-51"/>
            <use stroke="#429CB5" stroke-width="0.877078125" xlink:href="#path-51"/>
          </g>
          <g id="Path-151" stroke-linecap="round" stroke-linejoin="round">
            <use fill="#FFFFFF" fill-rule="evenodd" xlink:href="#path-53"/>
            <use fill="black" fill-opacity="1" filter="url(#filter-54)" xlink:href="#path-53"/>
            <use stroke="#429CB5" stroke-width="0.75178125" xlink:href="#path-53"/>
          </g>
          <g id="Group-5-Copy" transform="translate(68.469863, 22.696429) rotate(3.000000) translate(-68.469863, -22.696429) translate(51.483528, 6.007052)">
            <g id="Combined-Shape-Copy" stroke-linecap="round" stroke-linejoin="round" transform="translate(16.968450, 16.655050) rotate(-38.000000) translate(-16.968450, -16.655050) ">
              <use fill="#FFFFFF" fill-rule="evenodd" xlink:href="#path-55"/>
              <use fill="black" fill-opacity="1" filter="url(#filter-56)" xlink:href="#path-55"/>
              <use stroke="#429CB5" stroke-width="1.002375" xlink:href="#path-55"/>
            </g>
            <g id="Group-4" transform="translate(13.791701, 18.370471) rotate(-33.000000) translate(-13.791701, -18.370471) translate(7.694042, 14.452095)">
              <path d="M10.6928504,5.27046677 C10.4277248,4.67452931 10.4341028,4.53110363 10.1288679,4.23283523 C9.59798652,3.71407032 8.33329172,2.98061269 8.25679467,3.18034803 C8.18029762,3.38008337 9.39135208,4.17768872 9.54672862,4.32696537 C9.80061072,4.57088034 10.2429154,5.27280932 10.3718,5.69420525 C10.5006845,6.11560118 10.5669409,6.20663062 10.621907,6.95860585 C10.6741233,7.67296206 10.6158394,7.62169677 10.6741233,7.67296206 C10.8473758,7.82535112 11.0106235,7.03579724 10.8658714,6.07683553 C10.8155826,5.74367962 10.8677947,5.66369885 10.6928504,5.27046677 Z" id="Oval-2-Copy-7" stroke="#429CB5" stroke-width="0.5011875" fill="#429CB5" transform="translate(9.577052, 5.370801) rotate(332.000000) translate(-9.577052, -5.370801) "/>
              <g id="Oval-2-Copy-4" transform="translate(3.376234, 4.749179) scale(-1, 1) rotate(82.000000) translate(-3.376234, -4.749179) " fill="black" fill-opacity="1">
                <use filter="url(#filter-58)" xlink:href="#path-57"/>
              </g>
              <path d="M4.27488943,2.80583917 C4.50873634,2.48376801 4.39082766,2.04603263 4.32327264,1.76429582 C4.25571762,1.482559 3.50712697,0.561456358 3.11879176,0.31070156 C2.73045655,0.0599467622 2.47345551,-0.0181314392 2.3856421,0.0388727293 C2.35300752,0.0600575073 1.74968142,-0.00687782519 2.44826004,0.534140764 C2.54893496,0.612109089 2.62961213,0.562048272 2.86435683,0.775737635 C3.09910153,0.989426998 3.79825579,1.58455314 3.9267976,2.29264871 C4.05533941,3.00074429 3.39217327,2.97386781 3.40061827,3.03504322 C3.43236471,3.26501354 4.04104251,3.12791033 4.27488943,2.80583917 Z" id="Oval-2-Copy-8" stroke="#429CB5" stroke-width="0.5011875" fill="#429CB5" transform="translate(3.217630, 1.528518) scale(-1, 1) rotate(271.000000) translate(-3.217630, -1.528518) "/>
            </g>
          </g>
          <g id="Oval-43" stroke-linecap="round" stroke-linejoin="round" transform="translate(79.214625, 26.998091) rotate(181.000000) translate(-79.214625, -26.998091) ">
            <use fill="#FFFFFF" fill-rule="evenodd" xlink:href="#path-59"/>
            <use fill="black" fill-opacity="1" filter="url(#filter-60)" xlink:href="#path-59"/>
            <use stroke="#429CB5" stroke-width="0.877078125" xlink:href="#path-59"/>
          </g>
          <g id="Combined-Shape" stroke-linecap="round" stroke-linejoin="round">
            <use fill="#54BFDD" fill-rule="evenodd" xlink:href="#path-61"/>
            <use fill="black" fill-opacity="1" filter="url(#filter-62)" xlink:href="#path-61"/>
            <use stroke="#429CB5" stroke-width="1.002375" xlink:href="#path-61"/>
          </g>
          <g id="Path-148" stroke-linecap="round" stroke-linejoin="round">
            <use fill="#6FE0FF" fill-rule="evenodd" xlink:href="#path-63"/>
            <use fill="black" fill-opacity="1" filter="url(#filter-64)" xlink:href="#path-63"/>
            <use stroke="#429CB5" stroke-width="1.002375" xlink:href="#path-63"/>
          </g>
          <g id="Path-149" stroke-linejoin="round">
            <use fill="#6FE0FF" fill-rule="evenodd" xlink:href="#path-65"/>
            <use fill="black" fill-opacity="1" filter="url(#filter-66)" xlink:href="#path-65"/>
            <use stroke="#429CB5" stroke-width="0.977315625" xlink:href="#path-65"/>
          </g>
          <g id="Path-150" stroke-linecap="round" stroke-linejoin="round">
            <use fill="#FFFFFF" fill-rule="evenodd" xlink:href="#path-67"/>
            <use fill="black" fill-opacity="1" filter="url(#filter-68)" xlink:href="#path-67"/>
            <use stroke="#429CB5" stroke-width="0.75178125" xlink:href="#path-67"/>
          </g>
        </g>
      </g>
    </g>
  </g>
</svg>