<svg xmlns="http://www.w3.org/2000/svg" xmlns:xlink="http://www.w3.org/1999/xlink" width="400" height="350">
  <defs>
    <filter id="a" width="125.6%" height="143.5%" x="-12.8%" y="-21.7%" filterUnits="objectBoundingBox">
      <feGaussianBlur in="SourceGraphic" stdDeviation="10.696"/>
    </filter>
    <filter id="b" width="164%" height="208.6%" x="-32%" y="-54.3%" filterUnits="objectBoundingBox">
      <feGaussianBlur in="SourceGraphic" stdDeviation="26.716"/>
    </filter>
    <path id="c" d="M15.38 4.081L2.194 11.634c-1.821 1.043-1.821 2.734 0 3.777l13.186 7.554c1.82 1.043 4.771 1.043 6.593 0l13.185-7.554c1.821-1.043 1.821-2.734 0-3.777L21.973 4.081c-.91-.52-2.103-.782-3.297-.782-1.192 0-2.386.261-3.296.782z"/>
    <path id="d" d="M15.38 1.173L2.194 8.726c-1.821 1.043-1.821 2.734 0 3.777l13.186 7.553c1.82 1.043 4.771 1.043 6.593 0l13.185-7.553c1.821-1.043 1.821-2.734 0-3.777L21.973 1.173C21.063.652 19.87.39 18.676.39c-1.192 0-2.386.262-3.296.783z"/>
    <filter id="e" width="108.3%" height="114.4%" x="-4.1%" y="-7.2%" filterUnits="objectBoundingBox">
      <feOffset dy="-2" in="SourceAlpha" result="shadowOffsetInner1"/>
      <feComposite in="shadowOffsetInner1" in2="SourceAlpha" k2="-1" k3="1" operator="arithmetic" result="shadowInnerInner1"/>
      <feColorMatrix in="shadowInnerInner1" values="0 0 0 0 0.333333333 0 0 0 0 0.843137255 0 0 0 0 0.992156863 0 0 0 0.166298687 0"/>
    </filter>
    <path id="f" d="M5.253.039l-3.568.9a.203.203 0 0 0-.111.064l-1.55 2.03c-.034.046-.019.098.04.133a.333.333 0 0 0 .228.03l3.583-.765 5.781 3.313a.336.336 0 0 0 .302 0c.084-.048.084-.126.001-.173L4.18 2.257 5.538.192c.03-.046.01-.097-.052-.13A.315.315 0 0 0 5.34.027a.36.36 0 0 0-.087.01zM1.931 1.143L4.96.379 3.766 2.194l-3.15.673L1.93 1.143z"/>
    <path id="h" d="M5.314.158l-3.566.903a.201.201 0 0 0-.11.063L.085 3.154c-.035.044-.02.096.04.132a.332.332 0 0 0 .228.03l3.578-.768 2.877 1.65a.337.337 0 0 0 .302 0c.084-.049.084-.126.001-.173l-2.876-1.65L5.598.311c.03-.046.01-.098-.052-.131a.353.353 0 0 0-.232-.022zm-3.32 1.107L5.02.499 3.822 2.31l-3.145.675 1.318-1.721z"/>
    <path id="j" d="M5.288.132l-3.568.9a.2.2 0 0 0-.112.065l-1.55 2.03c-.033.046-.018.098.04.133a.332.332 0 0 0 .229.03l3.583-.766 2.898 1.663a.336.336 0 0 0 .302 0c.084-.048.085-.126.002-.173L4.214 2.351 5.572.286c.03-.046.01-.098-.052-.131a.35.35 0 0 0-.232-.023zM1.965 1.237l3.03-.765-1.194 1.816L.65 2.96l1.315-1.724z"/>
    <path id="l" d="M.112.064C.027.112.026.19.108.237l2.972 1.717a.337.337 0 0 0 .302 0v-.001c.084-.048.085-.125.003-.172L.414.064a.306.306 0 0 0-.15-.036.314.314 0 0 0-.152.036z"/>
    <path id="n" d="M.07.044C-.015.092-.016.169.067.217l2.985 1.709a.336.336 0 0 0 .301 0c.084-.049.085-.126.002-.174L.371.042a.307.307 0 0 0-.15-.035.311.311 0 0 0-.152.037z"/>
    <path id="p" d="M1.543.197L.136 2.335c-.041.063.014.134.124.157.08.017.169.004.226-.03a.141.141 0 0 0 .05-.043L1.942.281c.041-.064-.014-.134-.125-.157a.358.358 0 0 0-.073-.008c-.087 0-.169.03-.202.08z"/>
    <path id="r" d="M3.956.028L.31.838C.2.862.144.933.186.996c.041.063.164.094.274.07l3.647-.81a.264.264 0 0 0 .075-.028c.058-.034.08-.084.049-.13-.032-.049-.112-.079-.198-.079a.364.364 0 0 0-.077.009z"/>
    <path id="t" d="M.172.184C.088.232.087.309.17.357l2.92 1.672L1.73 4.094c-.042.063.014.133.124.156.08.017.168.005.226-.028a.143.143 0 0 0 .05-.044l1.406-2.139c.03-.045.011-.095-.048-.129L.473.183a.31.31 0 0 0-.15-.035.314.314 0 0 0-.151.036z"/>
    <path id="v" d="M.104.138C.02.186.02.264.103.31L3.19 2.059c.06.033.148.044.226.026l3.646-.81a.263.263 0 0 0 .075-.027c.058-.034.08-.084.05-.13-.042-.064-.165-.095-.275-.07l-3.518.78L.405.137A.306.306 0 0 0 .256.101a.31.31 0 0 0-.152.037z"/>
    <path id="x" d="M12.586 11.111a4.835 4.835 0 0 1 .116-1.56c1.097-4.509-.882-7.292-.79-8.632.14-2.059.674 10.32.674 8.805 0-6.036 3.769-2.69 3.777-.218 4.198-2.715 1.826-5.662 3.927-4.11.22.164.197 1.46.747 2.904.454 1.193.395 3.119.391 5.767-.002 1.628-.433 3.677-.75 4.97-.296 1.61-.76 3.601-1.414 6.058-.777 2.917-1.044 5.511.122 6.396 3.47 2.631 14.019 3.049 13.916 5.535-.076 1.863-2.309 5.433-3.982 5.53-2.06.119-17.546-2.572-17.624-8.249-.133-9.645-.705-7.596-.387-11.27a39.55 39.55 0 0 1 .185-1.72.602.602 0 0 1-.215.075c-.088 0-.226-.091-.403-.259-.702 1.897-8.642-4.037-8.687-10.412-.011-1.654.435-.265.578-1.099.126-.73.327-1.149.621-1.344-.182-.715-.166-1.206.124-1.359 1.485-.78 2.446 1.28 4.176 2.816 1.209.547 2.676 1.107 4.447 1.451a6.86 6.86 0 0 0 .45-.075z"/>
    <filter id="y" width="115.2%" height="111.3%" x="-7.6%" y="-5.6%" filterUnits="objectBoundingBox">
      <feOffset dx="4" dy="-3" in="SourceAlpha" result="shadowOffsetInner1"/>
      <feComposite in="shadowOffsetInner1" in2="SourceAlpha" k2="-1" k3="1" operator="arithmetic" result="shadowInnerInner1"/>
      <feColorMatrix in="shadowInnerInner1" values="0 0 0 0 0.671480429 0 0 0 0 0.926250709 0 0 0 0 1 0 0 0 1 0"/>
    </filter>
    <path id="z" d="M10.307 29.248c.336-2.04 2.597-5.453 4.106-7.431 1.361-1.784 1.498-1.585 2.847-3.846 2.844-4.77.128-8.426-1.654-8.708C13.824 8.98 8.02 8.645 4.24 12.1c-.904.826-.246.84-.948 5.53-.595 3.976-4.154 9.424-2.01 14.882 2.539 6.464 16.607 15.38 16.67 14.057.063-1.324.141-2.885 2.25-4.948 2.11-2.062-5.084-4.745-7.006-7.355-2.479-3.368-3.257-2.776-2.888-5.018z"/>
    <filter id="A" width="113.7%" height="107.3%" x="-6.8%" y="-3.6%" filterUnits="objectBoundingBox">
      <feOffset dx="2" in="SourceAlpha" result="shadowOffsetInner1"/>
      <feComposite in="shadowOffsetInner1" in2="SourceAlpha" k2="-1" k3="1" operator="arithmetic" result="shadowInnerInner1"/>
      <feColorMatrix in="shadowInnerInner1" values="0 0 0 0 0.524206913 0 0 0 0 0.793295055 0 0 0 0 1 0 0 0 0.661911232 0"/>
    </filter>
    <path id="B" d="M18.206 6.1c.527.806.319 2.125.33 4.7.011 2.576-3.565 2.443-5.35 2.2-1.786-.242-6.319 1.046-8.278.792-1.414-.183-2.636-.294-2.547-1.455.089-1.16-.302-2.491 1.565-3.44 2.63-1.335 4.096-1.412 7.455-4.328 1.13-.196 2.481-.205 4.053-.026 2.36.269 2.245.75 2.772 1.556z"/>
    <filter id="C" width="135.1%" height="160.5%" x="-17.6%" y="-30.3%" filterUnits="objectBoundingBox">
      <feOffset dx="-3" dy="-5" in="SourceAlpha" result="shadowOffsetInner1"/>
      <feComposite in="shadowOffsetInner1" in2="SourceAlpha" k2="-1" k3="1" operator="arithmetic" result="shadowInnerInner1"/>
      <feColorMatrix in="shadowInnerInner1" values="0 0 0 0 0.839215686 0 0 0 0 0.952941176 0 0 0 0 0.988235294 0 0 0 1 0"/>
    </filter>
    <path id="D" d="M14.724 10.57c-.228-.585-2.925-3-4.635-4.628-3.08-2.93-4.422-4.23-5.232-4.23-1.89 0-2.22.19-3.186 1.612-.029.043-.332.837-.255 1.043.229.614.344.934 1.018 1.561.847.788 2.882 1.7 4 2.541 1.421 1.07 3.054 3.481 5.624 4.599.627.273 1.27.853 2.398-.1.992-.84.496-1.81.268-2.397z"/>
    <path id="E" d="M18.206 6.1c.527.806.319 2.125.33 4.7.011 2.576-3.565 2.443-5.35 2.2-1.786-.242-6.319 1.046-8.278.792-1.414-.183-2.636-.294-2.547-1.455.089-1.16-.302-2.491 1.565-3.44 2.63-1.335 4.096-1.412 7.455-4.328 1.13-.196 2.481-.205 4.053-.026 2.36.269 2.245.75 2.772 1.556z"/>
    <filter id="F" width="135.1%" height="160.5%" x="-17.6%" y="-30.3%" filterUnits="objectBoundingBox">
      <feOffset dx="-3" dy="-5" in="SourceAlpha" result="shadowOffsetInner1"/>
      <feComposite in="shadowOffsetInner1" in2="SourceAlpha" k2="-1" k3="1" operator="arithmetic" result="shadowInnerInner1"/>
      <feColorMatrix in="shadowInnerInner1" values="0 0 0 0 0.839215686 0 0 0 0 0.952941176 0 0 0 0 0.988235294 0 0 0 1 0"/>
    </filter>
    <path id="G" d="M14.724 10.57c-.228-.585-2.925-3-4.635-4.628-3.08-2.93-4.422-4.23-5.232-4.23-1.89 0-2.22.19-3.186 1.612-.029.043-.332.837-.255 1.043.229.614.344.934 1.018 1.561.847.788 2.882 1.7 4 2.541 1.421 1.07 3.054 3.481 5.624 4.599.627.273 1.27.853 2.398-.1.992-.84.496-1.81.268-2.397z"/>
    <path id="H" d="M29.703 22.976c.108 1.94.313 3.466.615 4.581.32 1.183-1.67-.954-.263-.832 2.042.177 7.57-.626 8.323-2.05.522-.986-2.366-2.14-2.713-2.97-.643-1.54.268-4.351-.512-2.856-.779 1.492-.786-1.618-2.705-.531-.42.238-6.163-1.784-4.356 1.038 1.205 1.88 1.742 3.088 1.61 3.62z"/>
    <filter id="I" width="134.9%" height="137%" x="-17.4%" y="-18.5%" filterUnits="objectBoundingBox">
      <feOffset dx="3" dy="-2" in="SourceAlpha" result="shadowOffsetInner1"/>
      <feComposite in="shadowOffsetInner1" in2="SourceAlpha" k2="-1" k3="1" operator="arithmetic" result="shadowInnerInner1"/>
      <feColorMatrix in="shadowInnerInner1" values="0 0 0 0 0.817519394 0 0 0 0 0.920155247 0 0 0 0 0.950946003 0 0 0 1 0"/>
    </filter>
    <path id="J" d="M37.342 8.595c2.35 1.354.37-.11.934 1.6.076.23.527.258.698.629 1.036 2.239.613 8.88-.226 14.037-.332 2.041 3.64 8.701 2.567 9.228-2.463 1.21-3.627 5.205-9.23 7.557-7.625 3.203-10.002-.277-10.88-1.93-.387-.73-.2-14.032-.306-16.068-.26-4.965-.802-13.856.83-16.31 2.908-4.372 8.03-.451 9.075-.584 1.043-.132 5.42 1.197 6.538 1.84z"/>
    <filter id="K" width="117.8%" height="109.9%" x="-8.9%" y="-4.9%" filterUnits="objectBoundingBox">
      <feOffset dx="3" dy="2" in="SourceAlpha" result="shadowOffsetInner1"/>
      <feComposite in="shadowOffsetInner1" in2="SourceAlpha" k2="-1" k3="1" operator="arithmetic" result="shadowInnerInner1"/>
      <feColorMatrix in="shadowInnerInner1" values="0 0 0 0 0.921568627 0 0 0 0 0.968627451 0 0 0 0 0.984313725 0 0 0 0.59057971 0"/>
    </filter>
    <path id="L" d="M11.803 12.386c-1.236 1.173-2.362 4.452-1.218 4.622 1.635.243 6.984-.107 8.227-.002 3.12.264 2.976 1.415 3.479 1.063.979-.688 5.821-2.107 4.566 1.833-.532 1.668 1.388 3.831-5.602 3.269-2.258-.182-2.883.553-4.083.493-2.518-.126-4.547-1.064-8.266-2.438C6.85 19.734 3.92 20.4 4.568 16.1c.379-2.512 2.05-3.673 4.062-5.24 1.006-.785 1.684-1.377 2.225-1.782.544-.407 1.45-2.542 2.13-2.827.587-.246 2.238-.103 2.747.238.483.323.08.75.371.881 1.063.478.701-1.54 1.354-1.486 1.355.11 1.335 1.658-.354 3.496-.39.426-1.31 1.591-2.273 1.964-1.205.466-2.15.21-3.027 1.042z"/>
    <filter id="M" width="116.5%" height="121%" x="-8.3%" y="-10.5%" filterUnits="objectBoundingBox">
      <feOffset dx="-3" dy="-2" in="SourceAlpha" result="shadowOffsetInner1"/>
      <feComposite in="shadowOffsetInner1" in2="SourceAlpha" k2="-1" k3="1" operator="arithmetic" result="shadowInnerInner1"/>
      <feColorMatrix in="shadowInnerInner1" values="0 0 0 0 0.921568627 0 0 0 0 0.968627451 0 0 0 0 0.984313725 0 0 0 0.661911232 0"/>
    </filter>
    <path id="N" d="M2.79 9.381c4.775-.382-.422.13 2.554-.176s7.737-.192 8.5 3.413c.764 3.606-.703 5.364-7.68 4.824C-.813 16.9.408 9.572 2.789 9.38z"/>
    <filter id="O" width="128.4%" height="144.2%" x="-14.2%" y="-22.1%" filterUnits="objectBoundingBox">
      <feOffset dx="-2" dy="3" in="SourceAlpha" result="shadowOffsetInner1"/>
      <feComposite in="shadowOffsetInner1" in2="SourceAlpha" k2="-1" k3="1" operator="arithmetic" result="shadowInnerInner1"/>
      <feColorMatrix in="shadowInnerInner1" values="0 0 0 0 0.68627451 0 0 0 0 0.850980392 0 0 0 0 0.91372549 0 0 0 0.719231205 0"/>
    </filter>
    <path id="P" d="M12.61 16.727c1.596-.498 4.1-.564 5.2-4.072.941-2.996-.458-5.994-2.626-7.713-1.306-1.035-3.78-1.507-6.067-.56-1.692.699-3.49 1.93-3.49 3.095 0 1.164-2.03 1.112-2.847 2.912-.475 1.045-.21 2.687.414 3.87.451.855 1.114 1.334 1.702 1.826"/>
    <filter id="Q" width="123.9%" height="129%" x="-12%" y="-14.5%" filterUnits="objectBoundingBox">
      <feOffset dx="2" dy="3" in="SourceAlpha" result="shadowOffsetInner1"/>
      <feComposite in="shadowOffsetInner1" in2="SourceAlpha" k2="-1" k3="1" operator="arithmetic" result="shadowInnerInner1"/>
      <feColorMatrix in="shadowInnerInner1" values="0 0 0 0 0.921568627 0 0 0 0 0.968627451 0 0 0 0 0.984313725 0 0 0 0.661911232 0"/>
    </filter>
    <path id="R" d="M13.185 12.864c-1.779-.449-1.196 1.302-2.633 1.964-1.436.662.02-2.874-1.646-3.564s-3.133.092-4.074-.06c-2.834-.462-1.806-1.128-1.132-2.057.674-.93-1.312-1.154-.68-2.713.576-1.424 2.338-1.926 3.011-3.009.963-1.549 2.675-.17 3.942-1.849 1.266-1.68 3.61-.341 5.186-.184 4.301.431 3.31 4.36 3.534 4.607 1.68 1.859 1.806 1.78 2.347 3.601.227.762-.437 4.006-1.522 5.298-2.095 2.493-.657 3.198-1.994 3.581-1.885.54-1.717 1.19-2.535.26-.666-.756-.068-5.438-1.804-5.875z"/>
    <filter id="S" width="115%" height="114.8%" x="-7.5%" y="-7.4%" filterUnits="objectBoundingBox">
      <feOffset dx="2" dy="-2" in="SourceAlpha" result="shadowOffsetInner1"/>
      <feComposite in="shadowOffsetInner1" in2="SourceAlpha" k2="-1" k3="1" operator="arithmetic" result="shadowInnerInner1"/>
      <feColorMatrix in="shadowInnerInner1" values="0 0 0 0 0.921568627 0 0 0 0 0.968627451 0 0 0 0 0.984313725 0 0 0 0.661911232 0"/>
    </filter>
    <path id="T" d="M100.936.495L.545 58.455c-.688.398-.602 1.092.193 1.55l68.173 39.36c.794.459 1.996.509 2.684.112l100.39-57.961c.689-.397.603-1.091-.192-1.55L103.62.606c-.435-.25-.99-.379-1.518-.379-.437 0-.854.088-1.166.268"/>
    <path id="V" d="M100.936.495L.545 58.455c-.688.398-.602 1.092.193 1.55l68.173 39.36c.794.459 1.996.509 2.684.112l100.39-57.961c.689-.397.603-1.091-.192-1.55L103.62.606c-.435-.25-.99-.379-1.518-.379-.437 0-.854.088-1.166.268z"/>
    <path id="X" d="M13.398.17C9.859.17 6.48.886 3.957 2.343c-5.573 3.217-4.873 8.836 1.56 12.551 6.435 3.715 16.167 4.119 21.74.901 5.571-3.217 4.872-8.836-1.562-12.55C22.176 1.212 17.671.17 13.4.17h-.001zM7.012 14.03C1.532 10.866.936 6.08 5.682 3.34 10.43.599 18.72.942 24.201 4.107c5.48 3.164 6.076 7.95 1.33 10.691-2.151 1.241-5.029 1.85-8.043 1.85-3.64 0-7.478-.887-10.476-2.618z"/>
    <path id="Z" d="M24.2 1.154c5.482 3.165 6.077 7.951 1.33 10.692-4.746 2.74-13.037 2.396-18.518-.768C2.272 8.34 1.186 4.39 4.05 1.6L2.288.584C-1.38 3.869-.18 8.652 5.518 11.94c6.434 3.714 16.166 4.118 21.738.901 5.572-3.217 4.873-8.836-1.56-12.55l-1.495.862z"/>
    <path id="ab" d="M2.669 1.715C-.977 3.82-.52 7.497 3.691 9.927c4.21 2.43 10.578 2.695 14.224.59 3.646-2.105 3.188-5.782-1.022-8.212C14.59.975 11.643.294 8.847.294 6.532.294 4.32.76 2.669 1.715zm2 7.648C1.082 7.293.693 4.16 3.799 2.367c3.105-1.793 8.53-1.568 12.116.502 3.587 2.07 3.976 5.203.87 6.996-1.407.812-3.29 1.21-5.262 1.21-2.382 0-4.893-.58-6.854-1.712z"/>
    <path id="ad" d="M15.85.765c3.617 2.088 4.032 5.234.926 7.028C13.67 9.586 8.22 9.346 4.603 7.258 1.474 5.452.742 2.854 2.609 1.025L1.447.354C-.947 2.507-.135 5.652 3.625 7.823c4.246 2.451 10.644 2.732 14.29.627C21.56 6.345 21.074 2.652 16.828.2l-.978.565z"/>
    <path id="af" d="M.678.598c-.825.477-.722 1.31.231 1.86.954.55 2.395.61 3.22.133.826-.476.723-1.309-.23-1.86-.522-.3-1.19-.454-1.823-.454-.524 0-1.024.105-1.398.321z"/>
    <path id="ah" d="M.586.484c-.826.477-.722 1.31.231 1.86s2.395.61 3.22.133c.826-.476.723-1.309-.23-1.86-.522-.3-1.19-.454-1.822-.454C1.46.163.96.269.585.484z"/>
    <path id="aj" d="M.789.37c-.826.477-.722 1.31.231 1.86s2.395.61 3.22.133c.826-.476.723-1.309-.23-1.86C3.487.204 2.82.05 2.187.05c-.525 0-1.025.105-1.4.322z"/>
    <path id="al" d="M1.643 1.17c-2.339 1.35-2.045 3.709.655 5.268 2.701 1.56 6.786 1.729 9.125.378 2.339-1.35 2.045-3.709-.655-5.268C9.29.695 7.399.258 5.606.258c-1.486 0-2.903.3-3.963.912z"/>
    <path id="an" d="M1.588.98c-2.34 1.35-2.046 3.71.655 5.268 2.7 1.56 6.786 1.729 9.125.378 2.339-1.35 2.046-3.709-.655-5.268C9.236.505 7.344.068 5.55.068c-1.485 0-2.904.3-3.963.912z"/>
    <path id="ap" d="M1.828 1.085c-2.339 1.35-2.046 3.71.655 5.268 2.7 1.56 6.786 1.729 9.125.379 2.339-1.35 2.045-3.71-.655-5.268C9.476.61 7.584.174 5.791.174c-1.486 0-2.904.3-3.963.911z"/>
    <path id="ar" d="M.293.354c-.358.207-.313.567.1.806.413.238 1.038.264 1.395.058.358-.207.313-.568-.1-.806a1.621 1.621 0 0 0-.79-.197C.672.215.456.26.294.354z"/>
    <path id="at" d="M.332.31c-.358.206-.313.567.1.806.413.238 1.038.264 1.395.057.358-.206.313-.567-.1-.805A1.621 1.621 0 0 0 .937.17C.71.17.494.216.332.31z"/>
    <path id="av" d="M.37.265c-.357.207-.312.568.1.806.414.239 1.039.265 1.397.058.357-.206.312-.567-.1-.806a1.623 1.623 0 0 0-.79-.197C.75.126.532.172.37.266z"/>
    <path id="ax" d="M17.621 5.13c.517.781.313 2.061.324 4.559.01 2.497-3.497 2.368-5.249 2.133-1.751-.235-6.199 1.014-8.121.768-1.387-.178-2.586-.286-2.499-1.411.088-1.126-.296-2.416 1.536-3.336 2.58-1.295 4.018-1.37 7.314-4.198 1.108-.19 2.433-.198 3.976-.025 2.314.26 2.202.728 2.719 1.51z"/>
    <filter id="ay" width="135.8%" height="162.4%" x="-17.9%" y="-31.2%" filterUnits="objectBoundingBox">
      <feOffset dx="-3" dy="-5" in="SourceAlpha" result="shadowOffsetInner1"/>
      <feComposite in="shadowOffsetInner1" in2="SourceAlpha" k2="-1" k3="1" operator="arithmetic" result="shadowInnerInner1"/>
      <feColorMatrix in="shadowInnerInner1" values="0 0 0 0 0.839215686 0 0 0 0 0.952941176 0 0 0 0 0.988235294 0 0 0 1 0"/>
    </filter>
    <path id="az" d="M14.445 10.251c-.224-.568-2.87-2.91-4.547-4.489C6.875 2.92 5.56 1.661 4.765 1.661c-1.855 0-2.177.184-3.125 1.563-.03.041-.326.811-.251 1.01.225.596.338.907 1 1.515.83.764 2.826 1.65 3.922 2.464 1.395 1.037 2.997 3.376 5.518 4.46.616.265 1.247.827 2.353-.097.973-.814.487-1.756.263-2.325z"/>
    <path id="aA" d="M48.068 41.543c-.248-.223-3.836-2.84-3.622-3.639.394-1.471 1.281-1.124 2.958-1.089.939.02 3.383.359 5.794 1.796 1.371.817 2.244 4.17 3.127 5.349.308.41 2.376 5.54 3.024 5.99.75.522-.364-2.04 1.444-.646 1.33 1.026 2.295 1.867 2.944 2.627 1.659 1.941-.098.869 1.297.564 2.204-.48-1.676 1.799-2.063 2.453-.062.102-.88.148-1.057.149-.89.004-1.957-.439-3.538-1.702-1.12-.895-4.867-8.001-5.144-8.31-1.078-1.203-3.69-2.22-5.164-3.542z"/>
    <filter id="aB" width="112.7%" height="114.7%" x="-6.3%" y="-7.3%" filterUnits="objectBoundingBox">
      <feOffset dx="2" dy="2" in="SourceAlpha" result="shadowOffsetInner1"/>
      <feComposite in="shadowOffsetInner1" in2="SourceAlpha" k2="-1" k3="1" operator="arithmetic" result="shadowInnerInner1"/>
      <feColorMatrix in="shadowInnerInner1" values="0 0 0 0 0.77829072 0 0 0 0 0.947489907 0 0 0 0 1 0 0 0 1 0"/>
    </filter>
    <path id="aC" d="M48.196 36.006c6.623-1.302-1.192-2.643-1.192-5.783 0-3.14 1.24-4.614-4.188-5.39-.406-.057 1.183-.01.87-.009-3.863.002-1.058 4.168-3.351 5.709-4.447 2.987-5.033 8.009 7.86 5.473z"/>
    <filter id="aD" width="120.1%" height="122.7%" x="-10.1%" y="-11.3%" filterUnits="objectBoundingBox">
      <feOffset dx="2" dy="2" in="SourceAlpha" result="shadowOffsetInner1"/>
      <feComposite in="shadowOffsetInner1" in2="SourceAlpha" k2="-1" k3="1" operator="arithmetic" result="shadowInnerInner1"/>
      <feColorMatrix in="shadowInnerInner1" values="0 0 0 0 0.839215686 0 0 0 0 0.952941176 0 0 0 0 0.988235294 0 0 0 1 0"/>
    </filter>
    <path id="aE" d="M5.909 9.435c.296.067 1.55 1.701 2.793 1.423 1.445-.323 1.444.25 1.455 0 .093-2.13.656-2.774-3.1-3.679-2.461-.593-1.403-1.314-1.327-.676.023.192-.943-.56-1.482-1.954-.4-1.032-.347-2.927-.623-2.382-.702 1.383-1.181 1.714-.678 3.865.504 2.15 2.395 3.275 2.962 3.403z"/>
    <filter id="aF" width="149.3%" height="141.8%" x="-24.6%" y="-20.9%" filterUnits="objectBoundingBox">
      <feOffset dx="-3" dy="-2" in="SourceAlpha" result="shadowOffsetInner1"/>
      <feComposite in="shadowOffsetInner1" in2="SourceAlpha" k2="-1" k3="1" operator="arithmetic" result="shadowInnerInner1"/>
      <feColorMatrix in="shadowInnerInner1" values="0 0 0 0 0.68627451 0 0 0 0 0.850980392 0 0 0 0 0.91372549 0 0 0 0.53736413 0"/>
    </filter>
    <path id="aG" d="M15.234 3.486c-.476-1.258.337 3.15.794 4.388.458 1.239-1.824 1.754-3.327 1.548-1.503-.206-6.915.69-8.56.442-1.681-.252-1.7-.474-1.625-1.462.075-.987.604-1.53 2.299-2.227 2.424-.997 5.665-.814 6.908-3.084l3.511.395z"/>
    <filter id="aH" width="119.8%" height="139.6%" x="-9.9%" y="-19.8%" filterUnits="objectBoundingBox">
      <feOffset dx="-2" dy="-2" in="SourceAlpha" result="shadowOffsetInner1"/>
      <feComposite in="shadowOffsetInner1" in2="SourceAlpha" k2="-1" k3="1" operator="arithmetic" result="shadowInnerInner1"/>
      <feColorMatrix in="shadowInnerInner1" values="0 0 0 0 0.68627451 0 0 0 0 0.854901961 0 0 0 0 0.91372549 0 0 0 1 0"/>
    </filter>
    <path id="aI" d="M63.836 54.874c-5.053-4.894-4.823.447-9.495 2.451-2.787 1.196-2.943 6.516-2.334 7.017 1.214.997 2.2 2.703 2.04 3.842-.053.385-1.427-.201-3.181-.45-5.626-.794-9.074-5.309-11.829-5.698-2.375-.335-4.914 4.856-3.01 5.077 3.55.413 15.278 12.744 25.611 10.985 6.508-1.107 5.713-7.827 4.55-13.036-.683-3.062-.285-5.38-1.843-6.323-.983-1.139.055-3.32-.509-3.865z"/>
    <filter id="aJ" width="108.5%" height="110.6%" x="-4.3%" y="-5.3%" filterUnits="objectBoundingBox">
      <feOffset dx="-2" dy="-2" in="SourceAlpha" result="shadowOffsetInner1"/>
      <feComposite in="shadowOffsetInner1" in2="SourceAlpha" k2="-1" k3="1" operator="arithmetic" result="shadowInnerInner1"/>
      <feColorMatrix in="shadowInnerInner1" values="0 0 0 0 0.47040562 0 0 0 0 0.718865714 0 0 0 0 0.80553784 0 0 0 1 0"/>
    </filter>
    <path id="aK" d="M33.447 40.573c-.244 1.906.46 3.592 2.11 5.058.257.853.257 1.953 0 3.298-.385 2.019-3.649 3.19-2.11 4.773 1.539 1.583 19.452 8.023 19.452 6.304 0-1.01-.411-3.975-1.529-8.737-.52-2.219-.148-3.4 0-4.376.131-.863 2.141-2.448 3.259-3.617 1.946-2.035 2.6-4.946 1.3-7.593-1.273-2.59-3.77-4.409-4.87-4.25-2.071.3-6.573 5.288-8.83 4.25-2.07-.953-.477-4.25-1.276-3.494-1.619 1.531-7.245 6.341-7.506 8.384z"/>
    <filter id="aL" width="115.7%" height="112.8%" x="-7.8%" y="-6.4%" filterUnits="objectBoundingBox">
      <feOffset dx="-2" dy="3" in="SourceAlpha" result="shadowOffsetInner1"/>
      <feComposite in="shadowOffsetInner1" in2="SourceAlpha" k2="-1" k3="1" operator="arithmetic" result="shadowInnerInner1"/>
      <feColorMatrix in="shadowInnerInner1" values="0 0 0 0 0.68627451 0 0 0 0 0.850980392 0 0 0 0 0.91372549 0 0 0 0.339362545 0"/>
    </filter>
    <path id="aM" d="M13.726 27.878c-2.445-7.11-3.924-9.764-4.396-10.5-.515-.802-1.974-2.761-1.716-3.724.215-.802.807-.644 1.113-.985.127-.141-.484-.954.425-1.585.909-.63.83.492 1.518-.564 1.197-1.836 2.127-1.836 3.01-2.022.223-.047-.66 2.541-.046 3.18.627.652 1.792.028 2.137 1.449.32 1.317-.92 1.375-.966 2.453-.025.579-.587 1.76-.53 1.978.871 3.377 1.289 3.252 5.24 10.122.988 1.574.33 2.892 1.186 3.113 1.78.458 9.568 3.728 10.422 3.957 2.533.679 5.879.598 3.718 6.732-.225 1.478-10.986-2.1-14.806-5.063-4.047-3.14-5.685-6.727-6.31-8.541z"/>
    <filter id="aN" width="109.9%" height="108.3%" x="-4.9%" y="-4.1%" filterUnits="objectBoundingBox">
      <feOffset dx="2" dy="1" in="SourceAlpha" result="shadowOffsetInner1"/>
      <feComposite in="shadowOffsetInner1" in2="SourceAlpha" k2="-1" k3="1" operator="arithmetic" result="shadowInnerInner1"/>
      <feColorMatrix in="shadowInnerInner1" values="0 0 0 0 0.839215686 0 0 0 0 0.952941176 0 0 0 0 0.988235294 0 0 0 1 0"/>
    </filter>
    <path id="aO" d="M13.192 17.125c1.673-.526 4.297-.596 5.451-4.3.986-3.162-.48-6.326-2.753-8.14-1.369-1.092-3.961-1.591-6.36-.592-1.773.739-3.657 2.038-3.657 3.267s-2.128 1.174-2.985 3.074c-.498 1.103-.22 2.836.434 4.085.473.903 1.167 1.408 1.784 1.928 1.375 1.159 6.14 1.29 8.086.678z"/>
    <filter id="aP" width="116.5%" height="119.4%" x="-8.3%" y="-9.7%" filterUnits="objectBoundingBox">
      <feOffset dy="2" in="SourceAlpha" result="shadowOffsetInner1"/>
      <feComposite in="shadowOffsetInner1" in2="SourceAlpha" k2="-1" k3="1" operator="arithmetic" result="shadowInnerInner1"/>
      <feColorMatrix in="shadowInnerInner1" values="0 0 0 0 0.839215686 0 0 0 0 0.952941176 0 0 0 0 0.988235294 0 0 0 1 0"/>
    </filter>
    <path id="aQ" d="M7.657 3.573c-.061-.494-.405-.723-.61-.924-.358-.35-1.13-.714-1.182-.58-.052.135.775.716.88.816.17.165.395.439.482.723.087.284.05.647-.122.958-.2.365-.497.616-.461.665.226.311 1.13-.706 1.013-1.658z"/>
    <filter id="aR" width="221.9%" height="167.7%" x="-60.9%" y="-33.9%" filterUnits="objectBoundingBox">
      <feOffset dx="2" dy="-2" in="SourceAlpha" result="shadowOffsetInner1"/>
      <feComposite in="shadowOffsetInner1" in2="SourceAlpha" k2="-1" k3="1" operator="arithmetic" result="shadowInnerInner1"/>
      <feColorMatrix in="shadowInnerInner1" values="0 0 0 0 0.258823529 0 0 0 0 0.611764706 0 0 0 0 0.709803922 0 0 0 1 0"/>
    </filter>
    <path id="aS" d="M3.283 1.57c.158-.218.078-.513.033-.703C3.27.677 3.099.459 2.838.29 2.576.121 2.174.14 2.107.143c-.67.035-.2.025.27.39.068.052-.057-.05.128-.007.198.046.457.22.544.697.086.477-.36.46-.355.5.022.156.432.063.589-.154z"/>
    <filter id="aT" width="237.2%" height="232.5%" x="-68.6%" y="-66.3%" filterUnits="objectBoundingBox">
      <feOffset dy="-2" in="SourceAlpha" result="shadowOffsetInner1"/>
      <feComposite in="shadowOffsetInner1" in2="SourceAlpha" k2="-1" k3="1" operator="arithmetic" result="shadowInnerInner1"/>
      <feColorMatrix in="shadowInnerInner1" values="0 0 0 0 0.258823529 0 0 0 0 0.611764706 0 0 0 0 0.709803922 0 0 0 1 0"/>
    </filter>
    <path id="aU" d="M2.138 3.3c.088-.106.746-.878 1.197-.745.563.164.93 1.212.93.663 0-.989-.446-1.515-.936-1.515a.78.78 0 0 0-.533.21c-.098.083-.21.132-.315.355-.125.266-.416.642-.737.955-.248.241-.424.41-.626.388-.33-.037-.64-.402-.795-.432-.142-.028-.18.535.582.748.574.16.98-.324 1.233-.628z"/>
    <filter id="aV" width="129.8%" height="153.2%" x="-14.9%" y="-26.6%" filterUnits="objectBoundingBox">
      <feOffset dx="-1" dy="1" in="SourceAlpha" result="shadowOffsetInner1"/>
      <feComposite in="shadowOffsetInner1" in2="SourceAlpha" k2="-1" k3="1" operator="arithmetic" result="shadowInnerInner1"/>
      <feColorMatrix in="shadowInnerInner1" values="0 0 0 0 0.258823529 0 0 0 0 0.611764706 0 0 0 0 0.709803922 0 0 0 1 0"/>
    </filter>
    <path id="aW" d="M35.025 20.12c-.41.345-.916.544-1.46.535-1.341-.024-2.407-1.312-2.38-2.877.028-1.566 1.138-2.816 2.48-2.793.75.014 1.413.422 1.848 1.052.24-.58.485-1.201.639-1.95.517-2.516 3.967-4.532 7.284-4.532 3.317 0 7.013 3.047 7.651 4.532.427.993 1.899 1.899 2.104 3.053.102.57-.953.722-2.104 1.229-.693.305-2.804-.22-3.162-1.23-.491-1.383-3.483-.684-5.02.723-1.629 1.492-.997 0-1.9 3.34-.091.34.45 1.105.341 1.523-.271 1.05-2.06-2.237-2.691-.962-.42.85.593 1.914 1.464 3.169.318.458.728 1.088 1.227 1.889-2.078-1.653-3.469-2.878-4.173-3.673-.754-.85-1.657-1.666-1.969-2.493a7.398 7.398 0 0 1-.179-.535z"/>
    <filter id="aX" width="111.7%" height="115%" x="-5.9%" y="-7.5%" filterUnits="objectBoundingBox">
      <feOffset dx="2" dy="1" in="SourceAlpha" result="shadowOffsetInner1"/>
      <feComposite in="shadowOffsetInner1" in2="SourceAlpha" k2="-1" k3="1" operator="arithmetic" result="shadowInnerInner1"/>
      <feColorMatrix in="shadowInnerInner1" values="0 0 0 0 0.860479798 0 0 0 0 0.965119949 0 0 0 0 1 0 0 0 0.209805254 0"/>
    </filter>
    <path id="aY" d="M18.16 6.1c.534.806.323 2.125.334 4.7.011 2.576-3.609 2.443-5.417 2.2-1.807-.242-6.397 1.046-8.382.792-1.431-.183-2.668-.294-2.578-1.455.09-1.16-.306-2.491 1.585-3.44C6.364 7.562 7.849 7.485 11.25 4.57c1.144-.196 2.512-.205 4.104-.026 2.388.269 2.272.75 2.806 1.556z"/>
    <filter id="aZ" width="134.9%" height="160.9%" x="-17.5%" y="-30.4%" filterUnits="objectBoundingBox">
      <feOffset dx="-3" dy="-5" in="SourceAlpha" result="shadowOffsetInner1"/>
      <feComposite in="shadowOffsetInner1" in2="SourceAlpha" k2="-1" k3="1" operator="arithmetic" result="shadowInnerInner1"/>
      <feColorMatrix in="shadowInnerInner1" values="0 0 0 0 0.839215686 0 0 0 0 0.952941176 0 0 0 0 0.988235294 0 0 0 1 0"/>
    </filter>
    <path id="ba" d="M14.908 10.57c-.231-.585-2.961-3-4.693-4.628-3.12-2.93-4.477-4.23-5.297-4.23-1.915 0-2.247.19-3.226 1.612-.03.043-.336.837-.259 1.043.232.614.35.934 1.032 1.561.857.788 2.917 1.7 4.049 2.541 1.44 1.07 3.092 3.481 5.694 4.599.636.273 1.287.853 2.428-.1 1.005-.84.503-1.81.272-2.397z"/>
    <path id="bb" d="M6.716 12.975c.297.067.573-.47 1.818-.748 1.448-.323 2.497-.633 2.508-.883.093-2.129-1.546-4.594-5.309-5.498-2.466-.593.028-.84.103-.203.04.335-1.273-5.427-1.923-4.149-.702 1.383-1.362 2.133-.972 4.578.39 2.444 3.207 6.774 3.775 6.903z"/>
    <filter id="bc" width="145%" height="131.7%" x="-22.5%" y="-15.8%" filterUnits="objectBoundingBox">
      <feOffset dx="-3" dy="-2" in="SourceAlpha" result="shadowOffsetInner1"/>
      <feComposite in="shadowOffsetInner1" in2="SourceAlpha" k2="-1" k3="1" operator="arithmetic" result="shadowInnerInner1"/>
      <feColorMatrix in="shadowInnerInner1" values="0 0 0 0 0.68627451 0 0 0 0 0.850980392 0 0 0 0 0.91372549 0 0 0 0.53736413 0"/>
    </filter>
    <path id="bd" d="M24.988 14.402a8.485 8.485 0 0 1-.197.74c-.317.997-.645 1.403-1.06 1.97-.438.597-1.303 1.245-2.245 1.245-1.036 0-1.545.295-1.77.762-.02.323-.038.667-.038 1.034 0 3.137 10.908 5.778 1.194 5.778-13.348 0-12.33-2.484-7.875-5.47.494-.33.751-.782.89-1.288a6.987 6.987 0 0 0-.121-.816c-.617-2.962-2.987-7.35-3.14-8.136-.633-3.254 2.85-7.667 5.79-7.667s7.048 1.941 8.058 3.984c.338.684.675 2.26.77 4.03.09.257.193.574.34.864.451.885 1.043.768 1.043 1.748 0 .642-.873.947-1.328 1.117a4.356 4.356 0 0 1-.31.105z"/>
    <filter id="be" width="116.2%" height="111.5%" x="-8.1%" y="-5.8%" filterUnits="objectBoundingBox">
      <feOffset dy="2" in="SourceAlpha" result="shadowOffsetInner1"/>
      <feComposite in="shadowOffsetInner1" in2="SourceAlpha" k2="-1" k3="1" operator="arithmetic" result="shadowInnerInner1"/>
      <feColorMatrix in="shadowInnerInner1" values="0 0 0 0 0.839215686 0 0 0 0 0.952941176 0 0 0 0 0.988235294 0 0 0 1 0"/>
    </filter>
    <path id="bf" d="M16.94 8.165c0 .366-.782.366.173 3.084.52 1.479 2.633 3.062 3.462 4.58.694 1.273.184 2.54 0 3.282-.247.995.879-.652 1.797-2.437.586-1.139 1.229-2.22 1.497-2.528.677-.772.346-1.65 1.403-4.46s.349-3.417-.726-5.875-1.207-2.443-3.013-3.32c-1.806-.876-5.255-.48-8.499.403-3.244.882-2.293 1.3-3.747 2.255-1.454.954-.852 2.855.327 2.481 1.179-.373 1.179.865 3.42.414 2.242-.452.823.463.823 1.244 0 .78 3.083.51 3.083.877z"/>
    <filter id="bg" width="114.8%" height="113.2%" x="-7.4%" y="-6.6%" filterUnits="objectBoundingBox">
      <feOffset dx="2" dy="-2" in="SourceAlpha" result="shadowOffsetInner1"/>
      <feComposite in="shadowOffsetInner1" in2="SourceAlpha" k2="-1" k3="1" operator="arithmetic" result="shadowInnerInner1"/>
      <feColorMatrix in="shadowInnerInner1" values="0 0 0 0 0.38119476 0 0 0 0 0.84529869 0 0 0 0 1 0 0 0 0.209805254 0"/>
    </filter>
    <path id="bh" d="M32.099 57.483c1.557 2.23-12.34-7.082-14.468-2.014-1.992 4.744-1.574-4.98-.04-1.367 1.535 3.612 3.032 5.189 5.649 6.573 5.079 2.688 13.22 8.414 18.452 4.74 2.806-1.97.6-5.644-.09-7.662-.937-2.733-2.84-5.654-5.019-8.413-.263-.333-1.205-3.334-1.452-3.573-5.063-4.89-10.35-5.35-13.151-1.755-2.97 3.81-1.11 5.674 3.55 8.494 1.732 1.049 6.235 4.498 6.569 4.977z"/>
    <filter id="bi" width="110.1%" height="110.8%" x="-5%" y="-5.4%" filterUnits="objectBoundingBox">
      <feOffset dx="-2" dy="-2" in="SourceAlpha" result="shadowOffsetInner1"/>
      <feComposite in="shadowOffsetInner1" in2="SourceAlpha" k2="-1" k3="1" operator="arithmetic" result="shadowInnerInner1"/>
      <feColorMatrix in="shadowInnerInner1" values="0 0 0 0 0.68627451 0 0 0 0 0.854901961 0 0 0 0 0.91372549 0 0 0 1 0"/>
    </filter>
    <path id="bj" d="M18.255 4.976c-.57-1.504.404 3.763.952 5.243.548 1.48-2.186 2.096-3.987 1.85-1.8-.247-8.286.823-10.258.528-2.014-.302-2.037-.567-1.947-1.748.09-1.18.724-1.829 2.755-2.661 2.905-1.19 6.789-.972 8.278-3.684l4.207.472z"/>
    <filter id="bk" width="129.8%" height="159.5%" x="-14.9%" y="-29.8%" filterUnits="objectBoundingBox">
      <feOffset dx="4" dy="-3" in="SourceAlpha" result="shadowOffsetInner1"/>
      <feComposite in="shadowOffsetInner1" in2="SourceAlpha" k2="-1" k3="1" operator="arithmetic" result="shadowInnerInner1"/>
      <feColorMatrix in="shadowInnerInner1" values="0 0 0 0 0.68627451 0 0 0 0 0.854901961 0 0 0 0 0.91372549 0 0 0 1 0"/>
    </filter>
    <path id="bl" d="M40.415 65.298c.095-.58.094-1.126-.017-1.623-.685-3.06 2.281.84.72-.104-.984-1.138.505-5.392-.103-5.904-4.266-3.588-9.467-3.285-11.711-1.751-1.434.979-1.7 2.177-2.34 4.5-.35 1.265-1.819 4.99-2.323 6.56-.478 1.488-1.587 3.023-2.253 3.174-1.292.292-2.112.692-3.114-.226-2.04-1.87-13.442-5.3-16.201-5.69-2.38-.334-3.795 6.04-2.231 6.419 1.564.38 5.912 2.19 9.918 4.78 4.107 2.657 8.107 5.906 13.348 5.017 3.562-.604 8.441-4.002 11.946-7.809"/>
    <filter id="bm" width="106.5%" height="110.5%" x="-3.3%" y="-5.2%" filterUnits="objectBoundingBox">
      <feOffset dx="-1" dy="-2" in="SourceAlpha" result="shadowOffsetInner1"/>
      <feComposite in="shadowOffsetInner1" in2="SourceAlpha" k2="-1" k3="1" operator="arithmetic" result="shadowInnerInner1"/>
      <feColorMatrix in="shadowInnerInner1" values="0 0 0 0 0.68627451 0 0 0 0 0.854901961 0 0 0 0 0.91372549 0 0 0 1 0"/>
    </filter>
    <path id="bn" d="M6.097 30.494c-.245 1.905.46 3.59 2.114 5.054.257.852.257 1.95 0 3.295-.386 2.017-3.656 3.189-2.114 4.77 1.541 1.581 19.487 8.015 19.487 6.298 0-1.009-.412-3.972-1.532-8.73-.522-2.216-.149-3.397 0-4.372.131-.862 2.145-2.446 3.265-3.614 1.949-2.034 2.604-4.942 1.301-7.587-1.274-2.587-3.776-4.405-4.878-4.246-2.075.3-6.584 5.283-8.845 4.246-1.251-.575-1.479-1.662-1.62-2.302-.093-.42 1.904-2.367 1.62-2.127-.334.28-2.527.866-3.368 1.718-2.019 2.047-5.217 5.937-5.43 7.597z"/>
    <filter id="bo" width="111.4%" height="109.3%" x="-5.7%" y="-4.6%" filterUnits="objectBoundingBox">
      <feOffset dx="2" dy="-1" in="SourceAlpha" result="shadowOffsetInner1"/>
      <feComposite in="shadowOffsetInner1" in2="SourceAlpha" k2="-1" k3="1" operator="arithmetic" result="shadowInnerInner1"/>
      <feColorMatrix in="shadowInnerInner1" values="0 0 0 0 0.68627451 0 0 0 0 0.850980392 0 0 0 0 0.91372549 0 0 0 0.339362545 0"/>
    </filter>
    <path id="bp" d="M5.023 57.615c.253.778.562 1.248.926 1.411.41.184.795.41 1.154.681 2.235.515 3.369.966 3.4 1.352.049.579-2.28-.076-2.846.15-.567.224 3.526 1.021 3.177 2.03-.35 1.009-4.834-1.72-3.594-.272 1.24 1.448 2.63 1.459 2.436 2.548-.195 1.09-2.92-1.523-3.475-1.36-.554.163.442.275.786 1.841.23 1.044-.466.705-2.085-1.017-.887-.418-1.478-.717-1.772-.9-.441-.272-1.844-1.78-1.735-3.408.062-.924.191-1.74.388-2.447a623.241 623.241 0 0 0-.145-5.217c-.206-6.131-.38-10.893-.293-12.991.12-2.934 1.454-7.47 4-13.605 1.42.129 2.43.443 3.032.944.6.501 1.415 1.49 2.444 2.967-1.557 3.08-2.607 5.315-3.15 6.706-.878 2.247-1.45 4.916-1.822 6.062-.332 1.027-.342 4.358-.38 6.769-.025 1.563-.174 4.148-.446 7.756z"/>
    <filter id="bq" width="126.8%" height="106.3%" x="-13.4%" y="-3.2%" filterUnits="objectBoundingBox">
      <feOffset dx="-1" dy="-2" in="SourceAlpha" result="shadowOffsetInner1"/>
      <feComposite in="shadowOffsetInner1" in2="SourceAlpha" k2="-1" k3="1" operator="arithmetic" result="shadowInnerInner1"/>
      <feColorMatrix in="shadowInnerInner1" values="0 0 0 0 0.707919726 0 0 0 0 0.863089585 0 0 0 0 0.911245748 0 0 0 1 0"/>
    </filter>
    <path id="br" d="M66.808 18.983c-.746 0-1.845 1.3-2.986 2.1-1.141.8-2.082.948-3.112 3.851-1.03 2.903 1.973 2.728 2.988 5.916 1.014 3.187 1.13-1.394 1.13-3.425 0-2.03-.817-2.242 0-3.413.25-.355.688-1.16 1.317-2.417.353-.418.574-.723.663-.915.505-1.089.393-1.697 0-1.697z"/>
    <filter id="bs" width="138.2%" height="119.6%" x="-19.1%" y="-9.8%" filterUnits="objectBoundingBox">
      <feOffset dx="-2" dy="1" in="SourceAlpha" result="shadowOffsetInner1"/>
      <feComposite in="shadowOffsetInner1" in2="SourceAlpha" k2="-1" k3="1" operator="arithmetic" result="shadowInnerInner1"/>
      <feColorMatrix in="shadowInnerInner1" values="0 0 0 0 0.807843137 0 0 0 0 0.949019608 0 0 0 0 1 0 0 0 1 0"/>
    </filter>
  </defs>
  <g fill="none" fill-rule="evenodd">
    <path fill="#478DA4" d="M1.016 97.464L89.91 46.39a2.025 2.025 0 0 1 2.025.004l157.387 91.283a2.025 2.025 0 0 1 .001 3.503l-89.913 52.219a2.025 2.025 0 0 1-2.047-.008L.995 100.963a2.025 2.025 0 0 1 .021-3.499z" filter="url(#a)" opacity=".096" transform="matrix(-1 0 0 1 268.87 119.54)"/>
    <g fill-rule="nonzero" stroke="#429CB5">
      <path fill="#CEECF6" stroke-width="2.803" d="M260.538 173.09a6.096 6.096 0 0 0-3.044-5.384l-71.006-40.794a9.262 9.262 0 0 0-9.21 0L74.761 185.437c-2.043 1.197-32.587 18.794-32.587 20.468v10.133c0 6.514 4.209 9.661 4.209 9.661l67.282 38.773a15.283 15.283 0 0 0 15.338-.04l128.49-73.437c2.043-1.197 3.044-3.23 3.044-5.304 0-2.034-.04-10.607 0-12.601z"/>
      <path fill="#FFF" stroke-width="1.053" d="M176.466 125.009L44.384 201.334c-4.085 2.352-4.045 8.214 0 10.567l67.922 39.04a15.283 15.283 0 0 0 15.338-.04l128.999-74.53c4.085-2.353 4.045-8.215 0-10.568l-70.966-40.794a9.262 9.262 0 0 0-9.21 0z"/>
    </g>
    <path fill="#478DA4" d="M102.266 84.504L191.16 33.43a2.025 2.025 0 0 1 2.025.004l157.387 91.283a2.025 2.025 0 0 1 .001 3.503l-89.913 52.219a2.025 2.025 0 0 1-2.047-.008L102.245 88.003a2.025 2.025 0 0 1 .021-3.499z" filter="url(#b)" opacity=".127" transform="matrix(-1 0 0 1 471.37 119.54)"/>
    <g fill="#51D6FF" opacity=".244">
      <path d="M269.194 170.653l-23.674-24.181a2.025 2.025 0 0 0-2.54-.289l-103.445 66.213a6.025 6.025 0 0 0-.105 10.08l17.988 12.05v10.064a2.025 2.025 0 0 0 3.03 1.758c64.269-36.767 97.942-57.66 101.021-62.678 2.618-4.266 5.187-7.654 7.707-10.167a2.025 2.025 0 0 0 .018-2.85z" opacity=".416" style="mix-blend-mode:multiply"/>
      <path d="M263.597 215.837l-68.059-41.241a2.025 2.025 0 0 0-2.084-.009L49.888 259.928a7.025 7.025 0 0 0-.07 12.036l61.079 37.268a18.025 18.025 0 0 0 18.604.105l134.04-79.74a8.025 8.025 0 0 0 .056-13.76z" opacity=".111" style="mix-blend-mode:multiply"/>
    </g>
    <g stroke="#28CDFF">
      <path fill="#EEFBFF" stroke-linejoin="round" stroke-width=".948" d="M126.344 191.53c-1.82 1.043-1.82 2.734 0 3.777l13.187 7.553c1.82 1.043 4.771 1.043 6.593 0l13.185-7.553c1.821-1.043 1.821-2.734 0-3.777l-13.185-7.553c-.91-.521-2.103-.783-3.297-.783-1.193 0-2.386.262-3.296.783l-13.187 7.553z"/>
      <g stroke-width=".687" opacity=".72">
        <path stroke-linecap="round" stroke-linejoin="round" d="M149.824 189.764l-1.942-.1.149 1.119"/>
        <path d="M144.495 191.206c-.424.248-.424.62-.025.87.398.248 1.095.223 1.519 0 .423-.25.423-.622.025-.87-.399-.249-1.096-.249-1.52 0z"/>
        <path stroke-linecap="round" stroke-linejoin="round" d="M142.726 188.645c-2.092 0-4.208.473-5.802 1.417-3.213 1.84-3.263 4.797-.125 6.612 3.138 1.79 8.268 1.74 11.481-.1 3.213-1.84 3.238-4.797.124-6.611"/>
        <path stroke-linecap="round" stroke-linejoin="round" d="M143.772 193.567l-4.208 2.038s-.673.447-1.196.149M138.094 195.605c-.523-.298.274-.671.274-.671l3.537-2.436"/>
        <path stroke-linecap="round" stroke-linejoin="round" d="M141.88 192.498l-.648-1.268s-.299-.522.374-.646a.779.779 0 0 1 .896.423l.648 1.267 1.02.572 2.192.373s.947.124.723.522c-.225.373-1.121.199-1.121.199l-2.192-.373"/>
      </g>
      <g stroke-linejoin="round">
        <path fill="#EEFBFF" stroke-width=".948" d="M114.67 197.791l-13.186 7.553c-1.82 1.043-1.82 2.734 0 3.777l13.186 7.554c1.82 1.043 4.772 1.043 6.594 0l13.185-7.554c1.82-1.043 1.82-2.734 0-3.777l-13.185-7.553c-.91-.52-2.103-.782-3.297-.782-1.193 0-2.386.261-3.297.782z"/>
        <g stroke-linecap="round" opacity=".72">
          <path stroke-width=".687" d="M116.855 207.35s4.383-2.982 7.695-3.156M118.524 206.38c1.494-.968 4.308-.546 5.902.473-1.295.621-4.134.82-5.902-.472z"/>
          <path stroke-width=".687" d="M120.54 205.262c1.918-.67 1.72-2.336.275-3.43-1.32.622-2.167 2.188-.274 3.43zM109.06 208.891l5.08 2.933 3.985-1.54-6.376-3.68zM113.319 207.5l-2.665 2.286"/>
          <path stroke-width=".751" d="M120.74 209.91l-8.368-4.822-1.295 1.12 7.695 4.448z"/>
        </g>
      </g>
      <path fill="#EEFBFF" stroke-linejoin="round" stroke-width=".948" d="M113.94 169.435l-13.187 7.553c-1.821 1.043-1.821 2.734 0 3.777l13.186 7.553c1.82 1.043 4.772 1.043 6.594 0l13.185-7.553c1.82-1.043 1.82-2.734 0-3.777l-13.185-7.553c-.91-.521-2.103-.782-3.297-.782-1.193 0-2.386.26-3.297.782zM89.079 182.523l-13.187 7.553c-1.82 1.043-1.82 2.733 0 3.776l13.187 7.554c1.82 1.043 4.771 1.043 6.593 0l13.185-7.554c1.821-1.043 1.821-2.733 0-3.776l-13.185-7.553c-.91-.522-2.103-.783-3.297-.783-1.193 0-2.386.261-3.296.783zM139.53 213.787l-13.186 7.553c-1.82 1.043-1.82 2.734 0 3.777l13.187 7.554c1.82 1.043 4.771 1.043 6.593 0l13.185-7.554c1.821-1.043 1.821-2.734 0-3.777l-13.185-7.553c-.91-.52-2.103-.782-3.297-.782-1.193 0-2.386.261-3.296.782z"/>
    </g>
    <path fill="#EEFBFF" stroke="#28CDFF" stroke-linejoin="round" stroke-width=".948" d="M162.198 142.533l-13.187 7.553c-1.82 1.043-1.82 2.734 0 3.777l13.187 7.553c1.82 1.043 4.771 1.043 6.593 0l13.185-7.553c1.821-1.043 1.821-2.734 0-3.777l-13.185-7.553c-.91-.521-2.103-.783-3.297-.783-1.193 0-2.386.262-3.296.783z"/>
    <g stroke="#28CDFF" stroke-linecap="round" stroke-linejoin="round" stroke-width=".73">
      <path d="M159.977 151.859l-2.67.106-.179 1.515M173.451 150.206l-.186 1.519-2.663.102M169.374 149.542l2.003 1.14M158.88 152.892l2.004 1.14M162.112 154.683c.933.502 1.804.815 2.612.94 1.212.188 1.894.002 2.456-.318.563-.32 1.152-.998.692-1.721-.46-.724-3.657-2.044-4.778-2.977-1.12-.932-.546-1.598.37-2.12.916-.521 1.586-.587 2.705-.446.747.094 1.48.39 2.2.89"/>
    </g>
    <path fill="#EEFBFF" stroke="#28CDFF" stroke-linejoin="round" stroke-width=".948" d="M137.337 155.62l-13.186 7.553c-1.82 1.043-1.82 2.734 0 3.777l13.186 7.554c1.82 1.043 4.772 1.043 6.594 0l13.185-7.554c1.82-1.043 1.82-2.734 0-3.777l-13.185-7.553c-.91-.52-2.103-.782-3.297-.782-1.193 0-2.386.261-3.297.782z"/>
    <g fill="#3C9EB7" fill-rule="nonzero" opacity=".72">
      <path d="M138.75 164.561l1.619-.943c1.267-.73 2.558-1.485 3.825-2.215a.179.179 0 0 1 .117-.047.567.567 0 0 1 .282 0c.117.047.187.117.21.212.33 1.037.681 2.074 1.01 3.064.023.094.117.165.211.235.61.354 1.244.708 1.83 1.061.188.118.376.212.564.33.21.118.21.212.047.307-1.455.848-2.934 1.697-4.389 2.545-.187.094-.328.094-.54-.024-.187-.094-.375-.212-.539-.306-.657-.377-1.314-.778-1.971-1.155-.141-.094-.305-.141-.516-.165-.916-.094-1.854-.212-2.746-.306-.727-.071-1.455-.165-2.182-.236-.235-.024-.305-.094-.352-.141-.047-.071-.047-.142.094-.212 1.15-.684 2.3-1.344 3.426-2.004zm2.886 2.923l2.135 1.249 4.037-2.333-2.136-1.25-4.036 2.334zm-5.42-.896l.445.047h.07c.047 0 .07 0 .118.024l.938.094c1.033.118 2.112.236 3.168.354.165.023.306 0 .423-.071 1.22-.707 2.464-1.438 3.708-2.145.117-.07.164-.141.117-.236-.211-.612-.423-1.225-.61-1.838l-.188-.519c0-.023-.023-.047-.023-.07 0-.024 0-.024-.024-.047l-.094-.26-8.049 4.667zM140.977 161.33c.07.023.117.047.164.07.094.047.117.118.094.189-.047.094-.211.141-.423.094h-.093c-1.76-.4-3.638-.141-4.576.637-.798.66-.916 1.414-.376 2.262.047.071.047.142 0 .189-.023.047-.07.07-.164.07-.094.024-.164 0-.235-.023-.094-.024-.164-.07-.188-.141-.68-1.085-.445-2.051.681-2.782.915-.542 1.924-.777 3.144-.777.658-.024 1.315.07 1.972.212"/>
      <path d="M137.621 163.671c-.023.118-.14.212-.375.165-.235-.047-.282-.165-.259-.283.094-.306.305-.589.68-.801.376-.212.822-.354 1.385-.4.118 0 .235 0 .329.023.023 0 .023.023.047.023.047.024.07.047.094.095.07.141-.094.212-.282.212-.915.141-1.455.448-1.619.966"/>
      <path d="M133.81 165.558c.094.071.258.071.375.024.118-.047.141-.141.047-.236-.117-.094-2.957-2.38.4-4.313 3.355-1.956 7.438-.283 7.485-.283.14.047.328.047.399-.023.07-.071.023-.189-.094-.236-.047-.024-4.529-1.838-8.213.283-3.684 2.121-.446 4.737-.4 4.76-.023 0 0 0 0 .024"/>
      <g>
        <path d="M138.585 164.655l1.62-.942c1.267-.731 2.557-1.485 3.825-2.216.046-.024.07-.047.117-.047a.567.567 0 0 1 .281 0 .461.461 0 0 1 .212.212c.328 1.037.68 2.074 1.009 3.064.023.094.117.165.21.236.611.353 1.245.707 1.831 1.06.188.118.376.213.563.33.212.118.212.213.047.307-1.455.848-2.933 1.697-4.388 2.545-.188.095-.328.095-.54-.023-.187-.095-.375-.212-.54-.307-.656-.377-1.313-.777-1.97-1.155-.141-.094-.305-.141-.517-.165-.915-.094-1.854-.212-2.745-.306-.728-.07-1.455-.165-2.183-.236-.234-.023-.305-.094-.352-.141-.047-.07-.047-.142.094-.212 1.127-.684 2.3-1.344 3.426-2.004zm2.863 2.923l2.136 1.25 4.036-2.334-2.136-1.25-4.036 2.334zm-5.42-.872l.445.047h.07c.048 0 .071 0 .118.024l.939.094c1.032.118 2.112.236 3.168.353.164.024.305 0 .422-.07 1.22-.707 2.464-1.438 3.708-2.145.117-.07.164-.142.117-.236a56.16 56.16 0 0 1-.61-1.838l-.188-.542c0-.024-.023-.047-.023-.071 0-.024 0-.024-.024-.047l-.094-.26-8.048 4.69zM140.789 161.424c.07.023.117.047.164.07.094.048.118.118.094.19-.047.093-.211.14-.422.093h-.094c-1.737-.4-3.614-.117-4.576.66-.798.66-.915 1.415-.376 2.263.047.047.07.118.024.165-.024.047-.094.07-.164.07a.384.384 0 0 1-.235-.023c-.094-.023-.164-.07-.188-.141-.704-1.084-.47-2.05.657-2.781.939-.519 1.948-.778 3.168-.778.657 0 1.314.07 1.948.212"/>
        <path d="M137.457 163.789c-.047.094-.165.188-.4.141-.234-.047-.28-.165-.257-.283.094-.306.328-.565.68-.777.376-.212.821-.354 1.385-.401.117 0 .234 0 .328.024.024 0 .024.023.047.023.047.024.07.047.094.094.07.142-.094.213-.282.213-.891.117-1.431.424-1.595.966"/>
        <path d="M133.646 165.653c.093.07.258.07.375.023.117-.047.14-.141.047-.235-.117-.095-2.957-2.38.399-4.314 3.356-1.932 7.415-.282 7.462-.259.141.047.329.047.4-.023.07-.071.023-.19-.095-.236-.047-.024-4.529-1.839-8.213.283-3.684 2.12-.446 4.737-.399 4.76 0-.023 0 0 .024 0"/>
      </g>
    </g>
    <g stroke="#28CDFF" stroke-linejoin="round">
      <path fill="#EEFBFF" stroke-width=".948" d="M187.79 156.348l-13.187 7.553c-1.82 1.043-1.82 2.733 0 3.776l13.186 7.554c1.82 1.043 4.772 1.043 6.594 0l13.185-7.554c1.82-1.043 1.82-2.733 0-3.776l-13.185-7.553c-.91-.522-2.103-.783-3.297-.783-1.193 0-2.386.261-3.297.783z"/>
      <g stroke-linecap="round" stroke-width=".687" opacity=".72">
        <path d="M186.477 163.824c-2.092.89-2.067 2.322.075 3.23 2.141.888 5.553.906 7.67.018 2.117-.89 3.188-4.59 3.188-4.59s-8.841.471-10.933 1.342zM188.195 164.405c-1.32.562-1.295 1.47.05 2.032"/>
      </g>
    </g>
    <g stroke="#28CDFF">
      <path fill="#EEFBFF" stroke-linejoin="round" stroke-width=".948" d="M163.66 170.162l-13.186 7.553c-1.821 1.043-1.821 2.734 0 3.777l13.186 7.554c1.82 1.043 4.771 1.043 6.594 0l13.185-7.554c1.82-1.043 1.82-2.734 0-3.777l-13.185-7.553c-.91-.521-2.104-.782-3.298-.782-1.192 0-2.386.261-3.296.782z"/>
      <g stroke-width=".687" opacity=".72">
        <path d="M169.972 180.672c2.067-1.193 2.167-3.082.174-4.226-1.942-1.143-5.23-1.093-7.296.1-2.068 1.193-2.167 3.082-.175 4.225 1.943 1.143 5.23 1.094 7.297-.1z"/>
        <path stroke-linecap="round" stroke-linejoin="round" d="M163.995 177.217c-1.868 1.069-2.117 2.71-.722 3.852-.224-.1-.423-.198-.623-.298-1.967-1.143-1.892-3.032.175-4.225 2.092-1.193 5.379-1.243 7.346-.1.2.1.374.224.523.348-1.967-.795-4.831-.646-6.699.423zM162.451 180.895l-2.266 1.293M170.37 176.322l2.267-1.292M171.715 177.714l3.039-.497M171.64 179.33l2.99.422M170.171 180.771l2.142 1.243M167.68 181.616l.723 1.715M164.867 181.666l-.872 1.74"/>
      </g>
    </g>
    <g stroke="#28CDFF">
      <path fill="#EEFBFF" stroke-linejoin="round" stroke-width=".948" d="M164.47 199.322l-13.186 7.553c-1.821 1.043-1.821 2.734 0 3.777l13.186 7.554c1.82 1.043 4.771 1.043 6.594 0l13.185-7.554c1.82-1.043 1.82-2.734 0-3.777l-13.185-7.553c-.91-.521-2.104-.782-3.298-.782-1.192 0-2.386.261-3.296.782z"/>
      <g stroke-width=".687" opacity=".72">
        <path d="M170.782 209.832c2.067-1.193 2.167-3.082.174-4.226-1.942-1.143-5.23-1.093-7.296.1-2.068 1.193-2.167 3.082-.175 4.225 1.943 1.143 5.23 1.094 7.297-.1z"/>
        <path stroke-linecap="round" stroke-linejoin="round" d="M164.805 206.377c-1.868 1.069-2.117 2.71-.722 3.852-.224-.1-.423-.198-.623-.298-1.967-1.143-1.892-3.032.175-4.225 2.092-1.193 5.379-1.243 7.346-.1.2.1.374.224.523.348-1.967-.795-4.831-.646-6.699.423zM163.261 210.055l-2.266 1.293M171.18 205.482l2.267-1.292M172.525 206.874l3.039-.497M172.45 208.49l2.99.422M170.981 209.931l2.142 1.243M168.49 210.776l.723 1.715M165.677 210.826l-.872 1.74"/>
      </g>
    </g>
    <g>
      <g fill-rule="nonzero" opacity=".886" style="mix-blend-mode:multiply" transform="translate(97.828 165.354)">
        <use fill="#DEF8FF" style="mix-blend-mode:multiply" xlink:href="#c"/>
        <use stroke="#7DDFFF" stroke-width=".948" xlink:href="#c"/>
      </g>
      <g fill-rule="nonzero" transform="translate(97.828 165.354)">
        <use fill="#60A9BF" fill-opacity=".11" style="mix-blend-mode:multiply" xlink:href="#d"/>
        <use fill="#000" filter="url(#e)" xlink:href="#d"/>
        <use stroke="#7DDFFF" stroke-width=".948" xlink:href="#d"/>
      </g>
      <g transform="matrix(-1 0 0 1 123.587 172.712)">
        <mask id="g" fill="#fff">
          <use xlink:href="#f"/>
        </mask>
        <use stroke="#E9FAFF" stroke-linecap="round" stroke-linejoin="round" stroke-width=".54" opacity=".819" style="mix-blend-mode:screen" xlink:href="#f"/>
        <path fill="#B4F0FF" d="M-2.011 2.511l6.938-3.973 9.858 5.645-6.938 3.973z" mask="url(#g)" opacity=".819" style="mix-blend-mode:screen"/>
      </g>
      <g transform="matrix(-1 0 0 1 117.11 173.406)">
        <mask id="i" fill="#fff">
          <use xlink:href="#h"/>
        </mask>
        <use stroke="#E9FAFF" stroke-linecap="round" stroke-linejoin="round" stroke-width=".54" opacity=".819" style="mix-blend-mode:screen" xlink:href="#h"/>
        <path fill="#B4F0FF" d="M-1.947 2.633l6.938-3.974 6.945 3.978L4.999 6.61z" mask="url(#i)" opacity=".819" style="mix-blend-mode:screen"/>
      </g>
      <g transform="matrix(-1 0 0 1 122.187 176.358)">
        <mask id="k" fill="#fff">
          <use xlink:href="#j"/>
        </mask>
        <use stroke="#E9FAFF" stroke-linecap="round" stroke-linejoin="round" stroke-width=".54" opacity=".819" style="mix-blend-mode:screen" xlink:href="#j"/>
        <path fill="#B4F0FF" d="M-1.976 2.605l6.938-3.974 6.975 3.995L4.999 6.6z" mask="url(#k)" opacity=".819" style="mix-blend-mode:screen"/>
      </g>
      <g transform="matrix(-1 0 0 1 118.51 172.712)">
        <mask id="m" fill="#fff">
          <use xlink:href="#l"/>
        </mask>
        <use stroke="#E9FAFF" stroke-linecap="round" stroke-linejoin="round" stroke-width=".54" opacity=".819" style="mix-blend-mode:screen" xlink:href="#l"/>
        <path fill="#B4F0FF" d="M-.983.158L.849-.891l4.801 2.75-1.832 1.049z" mask="url(#m)" opacity=".819" style="mix-blend-mode:screen"/>
      </g>
      <g transform="matrix(-1 0 0 1 123.587 175.664)">
        <mask id="o" fill="#fff">
          <use xlink:href="#n"/>
        </mask>
        <use stroke="#E9FAFF" stroke-linecap="round" stroke-linejoin="round" stroke-width=".54" opacity=".819" style="mix-blend-mode:screen" xlink:href="#n"/>
        <path fill="#B4F0FF" d="M-1.013.131L.807-.911l4.801 2.749L3.789 2.88z" mask="url(#o)" opacity=".819" style="mix-blend-mode:screen"/>
      </g>
      <g transform="matrix(-1 0 0 1 115.535 178.095)">
        <mask id="q" fill="#fff">
          <use xlink:href="#p"/>
        </mask>
        <use stroke="#E9FAFF" stroke-linecap="round" stroke-linejoin="round" stroke-width=".54" opacity=".819" style="mix-blend-mode:screen" xlink:href="#p"/>
        <path fill="#B4F0FF" d="M-2.06 1.712L2.33-.803 5.31.904.92 3.418z" mask="url(#q)" opacity=".819" style="mix-blend-mode:screen"/>
      </g>
      <g transform="matrix(-1 0 0 1 114.134 177.4)">
        <mask id="s" fill="#fff">
          <use xlink:href="#r"/>
        </mask>
        <use stroke="#E9FAFF" stroke-linecap="round" stroke-linejoin="round" stroke-width=".54" opacity=".819" style="mix-blend-mode:screen" xlink:href="#r"/>
        <path fill="#B4F0FF" d="M-.847.953l4.35-2.491L6.435.141l-4.35 2.491z" mask="url(#s)" opacity=".819" style="mix-blend-mode:screen"/>
      </g>
      <g transform="matrix(-1 0 0 1 112.034 173.406)">
        <mask id="u" fill="#fff">
          <use xlink:href="#t"/>
        </mask>
        <use stroke="#E9FAFF" stroke-linecap="round" stroke-linejoin="round" stroke-width=".54" opacity=".819" style="mix-blend-mode:screen" xlink:href="#t"/>
        <path fill="#B4F0FF" d="M-3.481 1.743L.909-.771l5.996 3.434-4.39 2.514z" mask="url(#u)" opacity=".819" style="mix-blend-mode:screen"/>
      </g>
      <g transform="matrix(-1 0 0 1 122.187 179.31)">
        <mask id="w" fill="#fff">
          <use xlink:href="#v"/>
        </mask>
        <use stroke="#E9FAFF" stroke-linecap="round" stroke-linejoin="round" stroke-width=".54" opacity=".819" style="mix-blend-mode:screen" xlink:href="#v"/>
        <path fill="#B4F0FF" d="M-.978.224l4.367-2.501 6.002 3.438-4.367 2.501z" mask="url(#w)" opacity=".819" style="mix-blend-mode:screen"/>
      </g>
      <path stroke="#88DDF9" stroke-linecap="round" stroke-width=".54" d="M98.56 176.26v2.693M134.388 175.533v3.42"/>
      <path stroke="#88DDF9" stroke-linecap="round" stroke-width=".54" d="M116.839 166.08v2.694" opacity=".653"/>
      <path stroke="#88DDF9" stroke-linecap="round" stroke-width=".54" d="M116.839 186.44v2.692"/>
    </g>
    <g>
      <g stroke="#28CDFF" stroke-linecap="round" stroke-linejoin="round" stroke-width=".653" opacity=".72">
        <path d="M93.028 188.849c1.248-.713 1.295-1.854.118-2.543-1.177-.689-3.13-.641-4.354.072-1.224.713-1.247 1.9-.07 2.566l9.649 5.632"/>
        <path d="M95.194 191.32c.682-.404.706-1.021.047-1.402-.66-.38-1.718-.356-2.4.024-.683.38-.66 1.046-.024 1.402l2.47 1.45M88.816 192.342c-.777.452-2.024.475-2.777.048-.754-.428-.707-1.165.094-1.616.776-.452 2.07-.452 2.8-.024l5.766 3.374"/>
      </g>
      <g stroke="#28CDFF" stroke-linecap="round" stroke-linejoin="round" stroke-width=".653" opacity=".72">
        <path d="M143.48 221.568c1.248-.713 1.295-1.854.118-2.543-1.177-.689-3.13-.641-4.354.072-1.224.712-1.247 1.9-.07 2.566l9.649 5.632"/>
        <path d="M145.646 224.04c.682-.405.706-1.023.047-1.403-.66-.38-1.718-.356-2.4.024-.683.38-.66 1.046-.024 1.402l2.47 1.45M139.268 225.061c-.777.452-2.024.475-2.777.048-.754-.428-.706-1.165.094-1.616.776-.452 2.07-.452 2.8-.024l5.767 3.374"/>
      </g>
    </g>
    <g>
      <g stroke-linecap="round" stroke-linejoin="round" transform="scale(-1 1) rotate(-1 9359.173 5656.266)">
        <use fill="#D7F1FA" xlink:href="#x"/>
        <use fill="#000" filter="url(#y)" xlink:href="#x"/>
        <use stroke="#429CB5" stroke-width=".729" xlink:href="#x"/>
      </g>
      <g stroke-linecap="round" stroke-linejoin="round" transform="scale(-1 1) rotate(-1 9359.173 5656.266)">
        <use fill="#D7F1FA" xlink:href="#z"/>
        <use fill="#000" filter="url(#A)" xlink:href="#z"/>
        <use stroke="#429CB5" stroke-width=".729" xlink:href="#z"/>
      </g>
      <g stroke-linejoin="round" transform="scale(-1 1) rotate(-86 79.714 147.243)">
        <use fill="#F7FDFF" xlink:href="#B"/>
        <use fill="#000" filter="url(#C)" xlink:href="#B"/>
        <use stroke="#429CB5" stroke-width=".696" xlink:href="#B"/>
      </g>
      <g fill-rule="nonzero" stroke-linecap="round" transform="rotate(53 -165.237 159.972)">
        <use fill="#59D5FF" style="mix-blend-mode:multiply" xlink:href="#D"/>
        <use stroke="#429CB5" stroke-width=".696" xlink:href="#D"/>
      </g>
      <g>
        <g stroke-linejoin="round" transform="scale(-1 1) rotate(-86 75.752 156.575)">
          <use fill="#F7FDFF" xlink:href="#E"/>
          <use fill="#000" filter="url(#F)" xlink:href="#E"/>
          <use stroke="#429CB5" stroke-width=".696" xlink:href="#E"/>
        </g>
        <g fill-rule="nonzero" stroke-linecap="round" transform="rotate(53 -163.483 175.368)">
          <use fill="#59D5FF" style="mix-blend-mode:multiply" xlink:href="#G"/>
          <use stroke="#429CB5" stroke-width=".696" xlink:href="#G"/>
        </g>
      </g>
      <g stroke-linejoin="round">
        <g stroke-linecap="round" transform="scale(-1 1) rotate(-44 120.768 257.076)">
          <use fill="#FFF" xlink:href="#H"/>
          <use fill="#000" filter="url(#I)" xlink:href="#H"/>
          <use stroke="#429CB5" stroke-width=".729" xlink:href="#H"/>
        </g>
        <g stroke-linecap="round" transform="rotate(42 -121.626 176.27)">
          <use fill="#98DAED" xlink:href="#J"/>
          <use fill="#000" filter="url(#K)" xlink:href="#J"/>
          <use stroke="#429CB5" stroke-width=".729" xlink:href="#J"/>
        </g>
        <g stroke-linecap="round" transform="scale(1 -1) rotate(73 187.177 -14.634)">
          <use fill="#FFF" xlink:href="#L"/>
          <use fill="#000" filter="url(#M)" xlink:href="#L"/>
          <use stroke="#429CB5" stroke-width=".729" xlink:href="#L"/>
        </g>
        <g transform="scale(1 -1) rotate(73 175.04 -8.714)">
          <use fill="#98DAED" xlink:href="#N"/>
          <use fill="#000" filter="url(#O)" xlink:href="#N"/>
          <use stroke="#429CB5" stroke-width=".729" xlink:href="#N"/>
        </g>
        <g stroke-linecap="round">
          <g transform="scale(-1 1) rotate(-81 27.584 149.508)">
            <use fill="#FFF" xlink:href="#P"/>
            <use fill="#000" filter="url(#Q)" xlink:href="#P"/>
            <use stroke="#429CB5" stroke-width=".729" xlink:href="#P"/>
          </g>
          <g transform="scale(-1 1) rotate(-36 153.017 269.97)">
            <use fill="#D7F1FA" xlink:href="#R"/>
            <use fill="#000" filter="url(#S)" xlink:href="#R"/>
            <use stroke="#429CB5" stroke-width=".729" xlink:href="#R"/>
          </g>
        </g>
      </g>
    </g>
    <g>
      <g fill-rule="nonzero" stroke="#429CB5">
        <path fill="#CEECF6" stroke-width="2.803" d="M371.858 137.09a6.096 6.096 0 0 0-3.044-5.384l-71.006-40.794a9.262 9.262 0 0 0-9.21 0l-102.516 58.525c-2.043 1.197-32.587 18.794-32.587 20.468v10.133c0 6.514 4.209 9.661 4.209 9.661l67.282 38.773a15.283 15.283 0 0 0 15.338-.04l128.49-73.437c2.043-1.197 3.044-3.23 3.044-5.304 0-2.034-.04-10.607 0-12.601z"/>
        <path fill="#FFF" stroke-width="1.053" d="M287.786 89.009l-132.082 76.325c-4.085 2.352-4.045 8.214 0 10.567l67.922 39.04a15.283 15.283 0 0 0 15.338-.04l128.999-74.53c4.085-2.353 4.045-8.215 0-10.568L296.997 89.01c-3.13-2.142-6.367-1.635-9.21 0z"/>
      </g>
      <g transform="translate(193.191 91.847)">
        <mask id="U" fill="#fff">
          <use xlink:href="#T"/>
        </mask>
        <path fill="#FFF" d="M103.62.606l68.173 39.36c.794.459.88 1.153.193 1.55L71.595 99.476c-.688.398-1.89.348-2.684-.11L.738 60.006c-.795-.459-.881-1.153-.193-1.55L100.936.496c.688-.398 1.89-.348 2.684.11" mask="url(#U)"/>
      </g>
      <g transform="translate(193.191 91.847)">
        <mask id="W" fill="#fff">
          <use xlink:href="#V"/>
        </mask>
        <path d="M103.62.606l68.173 39.36c.794.459.88 1.153.193 1.55L71.595 99.476c-.688.398-1.89.348-2.684-.11L.738 60.006c-.795-.459-.881-1.153-.193-1.55L100.936.496c.688-.398 1.89-.348 2.684.11z" mask="url(#W)"/>
      </g>
      <path stroke="#62DBFF" stroke-width=".54" d="M284.857 98.375l69.896 40.354M252.473 117.072l69.896 40.354"/>
      <g transform="translate(307.747 129.343)">
        <mask id="Y" fill="#fff">
          <use xlink:href="#X"/>
        </mask>
        <path fill="#D0F1FA" d="M13.874-4.86l25.857 14.929-22.392 12.928L-8.518 8.068z" mask="url(#Y)"/>
      </g>
      <g transform="translate(307.747 132.295)">
        <mask id="aa" fill="#fff">
          <use xlink:href="#Z"/>
        </mask>
        <path fill="#28CDFF" d="M14.074-7.697L39.731 7.116 17.339 20.044-8.319 5.231z" mask="url(#aa)"/>
      </g>
      <g transform="translate(313.06 132.295)">
        <mask id="ac" fill="#fff">
          <use xlink:href="#ab"/>
        </mask>
        <path fill="#53CCF0" d="M9.099-3.474L26.902 6.805l-15.417 8.901L-6.318 5.427z" mask="url(#ac)"/>
      </g>
      <g transform="translate(313.06 134.362)">
        <mask id="ae" fill="#fff">
          <use xlink:href="#ad"/>
        </mask>
        <path fill="#D5D5D5" d="M9.099-5.54L26.902 4.738l-15.417 8.901L-6.318 3.361z" mask="url(#ae)"/>
      </g>
      <g fill="#505152" font-family=".AppleSystemUIFont" font-size=".312">
        <text transform="translate(251.06 98.637)">
          <tspan x=".228" y="25.003">Team</tspan>
        </text>
        <text transform="translate(251.06 98.637)">
          <tspan x="43.076" y=".264">P</tspan> <tspan x="43.287" y=".264" letter-spacing="-.002">r</tspan> <tspan x="43.411" y=".264">ogress</tspan>
        </text>
      </g>
      <g transform="translate(281.765 105.133)">
        <mask id="ag" fill="#fff">
          <use xlink:href="#af"/>
        </mask>
        <path fill="#D0F1FA" d="M2.001-1.642L8.01 1.827 2.807 4.832l-6.009-3.47z" mask="url(#ag)"/>
      </g>
      <g transform="translate(274.384 109.562)">
        <mask id="ai" fill="#fff">
          <use xlink:href="#ah"/>
        </mask>
        <path fill="#B2D3DC" d="M1.909-1.756l6.009 3.469-5.204 3.004-6.008-3.469z" mask="url(#ai)"/>
      </g>
      <g transform="translate(266.707 113.99)">
        <mask id="ak" fill="#fff">
          <use xlink:href="#aj"/>
        </mask>
        <path fill="#55D7FD" d="M2.112-1.87l6.009 3.469-5.203 3.005-6.009-3.47z" mask="url(#ak)"/>
      </g>
      <g opacity=".414" transform="translate(238.069 130.229)">
        <mask id="am" fill="#fff">
          <use xlink:href="#al"/>
        </mask>
        <path fill="#55D7FD" d="M5.707-2.653L18.044 4.47 7.36 10.639-4.977 3.516z" mask="url(#am)"/>
      </g>
      <g opacity=".646" transform="translate(225.668 137.61)">
        <mask id="ao" fill="#fff">
          <use xlink:href="#an"/>
        </mask>
        <path fill="#55D7FD" d="M5.651-2.842L17.989 4.28 7.304 10.449-5.033 3.326z" mask="url(#ao)"/>
      </g>
      <g transform="translate(212.973 144.696)">
        <mask id="aq" fill="#fff">
          <use xlink:href="#ap"/>
        </mask>
        <path fill="#55D7FD" d="M5.891-2.737l12.338 7.123-10.684 6.168-12.338-7.123z" mask="url(#aq)"/>
      </g>
      <g transform="translate(304.499 153.258)">
        <mask id="as" fill="#fff">
          <use xlink:href="#ar"/>
        </mask>
        <path fill="#5BD8FF" d="M.769-1.397L4.822.943l-3.51 2.026-4.053-2.34z" mask="url(#as)"/>
      </g>
      <g transform="translate(307.451 155.03)">
        <mask id="au" fill="#fff">
          <use xlink:href="#at"/>
        </mask>
        <path fill="#5BD8FF" d="M.808-1.441L4.861.898l-3.51 2.027-4.053-2.34z" mask="url(#au)"/>
      </g>
      <g transform="translate(310.404 156.8)">
        <mask id="aw" fill="#fff">
          <use xlink:href="#av"/>
        </mask>
        <path fill="#5BD8FF" d="M.847-1.486L4.9.854 1.39 2.88-2.663.541z" mask="url(#aw)"/>
      </g>
      <g fill="#505152" font-family=".AppleSystemUIFont" font-size=".223">
        <text transform="translate(191.42 93.028)">
          <tspan x="62.952" y="44.56">Joh</tspan> <tspan x="63.362" y="44.56" letter-spacing="-.001">n</tspan> <tspan x="63.499" y="44.56"> Doe</tspan>
        </text>
        <text transform="translate(191.42 93.028)">
          <tspan x="25.419" y="29.166">Proje</tspan> <tspan x="26" y="29.166" letter-spacing="-.001">c</tspan> <tspan x="26.134" y="29.166">t Manager</tspan>
        </text>
        <text transform="translate(191.42 93.028)">
          <tspan x="14.956" y="35.202">Jane Doe</tspan>
        </text>
        <text transform="translate(191.42 93.028)">
          <tspan x="11.967" y="36.932">Proje</tspan> <tspan x="12.548" y="36.932" letter-spacing="-.001">c</tspan> <tspan x="12.682" y="36.932">t Manager</tspan>
        </text>
        <text transform="translate(191.42 93.028)">
          <tspan x="2.999" y="42.106">A</tspan> <tspan x="3.158" y="42.106" letter-spacing="-.001">l</tspan> <tspan x="3.222" y="42.106">an Smithee</tspan>
        </text>
        <text transform="translate(191.42 93.028)">
          <tspan x=".01" y="43.836">Proje</tspan> <tspan x=".591" y="43.836" letter-spacing="-.001">c</tspan> <tspan x=".725" y="43.836">t Manager</tspan>
        </text>
        <text transform="translate(191.42 93.028)">
          <tspan x="63.265" y=".004">Total 1</tspan>
        </text>
        <text transform="translate(191.42 93.028)">
          <tspan x="56.041" y="4.175">Total 2</tspan>
        </text>
        <text transform="translate(191.42 93.028)">
          <tspan x="48.319" y="8.633">Total 3</tspan>
        </text>
        <text transform="translate(191.42 93.028)">
          <tspan x="77.648" y="8.308">200</tspan>
        </text>
        <text transform="translate(191.42 93.028)">
          <tspan x="70.424" y="12.479">34</tspan>
        </text>
        <text transform="translate(191.42 93.028)">
          <tspan x="62.701" y="16.937">12</tspan>
        </text>
      </g>
      <g>
        <g stroke-linejoin="round" transform="scale(-1 1) rotate(-23 306.319 634.062)">
          <use fill="#C5E6F0" xlink:href="#ax"/>
          <use fill="#000" filter="url(#ay)" xlink:href="#ax"/>
          <use stroke="#429CB5" stroke-width=".696" xlink:href="#ax"/>
        </g>
        <g fill-rule="nonzero" stroke-linecap="round" transform="rotate(-10 1069.573 -1063.797)">
          <use fill="#CEECF6" style="mix-blend-mode:multiply" xlink:href="#az"/>
          <use stroke="#429CB5" stroke-width=".696" xlink:href="#az"/>
        </g>
        <g stroke-linecap="round" stroke-linejoin="round" transform="rotate(-172 139.579 88.07)">
          <use fill="#A1DFF0" xlink:href="#aA"/>
          <use fill="#000" filter="url(#aB)" xlink:href="#aA"/>
          <use stroke="#429CB5" stroke-width=".696" xlink:href="#aA"/>
        </g>
        <g transform="translate(162.326 95.64)">
          <use fill="#A1DFF0" xlink:href="#aC"/>
          <use fill="#000" filter="url(#aD)" xlink:href="#aC"/>
          <use stroke="#429CB5" stroke-width=".696" xlink:href="#aC"/>
        </g>
        <g stroke-linejoin="round" transform="scale(-1 1) rotate(63 -205.596 -109.806)">
          <use fill="#EDFAFF" xlink:href="#aE"/>
          <use fill="#000" filter="url(#aF)" xlink:href="#aE"/>
          <use stroke="#429CB5" stroke-width=".696" xlink:href="#aE"/>
        </g>
        <path fill="#429DB8" stroke="#429CB5" stroke-linejoin="round" stroke-width=".696" d="M219.305 157.875c2.72.007-12.87 6.025-9.935 10.674 2.749 4.353-4.983-1.57-1.143-.752 3.84.819 5.99.5 8.623-.845 5.111-2.61 14.466-5.98 14.45-12.367-.008-3.426-4.283-3.731-6.333-4.324-2.777-.803-6.26-.925-9.77-.727-.424.024-3.423-.928-3.761-.863-6.908 1.332-10.311 5.391-8.969 9.746 1.423 4.616 4.016 4.165 8.997 1.973 1.851-.814 7.257-2.516 7.841-2.515z"/>
        <g stroke-linejoin="round">
          <path fill="#CEECF6" stroke="#429CB5" stroke-width=".696" d="M227.9 158.437c1.081-1.332 2.176-1.29 3.282.126 1.66 2.124.615 1.775 1.22 2.548 1.358 1.74.659.397 2.067 1.965 1.312 1.461 2.32 2.952 3.026 4.474a1.67 1.67 0 0 1-.849 2.234 1.84 1.84 0 0 1-2.306-.733l-6.44-10.614z"/>
          <g transform="rotate(-122 163.578 24.833)">
            <use fill="#C5E6F0" xlink:href="#aG"/>
            <use fill="#000" filter="url(#aH)" xlink:href="#aG"/>
            <use stroke="#429CB5" stroke-width=".696" xlink:href="#aG"/>
          </g>
        </g>
        <g stroke-linecap="round" stroke-linejoin="round" transform="scale(-1 1) rotate(-8 602.695 2005.82)">
          <use fill="#429DB8" xlink:href="#aI"/>
          <use fill="#000" filter="url(#aJ)" xlink:href="#aI"/>
          <use stroke="#429CB5" stroke-width=".696" xlink:href="#aI"/>
        </g>
        <path fill="#A1DFF0" stroke="#429CB5" stroke-linecap="round" stroke-linejoin="round" stroke-width=".696" d="M222.985 146.089c.121.048 2.764 2.929 2.928 2.997 1.965-.384 3.146-.384 3.541 0 1.094 1.06-1.14.855-.78 1.472.325.558 1.144.868 1.794 1.608.325.37.459 1.97.615 2.64.23.992.177 1.098-.765 1.73-.986.663-.952.253-2.688-1.257-.597-.52-2.178-1.315-2.348-2.047-.17-.732-.741-1.28-1.03-1.676-.445-.61-1.014-.35-1.881-.998-.868-.648-3.278-1.673-3.392-1.96"/>
        <path fill="#FFF" stroke="#429CB5" stroke-linecap="round" stroke-linejoin="round" stroke-width=".648" d="M228.048 147.81l3.556 5.297-1.392 19.39-3.536-5.059z"/>
        <path fill="#FFF" stroke="#429CB5" stroke-linecap="round" stroke-linejoin="round" stroke-width=".583" d="M225.01 148.009l6.173 4.913-1.35 16.483-6.014-3.559z"/>
        <path fill="#FFF" stroke="#429CB5" stroke-linecap="round" stroke-linejoin="round" stroke-width=".583" d="M222.848 149.229l8.335 3.693-1.35 16.483-8.176-2.34z"/>
        <path fill="#91E6FE" stroke="#429CB5" stroke-linecap="round" stroke-linejoin="round" stroke-width=".648" d="M219.148 158.666l.606-8.667 11.665 2.892-1.365 19.518-11.673-2.782z"/>
        <g stroke-linejoin="round" transform="matrix(-1 0 0 1 251.967 95.64)">
          <use fill="#D3F3FF" xlink:href="#aK"/>
          <use fill="#000" filter="url(#aL)" xlink:href="#aK"/>
          <use stroke="#429CB5" stroke-width=".696" xlink:href="#aK"/>
        </g>
        <g transform="scale(1 -1) rotate(75 229.476 59.595)">
          <use fill="#A1DFF0" xlink:href="#aM"/>
          <use fill="#000" filter="url(#aN)" xlink:href="#aM"/>
          <use stroke="#429CB5" stroke-width=".765" xlink:href="#aM"/>
        </g>
        <g>
          <g transform="scale(-1 1) rotate(-33 79.486 432.584)">
            <use fill="#A1DFF0" xlink:href="#aO"/>
            <use fill="#000" filter="url(#aP)" xlink:href="#aO"/>
            <use stroke="#429CB5" stroke-width=".696" xlink:href="#aO"/>
          </g>
          <g transform="scale(-1 1) rotate(-61 -4.915 242.196)">
            <use fill="#429DB8" xlink:href="#aQ"/>
            <use fill="#000" filter="url(#aR)" xlink:href="#aQ"/>
            <use stroke="#429CB5" stroke-width=".2" xlink:href="#aQ"/>
          </g>
          <g transform="rotate(-57 213.145 -135.347)">
            <use fill="#429DB8" xlink:href="#aS"/>
            <use fill="#000" filter="url(#aT)" xlink:href="#aS"/>
            <use stroke="#429CB5" stroke-width=".2" xlink:href="#aS"/>
          </g>
          <g transform="rotate(93 52.974 159.772)">
            <use fill="#429DB8" xlink:href="#aU"/>
            <use fill="#000" filter="url(#aV)" xlink:href="#aU"/>
            <use stroke="#429CB5" stroke-width=".2" xlink:href="#aU"/>
          </g>
        </g>
        <g stroke="#429CB5" stroke-linecap="round" stroke-width=".766" transform="scale(-1 1) rotate(2 -3369.457 -6105.678)">
          <ellipse cx="7.352" cy="2.603" fill="#FFF" fill-opacity=".54" stroke-linejoin="round" rx="2.058" ry="2.025"/>
          <ellipse cx="1.764" cy="1.736" fill="#FFF" fill-opacity=".54" stroke-linejoin="round" rx="1.764" ry="1.736"/>
          <path d="M3.645 2.016c.013-.54.26-.788.74-.744.481.044.755.29.823.738M9.406 1.922h2.703"/>
        </g>
        <g stroke-linecap="round" stroke-linejoin="round" transform="translate(162.326 95.64)">
          <use fill="#429CB5" xlink:href="#aW"/>
          <use fill="#000" filter="url(#aX)" xlink:href="#aW"/>
          <use stroke="#429CB5" stroke-width=".582" xlink:href="#aW"/>
        </g>
        <g>
          <g stroke-linejoin="round" transform="rotate(-68 273.764 -67.49)">
            <use fill="#F7FDFF" xlink:href="#aY"/>
            <use fill="#000" filter="url(#aZ)" xlink:href="#aY"/>
            <use stroke="#429CB5" stroke-width=".731" xlink:href="#aY"/>
          </g>
          <g fill-rule="nonzero" stroke-linecap="round" transform="scale(-1 1) rotate(35 -434.808 -299.644)">
            <use fill="#59D5FF" style="mix-blend-mode:multiply" xlink:href="#ba"/>
            <use stroke="#429CB5" stroke-width=".731" xlink:href="#ba"/>
          </g>
          <g>
            <g stroke-linejoin="round" transform="rotate(63 -6.392 273.947)">
              <use fill="#30C1EB" xlink:href="#bb"/>
              <use fill="#000" filter="url(#bc)" xlink:href="#bb"/>
              <use stroke="#429CB5" stroke-width=".696" xlink:href="#bb"/>
            </g>
            <path fill="#DEF8FF" stroke="#429CB5" stroke-width=".696" d="M227.56 183.231c.013.311-.546.457-.06 1.125.895 1.23 1.007-1.013 1.567-.572.506.4.697 1.255 1.338 2 .32.374 1.886.727 2.527.974.948.366 1.061.327 1.82-.52.794-.887-2.74-1.919-3.989-3.849-.43-.664 3.63-.53 3.857-.785.097-.108.305-2.48 2.046-4.686.99-1.255-.629-1.06-.225-2.476.141-.494.239-6.02.684-6.674.515-.756.389 2.034 1.581.084.878-1.434 1.478-2.565 1.813-3.506.856-2.407-.403-.776 1.011-.993 2.234-.342-.746-1.815-1.342-2.287-.094-.072-2.342.918-2.508.98-.833.316-1.673 1.113-2.699 2.858-.728 1.238-2.012 10.971-2.16 11.36-.578 1.509-5.3 5.975-5.26 6.967z"/>
            <g transform="matrix(-1 0 0 1 262.636 136.95)">
              <use fill="#DEF8FF" xlink:href="#bd"/>
              <use fill="#000" filter="url(#be)" xlink:href="#bd"/>
              <use stroke="#429CB5" stroke-width=".696" xlink:href="#bd"/>
            </g>
            <g stroke-linecap="round" stroke-linejoin="round" transform="translate(228.41 136.95)">
              <use fill="#EDFAFF" xlink:href="#bf"/>
              <use fill="#000" filter="url(#bg)" xlink:href="#bf"/>
              <use stroke="#429CB5" stroke-width=".57" xlink:href="#bf"/>
            </g>
            <path fill="#429DB8" stroke="#429CB5" stroke-linejoin="round" stroke-width=".54" d="M239.282 147.38c-.183-.17.907-1.279 1.756-.939.269.108.572.479.815.869a2.83 2.83 0 0 1 .368 1.024c-.097.104-.094-.918-1.455-1.43-1.212-.456-1.278.67-1.484.477z"/>
            <g stroke-linejoin="round" transform="scale(-1 1) rotate(-32 137.165 580.567)">
              <use fill="#49B6D7" xlink:href="#bh"/>
              <use fill="#000" filter="url(#bi)" xlink:href="#bh"/>
              <use stroke="#429CB5" stroke-width=".696" xlink:href="#bh"/>
            </g>
            <g stroke-linejoin="round">
              <path fill="#31CCFF" stroke="#429CB5" stroke-width=".849" d="M248.31 225.996c1.844.9 2.088 2.188.733 3.861-2.033 2.51-1.905 1.199-2.645 2.112-1.665 2.056-.287.877-1.74 2.944-1.353 1.926-2.823 3.507-4.41 4.743a1.993 1.993 0 0 1-2.827-.388 2.2 2.2 0 0 1 .233-2.884l10.657-10.388z"/>
              <g transform="rotate(-45 393.3 -157.794)">
                <use fill="#FFF" xlink:href="#bj"/>
                <use fill="#000" filter="url(#bk)" xlink:href="#bj"/>
                <use stroke="#429CB5" stroke-width=".849" xlink:href="#bj"/>
              </g>
            </g>
            <g stroke-linecap="round" stroke-linejoin="round" transform="scale(-1 1) rotate(-89 -40.756 269.82)">
              <use fill="#49B6D7" xlink:href="#bl"/>
              <use fill="#000" filter="url(#bm)" xlink:href="#bl"/>
              <use stroke="#429CB5" stroke-width=".696" xlink:href="#bl"/>
            </g>
            <g stroke-linejoin="round" transform="translate(227.654 136.95)">
              <use fill="#52C4E5" xlink:href="#bn"/>
              <use fill="#000" filter="url(#bo)" xlink:href="#bn"/>
              <use stroke="#429CB5" stroke-width=".696" xlink:href="#bn"/>
            </g>
            <g transform="scale(-1 1) rotate(3 -2740.184 -4899.86)">
              <use fill="#DEF8FF" xlink:href="#bp"/>
              <use fill="#000" filter="url(#bq)" xlink:href="#bp"/>
              <use stroke="#429CB5" stroke-width=".551" xlink:href="#bp"/>
            </g>
          </g>
          <g fill-rule="nonzero" transform="translate(176.03 136.95)">
            <use fill="#EDFAFF" xlink:href="#br"/>
            <use fill="#000" filter="url(#bs)" xlink:href="#br"/>
            <use stroke="#429CB5" stroke-width=".54" xlink:href="#br"/>
          </g>
          <path fill="#DEF8FF" fill-rule="nonzero" stroke="#429CB5" stroke-width=".567" d="M250.5 147.817c.548-1.088-.077-2.42-.589-2.42-.511 0-.992-.024-1.34 1.272-.17.635-.49 2.375-.136 2.783.354.409 1.517-.547 2.065-1.635z"/>
        </g>
      </g>
    </g>
    <g stroke="#429CB5" stroke-linecap="round" stroke-linejoin="round">
      <g fill="#FFF" stroke-width=".683">
        <path d="M178.742 180.492V180.794c0 .05 0 .101.05.101l.099.1c.05.051.099.051.099.101.05.05.099.05.099.101l7.98 4.684v-.504l1.734-1.057-2.528-1.511v-.202l-.149.101-3.42-2.014v-1.21l1.587-.956.347.201v-.453l.545-.302 1.09-.604 1.883-1.108.447.251v-.554l1.585-.956.347.201v-.403l1.586-.957 1.685.957v.353l.298-.202 1.685.957v.353l.297-.202 1.685 1.007v.353l.298-.201 1.685 1.007v.352l.297-.201 1.685.957v.352l.297-.201 1.686.957v.352l.297-.201 1.685 1.007v.353l.297-.202 1.685.957v.353l.298-.202 1.685.957v1.209l-.942.554.397.251v-.402l1.586-.957 1.685.957v1.208l-1.586.957-.347-.201v.403l-1.586.957-.347-.202v.403l-1.586.957-.347-.202v.403l-1.586.957-.347-.201v.453l-1.586.957-3.519-2.065v-.252l-.198.1-2.577-1.51v-.302l-.248.151-.941-.554v.453l-1.735 1.058 6.492 3.777c.05.05.15.05.199.1.099 0 .148.051.198.051.05 0 .099 0 .149.05.05 0 .148 0 .198.05h.595c.148 0 .198 0 .297-.05.099 0 .198-.05.248-.05.099-.05.148-.05.248-.1l12.092-7.152c.298-.151.446-.403.446-.604v1.208c0 .202-.148.454-.446.605l-12.092 7.151c-.05.05-.15.1-.199.1-.05 0-.099.051-.148.051h-1.091c-.099 0-.148 0-.198-.05-.1 0-.149 0-.149-.05-.099-.05-.198-.05-.247-.101l-21.014-12.34c-.05-.05-.05-.05-.1-.05-.049-.05-.098-.05-.098-.1l-.1-.1c-.05-.051-.05-.102-.05-.102v-.1-.101c-.346-.151-.346-.554-.346-.957z"/>
        <path d="M179.188 179.888l12.093-7.152c.545-.352 1.487-.352 2.081 0l21.014 12.34c.595.352.595.906 0 1.208l-12.093 7.151c-.545.353-1.487.353-2.081 0l-21.014-12.339c-.545-.352-.545-.856 0-1.208z"/>
        <path d="M193.065 176.664l-1.586.907 1.636 1.007 1.635-.957zM190.488 177.47l-1.586.907 1.636 1.007 1.635-.957z"/>
        <path d="M188.208 176.211l-1.883 1.108-1.09.605-.496.302 2.775 1.662 1.636-.957-.892-.504 1.883-1.057zM192.37 178.528l-1.585.957 1.636 1.007 1.635-.957zM184.343 178.478l-1.586.906 3.419 2.065 1.586-.957zM187.96 180.593l-1.635.906 2.627 1.561 1.586-.956zM193.065 181.298l-1.586.906 1.636 1.008 1.635-.957zM192.223 173.844l-1.586.957 1.635.957 1.636-.957zM194.205 175.002l-1.586.957 1.636.957 1.635-.957zM190.24 175.002l-1.586.907 2.577 1.561 1.586-.957zM196.188 176.161l-1.586.957 1.635.957 1.636-.907zM198.17 177.32l-1.586.956 1.636 1.007 1.585-.957zM194.949 177.772l-1.586.907 1.635 1.007 1.636-.957zM200.152 178.528l-1.635.906 1.685 1.008 1.635-.957zM196.832 178.88l-1.586.957 1.685.957 1.586-.957zM189.348 179.082l-1.586.957 1.636.957 1.635-.957zM202.135 179.686l-1.636.957 1.685.957 1.586-.957zM194.255 179.636l-1.636.957 1.685 1.007 1.586-.957zM198.765 179.988l-1.636.957 1.685.957 1.586-.906zM191.23 180.19l-1.634.957 1.685.957 1.586-.957zM196.138 180.744l-1.636.957 1.686 1.007 1.585-.957zM204.117 180.845l-1.635.956 1.685.957 1.586-.957zM200.648 181.096l-1.635.957 1.685 1.007 1.586-.956zM197.972 181.852l-1.586.957 1.685.957 1.586-.907zM206.1 182.003l-1.636.957 1.685.957 1.586-.907zM202.53 182.204l-1.585.957 1.636 1.007 1.635-.956zM194.998 182.406l-1.586.957 1.636.957 1.635-.907zM199.855 182.96l-1.586.957 1.636.957 1.635-.907zM208.082 183.161l-1.635.957 1.685 1.007 1.586-.957zM204.415 183.363l-1.586.906 1.635 1.007 1.636-.956zM196.832 183.514l-1.586.957 1.685.957 1.586-.957zM201.738 184.068l-1.586.957 1.636.957 1.635-.907zM198.715 184.622l-1.586.957 1.636.957 1.635-.957zM210.808 184.773l-1.586.957 1.636 1.007 1.635-.957zM203.622 185.176l-1.636.957 1.685.956 1.586-.956zM190.736 182.204l-1.636.957 7.335 4.331 1.586-.956zM200.598 185.73l-1.635.906 1.685 1.007 1.586-.956zM206.397 184.521l-1.586.957 4.064 2.417 1.636-.957zM189.497 183.866l-2.38 1.41 5.998 3.475 2.329-1.359zM205.505 186.284l-1.636.957 3.073 1.762 1.586-.906zM198.269 186.687l-1.635.906 2.626 1.561 1.586-.957zM202.482 186.838l-1.636.906 4.114 2.418 1.635-.907zM201.045 188.298l-1.586.957 3.518 2.065 1.636-.907z"/>
      </g>
      <path fill="#FFF" stroke-width=".54" d="M178.97 162.266c.148-.1.247-.15.347-.201l.297-.151c.198-.1.446-.1.743.05l21.014 12.34c.595.352 1.04 1.157 1.04 1.812l-.049 16.632c0 .353-.099.554-.297.655l-.743.453c.198-.1.297-.352.297-.654l.05-16.633c0-.654-.447-1.46-1.041-1.813l-21.014-12.338c-.297-.152-.545-.202-.743-.05l.099-.102z"/>
      <path fill="#CEECF6" stroke-width=".74" d="M179.537 163.073c-.595-.352-1.04-.05-1.04.605l-.05 15.822c0 .655.446 1.51 1.04 1.813l21.014 12.339c.595.352 1.041.05 1.041-.604l.05-15.823c0-.654-.446-1.46-1.041-1.813l-21.014-12.339z"/>
    </g>
  </g>
</svg>