<svg xmlns="http://www.w3.org/2000/svg" xmlns:xlink="http://www.w3.org/1999/xlink" width="400" height="350">
  <defs>
    <path id="a" d="M13.108 51.565c-2.017 1.74-1.162.037.56-2 .417-.492.94-.937 1.421-1.435 1.197-1.238 1.529-1.563 1.941-1.712.359-.13 2.895-1.052 3.525-1.375 3.31-1.697 7.081-3.849 8.755-3.292.118.04 3.982-2.418 6.462-3.919 2.008-1.215 2.6-1.444 3.24-1.896 1.43-1.011 3.86 3.508 3.782 4.09-.112.735-5.178 3.855-9.56 4.836-2.367.53-2.086 1.693-3.527 1.226-2.875-.933-4.969-.636-7.796.407-.222.082-.681.41-1.008.915-.324.499-.513 1.172-1.15 1.76-.56.515-1.307 1.376-1.867 1.733-.346.22-1.195.624-1.707.94-.512.317-1.578.278-1.657.05-.08-.232.61-.628 1.134-.973.426-.28.702-.551.683-.48-.087.318-.196-.413-.226-.447-.11-.123-.195-.001-.625.125-.325.095-.74-.031-1.159.297-.541.425-1.106 1.051-1.221 1.15z"/>
    <filter id="b" width="112.2%" height="122.8%" x="-6.1%" y="-11.4%" filterUnits="objectBoundingBox">
      <feOffset dx="-3" dy="3" in="SourceAlpha" result="shadowOffsetInner1"/>
      <feComposite in="shadowOffsetInner1" in2="SourceAlpha" k2="-1" k3="1" operator="arithmetic" result="shadowInnerInner1"/>
      <feColorMatrix in="shadowInnerInner1" values="0 0 0 0 0.631372549 0 0 0 0 0.874509804 0 0 0 0 0.941176471 0 0 0 1 0"/>
    </filter>
    <path id="c" d="M8.291 46.407c-3.751 2.546-5.912 3.234-7.004 5.6-1.092 2.367-.592 3.41 1.169 4.187 1.76.776 3.622-.065 5.513-1.143 1.26-.719 3.513-2.102 6.756-4.15.94-1.245.716-2.874-.675-4.886-2.085-3.018-2.007-2.155-5.759.392z"/>
    <filter id="d" width="125.8%" height="130.3%" x="-12.9%" y="-15.1%" filterUnits="objectBoundingBox">
      <feOffset dx="3" dy="2" in="SourceAlpha" result="shadowOffsetInner1"/>
      <feComposite in="shadowOffsetInner1" in2="SourceAlpha" k2="-1" k3="1" operator="arithmetic" result="shadowInnerInner1"/>
      <feColorMatrix in="shadowInnerInner1" values="0 0 0 0 0.838482481 0 0 0 0 0.95962062 0 0 0 0 1 0 0 0 0.886379076 0"/>
    </filter>
    <path id="e" d="M17.967 51.082c-3.75 2.546-5.912 3.234-7.004 5.6-1.092 2.367-.592 3.411 1.169 4.187 1.761.777 3.622-.064 5.513-1.143 1.26-.718 3.513-2.102 6.756-4.15.941-1.245.716-2.873-.674-4.885-2.086-3.019-2.008-2.155-5.76.391z"/>
    <filter id="f" width="125.8%" height="130.3%" x="-12.9%" y="-15.1%" filterUnits="objectBoundingBox">
      <feOffset dx="3" dy="2" in="SourceAlpha" result="shadowOffsetInner1"/>
      <feComposite in="shadowOffsetInner1" in2="SourceAlpha" k2="-1" k3="1" operator="arithmetic" result="shadowInnerInner1"/>
      <feColorMatrix in="shadowInnerInner1" values="0 0 0 0 0.838482481 0 0 0 0 0.95962062 0 0 0 0 1 0 0 0 0.886379076 0"/>
    </filter>
    <path id="g" d="M21.063 27.433c10.028 0-1.232-2.723-1.232-5.959 0-.561.795-3.847.394-4.208-1.91-1.718-8.345 1.556-7.084 3.08 2.238 2.705-1.883 2.882-1.787 4.29.09 1.298 3.095 2.797 9.71 2.797z"/>
    <filter id="h" width="127.1%" height="135.3%" x="-13.5%" y="-17.6%" filterUnits="objectBoundingBox">
      <feOffset dy="3" in="SourceAlpha" result="shadowOffsetInner1"/>
      <feComposite in="shadowOffsetInner1" in2="SourceAlpha" k2="-1" k3="1" operator="arithmetic" result="shadowInnerInner1"/>
      <feColorMatrix in="shadowInnerInner1" values="0 0 0 0 0.839215686 0 0 0 0 0.952941176 0 0 0 0 0.988235294 0 0 0 1 0"/>
    </filter>
    <path id="i" d="M14.466 12.258c.03.062 2.217 9.601 2.9 10.62.607.906 3.137-1.742 3.425-2.2.886-1.405-3.176-13.355-3.17-13.508.048-1.085-5.886-11.286-6.531-10.919-.853.486-2.604 4.485-1.61 6.617 1.806 3.87 4.396 8.126 4.986 9.39z"/>
    <filter id="j" width="132%" height="114%" x="-16%" y="-7%" filterUnits="objectBoundingBox">
      <feOffset dx="3" dy="-2" in="SourceAlpha" result="shadowOffsetInner1"/>
      <feComposite in="shadowOffsetInner1" in2="SourceAlpha" k2="-1" k3="1" operator="arithmetic" result="shadowInnerInner1"/>
      <feColorMatrix in="shadowInnerInner1" values="0 0 0 0 0.75865379 0 0 0 0 0.933113853 0 0 0 0 0.99957483 0 0 0 1 0"/>
    </filter>
    <path id="k" d="M6.93 31.727c-.053 1.285.756 7.277.357 9.357-.398 2.08-1.879 4.905-2.028 5.492-.73 2.879-2.839 2.45 1.68 5.055 2.083 1.201 4.647 2.68 7.913 3.558 3.817 1.026 10.463.912 10.463-.042 0-1.04.487-5.785.482-9.251-.005-3.466.207-4.277.389-5.29.88-4.91 1.574-3.923 2.235-5.18.27-.513-.523-.626-.36-2.33.114-1.188 2.87-3.391 2.359-4.5-.797-1.73-4.99-4.75-7.371-5.183-2.095-.38-2.7 1.33-3.47 2.003-1.982 1.731-2.59 1.843-4.885 1.576-2.295-.267-1.53-2.183-1.78-2.874-.104-.286-.57.502-1.026.734-.915.465-3.198 1.309-3.785 2.242-.588.934-1.119 3.349-1.172 4.633z"/>
    <filter id="l" width="106.7%" height="105.4%" x="-3.3%" y="-2.7%" filterUnits="objectBoundingBox">
      <feOffset dx="1" dy="1" in="SourceAlpha" result="shadowOffsetInner1"/>
      <feComposite in="shadowOffsetInner1" in2="SourceAlpha" k2="-1" k3="1" operator="arithmetic" result="shadowInnerInner1"/>
      <feColorMatrix in="shadowInnerInner1" values="0 0 0 0 0.781841856 0 0 0 0 0.939818443 0 0 0 0 1 0 0 0 1 0"/>
    </filter>
    <path id="m" d="M7.662 19.37c-.52-2.25-1.075-8.746-1.588-10.456-.078-.26.765-1.263.721-2.693-.018-.614.435-.956.914-1.097.636-.187 1.262.05 2.2.152.599.065-.027 1.033.184 1.637.389 1.111.498-1.785 1.246-1.563 1.089.323.747 1.514-1.02 3.902-.233.316-.63.891-.906 1.225-.278.34 1.709 6.76 1.805 6.966 1.242 2.622 1.583 4.833 2.684 5.739 1.402 1.154 5.659 1.76 6.192 1.897 1.816.468 4.925 1.819 5.849 2.277 2.361 1.172.245 1.558 1.451.705 1.904-1.346.656 2.883.55 3.66-.228 1.508-13.318-1.662-17.218-4.757-2.405-1.909-2.399-4.711-3.064-7.594z"/>
    <filter id="n" width="116.8%" height="113.9%" x="-8.4%" y="-6.9%" filterUnits="objectBoundingBox">
      <feOffset dy="3" in="SourceAlpha" result="shadowOffsetInner1"/>
      <feComposite in="shadowOffsetInner1" in2="SourceAlpha" k2="-1" k3="1" operator="arithmetic" result="shadowInnerInner1"/>
      <feColorMatrix in="shadowInnerInner1" values="0 0 0 0 0.839215686 0 0 0 0 0.952941176 0 0 0 0 0.988235294 0 0 0 1 0"/>
    </filter>
    <path id="o" d="M9.892 9.36c-.148 1.255-.26 2.463-.226 4.949.041 3.085.871 6.809 1.673 7.62.241.245 7.027 4.996 9.557 6.352 3.763 2.015 2.965-1.76 3.89-2.023 1.032-.293-7.773-7.665-8.86-8.65-.594-.537 1.05-6.507 1.315-7.668a49.35 49.35 0 0 0 .722-3.978c.113-.782.015-1.68.006-2.418-.027-2.293-2.057-3.653-4.122-4.098-3.805-.821-3.76 8.27-3.955 9.913z"/>
    <filter id="p" width="124.7%" height="112.7%" x="-12.3%" y="-6.4%" filterUnits="objectBoundingBox">
      <feOffset dx="-3" dy="-2" in="SourceAlpha" result="shadowOffsetInner1"/>
      <feComposite in="shadowOffsetInner1" in2="SourceAlpha" k2="-1" k3="1" operator="arithmetic" result="shadowInnerInner1"/>
      <feColorMatrix in="shadowInnerInner1" values="0 0 0 0 0.682548138 0 0 0 0 0.912427072 0 0 0 0 1 0 0 0 0.876670063 0"/>
    </filter>
    <path id="q" d="M13.576 17.712c1.73-.542 4.444-.614 5.638-4.43 1.02-3.258-.498-6.52-2.848-8.389-1.415-1.125-4.096-1.64-6.576-.61-1.834.761-3.782 2.1-3.782 3.367 0 1.266-2.201 1.21-3.088 3.168-.514 1.136-.227 2.922.45 4.21.488.93 1.207 1.45 1.844 1.986 1.422 1.194 6.35 1.329 8.362.698z"/>
    <filter id="r" width="122.3%" height="126.2%" x="-11.1%" y="-13.1%" filterUnits="objectBoundingBox">
      <feOffset dy="3" in="SourceAlpha" result="shadowOffsetInner1"/>
      <feComposite in="shadowOffsetInner1" in2="SourceAlpha" k2="-1" k3="1" operator="arithmetic" result="shadowInnerInner1"/>
      <feColorMatrix in="shadowInnerInner1" values="0 0 0 0 0.839215686 0 0 0 0 0.952941176 0 0 0 0 0.988235294 0 0 0 1 0"/>
    </filter>
    <path id="s" d="M19.538 9.548c-3.087-2.02-5.76-3.082-8.022-3.183-3.39-.152-2.39.817-2.67 1.229-.499.735-.828 2.05-.654 3.374.093.711.934 1.26.62 2.094-.185.49-.873-1.915-2.776-1.014-.545.258-1.162 1.109-.517 2.276.328.593 1.717 1.965 2.227 2.803.347.572-.197.503-.236.569-.219.37-.517-.183-1.202-.876-1.143-1.155-2.606-3.542-2.914-4.577-.492-1.657-.093-3.617.875-5.06.587-.875.907-1.89 2.077-2.503.762-.399 2.413-.506 2.92-.705 1.284-.508 2.983-1.173 6.524.207 1.27.495 2.52 2.284 3.748 5.366z"/>
    <filter id="t" width="1352%" height="1516.7%" x="-626%" y="-708.3%" filterUnits="objectBoundingBox">
      <feOffset dx="204" dy="155" in="SourceAlpha" result="shadowOffsetInner1"/>
      <feComposite in="shadowOffsetInner1" in2="SourceAlpha" k2="-1" k3="1" operator="arithmetic" result="shadowInnerInner1"/>
      <feColorMatrix in="shadowInnerInner1" values="0 0 0 0 0.261539134 0 0 0 0 0.660968329 0 0 0 0 0.794111395 0 0 0 0.209805254 0"/>
    </filter>
    <ellipse id="u" cx="1.555" cy="1.555" rx="1.555" ry="1.555"/>
    <filter id="v" width="670.8%" height="670.8%" x="-285.4%" y="-285.4%" filterUnits="objectBoundingBox">
      <feOffset dx="5" dy="17" in="SourceAlpha" result="shadowOffsetInner1"/>
      <feComposite in="shadowOffsetInner1" in2="SourceAlpha" k2="-1" k3="1" operator="arithmetic" result="shadowInnerInner1"/>
      <feColorMatrix in="shadowInnerInner1" values="0 0 0 0 0.921568627 0 0 0 0 0.968627451 0 0 0 0 0.984313725 0 0 0 0.661911232 0"/>
    </filter>
    <path id="w" d="M16.606 50.69c-3.816 2.571-6.014 3.266-7.125 5.655-1.11 2.39-.603 3.443 1.19 4.227 1.79.784 3.684-.065 5.607-1.154 1.283-.726 3.574-2.122 6.873-4.19.957-1.257.729-2.902-.686-4.933-2.122-3.048-2.043-2.176-5.859.395z"/>
    <filter id="x" width="126.1%" height="130.9%" x="-13%" y="-15.4%" filterUnits="objectBoundingBox">
      <feOffset dx="3" dy="2" in="SourceAlpha" result="shadowOffsetInner1"/>
      <feComposite in="shadowOffsetInner1" in2="SourceAlpha" k2="-1" k3="1" operator="arithmetic" result="shadowInnerInner1"/>
      <feColorMatrix in="shadowInnerInner1" values="0 0 0 0 0.838482481 0 0 0 0 0.95962062 0 0 0 0 1 0 0 0 0.886379076 0"/>
    </filter>
    <path id="y" d="M7.711 46.843C3.895 49.414 1.697 50.11.586 52.498c-1.11 2.39-.603 3.444 1.189 4.227 1.791.784 3.684-.065 5.608-1.154 1.283-.725 3.573-2.122 6.873-4.19.957-1.257.728-2.901-.686-4.933-2.122-3.048-2.043-2.176-5.859.395z"/>
    <filter id="z" width="126.1%" height="130.9%" x="-13%" y="-15.4%" filterUnits="objectBoundingBox">
      <feOffset dx="3" dy="2" in="SourceAlpha" result="shadowOffsetInner1"/>
      <feComposite in="shadowOffsetInner1" in2="SourceAlpha" k2="-1" k3="1" operator="arithmetic" result="shadowInnerInner1"/>
      <feColorMatrix in="shadowInnerInner1" values="0 0 0 0 0.838482481 0 0 0 0 0.95962062 0 0 0 0 1 0 0 0 0.886379076 0"/>
    </filter>
    <path id="A" d="M9.796 8.152c.714-2.303 3.785-4.359 3.785 1.12 0 1.555.557-11.147.703-9.034.095 1.375-1.966 4.23-.824 8.857.055.22.106.444.156.669 5.899 1.498 7.612-3.1 10.19-1.765.838.434.553 3.509-.114 6.738-.091 6.492-2.07 11.06-2.188 16.46-.056 2.603.831 5.476.986 7.094.28 2.941 1.977 14.17.309 13.923-1.843-.274-1.538.144-4.283-.886-1.937-.726-1.299-.585-1.603-1.827-.406-1.658-1.023-7.895-1.4-10.23-.7-4.33-1.125-5.076-1.58-8.277-.158-1.102.814-7.943.468-14.874-.389-.404-.763-.789-1.111-1.142.264 1.65.288 3.855-.05 6.797-.432 3.755-1.173 4.515-.931 9.646.142 3.014 2.842 12.288 2.266 15.256-.327 1.685-2.364 1.125-4.49.675-.173-.037-1.571-.782-2.094-1.638-.455-.744-.448-4.99-.698-6.386-.555-3.1-1.111-5.842-1.346-8.854-.354-4.525-.763-4.973-.814-11.989-.01-1.234-.018-2.285-.02-3.18-.186-4.26-.192-10.996.446-11.461 2.212-1.612-.337 1.498 4.237 4.308z"/>
    <filter id="B" height="107.4%" y="-3.7%" filterUnits="objectBoundingBox">
      <feOffset dx="3" dy="-2" in="SourceAlpha" result="shadowOffsetInner1"/>
      <feComposite in="shadowOffsetInner1" in2="SourceAlpha" k2="-1" k3="1" operator="arithmetic" result="shadowInnerInner1"/>
      <feColorMatrix in="shadowInnerInner1" values="0 0 0 0 0.614745754 0 0 0 0 0.808332638 0 0 0 0 0.882201318 0 0 0 1 0"/>
    </filter>
    <path id="C" d="M46.146 35.973c10.2 0-1.254-2.75-1.254-6.017 0-3.266 1.304-4.8-4.405-5.608-.428-.06 1.244-.01.914-.01-4.064.002-1.113 4.337-3.525 5.94-4.678 3.108-5.747 5.695 8.27 5.695z"/>
    <filter id="D" width="124.7%" height="133.2%" x="-12.4%" y="-16.6%" filterUnits="objectBoundingBox">
      <feOffset dy="3" in="SourceAlpha" result="shadowOffsetInner1"/>
      <feComposite in="shadowOffsetInner1" in2="SourceAlpha" k2="-1" k3="1" operator="arithmetic" result="shadowInnerInner1"/>
      <feColorMatrix in="shadowInnerInner1" values="0 0 0 0 0.839215686 0 0 0 0 0.952941176 0 0 0 0 0.988235294 0 0 0 1 0"/>
    </filter>
    <path id="E" d="M1.506 20.465c-1.679-.104-1.848-1.827-2.214-2.394-.399-.62-.098-1.051-.1-1.694 0-.2-.004-.555-.983-.85-.972-.294-2.06-.608-1.934-1.374.042-.255 5.679.01 6.956 1.256.345.336 1.817 1.812 2.055 2.331.195.425 1.325.237 1.904.401 2.807.796 8.555-.437 10.248 1.007.133.11 10.63-4.399 12.086-5.424 1.456-1.026 1.816 4.332 1.734 4.922-.178 1.144-11.336 5.467-15.506 4.132-2.92-.935-5.232-.94-7.08-1.377-1.879-.443-2.896-.773-4.186-.89-1.003-.092-2.409-.01-2.98-.046z"/>
    <filter id="F" width="111%" height="141.1%" x="-5.5%" y="-20.6%" filterUnits="objectBoundingBox">
      <feOffset dx="-3" dy="3" in="SourceAlpha" result="shadowOffsetInner1"/>
      <feComposite in="shadowOffsetInner1" in2="SourceAlpha" k2="-1" k3="1" operator="arithmetic" result="shadowInnerInner1"/>
      <feColorMatrix in="shadowInnerInner1" values="0 0 0 0 0.631372549 0 0 0 0 0.874509804 0 0 0 0 0.941176471 0 0 0 1 0"/>
    </filter>
    <path id="G" d="M21.51 37.044c.317-.015.717-.1 2.025-.39 1.52-.336 2.77-.958 2.782-1.218.048-1.096-1.096-8.14-2.49-9.83-1.426-1.725-3.275 1.27-5.272.794-2.59-.618 2.067 1.794 2.147 2.458.042.349-3.573-4.805-3.646-3.178-.06 1.359-.834-.968-.556.144.124.494.059 2.04.885 4.57 2.692 8.24 2.726 6.713 4.125 6.65z"/>
    <filter id="H" width="129%" height="123.6%" x="-14.5%" y="-11.8%" filterUnits="objectBoundingBox">
      <feOffset dx="-2" dy="-2" in="SourceAlpha" result="shadowOffsetInner1"/>
      <feComposite in="shadowOffsetInner1" in2="SourceAlpha" k2="-1" k3="1" operator="arithmetic" result="shadowInnerInner1"/>
      <feColorMatrix in="shadowInnerInner1" values="0 0 0 0 0.68627451 0 0 0 0 0.850980392 0 0 0 0 0.91372549 0 0 0 0.53736413 0"/>
    </filter>
    <path id="I" d="M31.4 38.104c-.382 2.976-1.02 9.022-1.425 11.123-.405 2.1-.251 3.078-.403 3.671-.742 2.906-3.147 8.8 1.88 9.314 1.713.175 6.626 1.13 9.97.395 1.26-.277 5.66-1.407 6.39-1.873.729-.465.31-1.332 1.222-8.922.285-2.373.576-3.938.87-4.91.969-3.215 1.508-3.86 2.18-5.13.274-.518.908.252 1.074-1.469.116-1.198.32-2.74-.199-3.86-.81-1.745-3.79-4.562-6.024-5.06-2.12-.472-.85.403-1.965 1.244-2.093 1.58-4.5 2.344-6.05 1.639-2.177-.992-.156-3.903-.908-3.275-.733.612-3.51.417-5.073 2.077-1.327 1.408-1.04 1.13-1.54 5.036z"/>
    <filter id="J" width="115.5%" height="112.1%" x="-7.7%" y="-6%" filterUnits="objectBoundingBox">
      <feOffset dx="-3" dy="-2" in="SourceAlpha" result="shadowOffsetInner1"/>
      <feComposite in="shadowOffsetInner1" in2="SourceAlpha" k2="-1" k3="1" operator="arithmetic" result="shadowInnerInner1"/>
      <feColorMatrix in="shadowInnerInner1" values="0 0 0 0 0.68627451 0 0 0 0 0.850980392 0 0 0 0 0.91372549 0 0 0 0.339362545 0"/>
    </filter>
    <path id="K" d="M31.911 21.47c-.912-2.584-1.47-2.733-1.957-3.49-.532-.827-.438-1.258-.44-2.116-.001-.258-.793-1.96-.273-2.365.521-.404.231-2.025 1.057-2.293 1.084-.352 1.486 1.495 1.681 1.172.403-.667-1.286-2.752-.764-3.194 1.16-.982 2.213 1.372 3.168 2.183.853.725.75 4.15.7 5.263-.028.597-.017 3.312 2.244 6.138 2.044 2.556 1.331 1.438 3.99 5.04.022.017 4.983 2 5.87 2.226 1.845.468 5.074.767 6.011 1.228 2.396 1.178.246 1.574 1.473.709 1.938-1.367 2.313 3.538 2.204 4.324-.142.917-4.084 1.63-9.177.013-3.38-1.073-8.35-4.326-9.133-5.048-3.135-2.893-5.741-7.207-6.654-9.79z"/>
    <filter id="L" width="110.3%" height="110.1%" x="-5.1%" y="-5.1%" filterUnits="objectBoundingBox">
      <feOffset dx="-2" dy="2" in="SourceAlpha" result="shadowOffsetInner1"/>
      <feComposite in="shadowOffsetInner1" in2="SourceAlpha" k2="-1" k3="1" operator="arithmetic" result="shadowInnerInner1"/>
      <feColorMatrix in="shadowInnerInner1" values="0 0 0 0 0.839215686 0 0 0 0 0.952941176 0 0 0 0 0.988235294 0 0 0 1 0"/>
    </filter>
    <path id="M" d="M41.804 13.61c.277 0 4.529.147 5.164.247 1.026.162 1.974 1.036 2.343-.576.309-1.343.793-2.875.992-4.25.115-.788.214-2.335.205-3.08-.028-2.316-1.02-3.566-3.147-3.758-3.26-.295-4.8 2.255-5.673 5.791-.874 3.536-.757 5.626.116 5.626z"/>
    <filter id="N" width="141%" height="132%" x="-20.5%" y="-16%" filterUnits="objectBoundingBox">
      <feOffset dx="3" dy="-2" in="SourceAlpha" result="shadowOffsetInner1"/>
      <feComposite in="shadowOffsetInner1" in2="SourceAlpha" k2="-1" k3="1" operator="arithmetic" result="shadowInnerInner1"/>
      <feColorMatrix in="shadowInnerInner1" values="0 0 0 0 0.68627451 0 0 0 0 0.850980392 0 0 0 0 0.91372549 0 0 0 0.53736413 0"/>
    </filter>
    <path id="O" d="M13.81 18.574c1.761-.547 4.521-.62 5.736-4.473 1.037-3.29-.507-6.583-2.897-8.47-1.44-1.137-4.167-1.656-6.69-.616-1.866.768-3.848 2.12-3.848 3.4 0 1.278-2.239 1.22-3.14 3.198-.524 1.147-.231 2.95.457 4.25.497.94 1.228 1.465 1.876 2.006 1.447 1.205 6.46 1.342 8.507.705z"/>
    <filter id="P" width="122.5%" height="126.7%" x="-11.3%" y="-13.3%" filterUnits="objectBoundingBox">
      <feOffset dy="3" in="SourceAlpha" result="shadowOffsetInner1"/>
      <feComposite in="shadowOffsetInner1" in2="SourceAlpha" k2="-1" k3="1" operator="arithmetic" result="shadowInnerInner1"/>
      <feColorMatrix in="shadowInnerInner1" values="0 0 0 0 0.839215686 0 0 0 0 0.952941176 0 0 0 0 0.988235294 0 0 0 1 0"/>
    </filter>
    <path id="Q" d="M21.188 6.32c.035-.36-.549-.645-1.75-.855-.629-.11-3.029 1.581-3.433 3.082-.246.914-4.211.642-4.752 1.855-.29.648.895 2.796.388 3.275-.358.337-1.724-3.24-2.994-2.298-.857.637-.762 1.31-.106 2.49.278.498 1.46 1.33 1.994 2.227.15.253-.106.419.009.608.3.497.464.212.405.226-.164.041-.587-.425-1.284-1.125-1.163-1.166-2.603-3.613-2.915-4.658-.5-1.673-.717-2.791.268-4.248.986-1.458 1.325-2.565 3.153-3.317C12 2.831 13.141.43 16.461.143c3.248-.28 4.626 2.603 4.594 3.484-.02.588.024 1.485.133 2.692z"/>
    <filter id="R" width="1498.5%" height="1331.8%" x="-699.3%" y="-615.9%" filterUnits="objectBoundingBox">
      <feOffset dx="207" dy="158" in="SourceAlpha" result="shadowOffsetInner1"/>
      <feComposite in="shadowOffsetInner1" in2="SourceAlpha" k2="-1" k3="1" operator="arithmetic" result="shadowInnerInner1"/>
      <feColorMatrix in="shadowInnerInner1" values="0 0 0 0 0.261539134 0 0 0 0 0.660968329 0 0 0 0 0.794111395 0 0 0 0.209805254 0"/>
    </filter>
    <path id="S" d="M4.548 1.835c-.358.589 1.384.66.37 4.933C3.903 11.042.833 13.91 1.68 13.91c.318 0 2.709 1.933 4.479 1.046 2.945-1.477 6.567-4.932 7.032-5.463.744-.85-2.584-3.07-3.342-5.664-.25-.856-.396-2.495-.621-2.783-.198-.254-.699 1.018-1.95 1.17-1.143.14-2.56-.663-2.731-.381z"/>
    <filter id="T" width="131.9%" height="126.5%" x="-16%" y="-13.2%" filterUnits="objectBoundingBox">
      <feOffset dx="-3" dy="-2" in="SourceAlpha" result="shadowOffsetInner1"/>
      <feComposite in="shadowOffsetInner1" in2="SourceAlpha" k2="-1" k3="1" operator="arithmetic" result="shadowInnerInner1"/>
      <feColorMatrix in="shadowInnerInner1" values="0 0 0 0 0.734659435 0 0 0 0 0.839655771 0 0 0 0 0.874654549 0 0 0 0.661911232 0"/>
    </filter>
    <path id="U" d="M6.11 10.139c-.42.877-3.217 1.747.03 3.394 3.245 1.648 3.345 1.037 6.646-1.217 2.201-1.502 3.329-2.738 3.383-3.71 1.026 1.696.941 3.164-.255 4.406-1.794 1.861-6.112 5.318-8.243 6.585-1.002.597-3.544 1.335-5.702-.568s4.437-9.51 4.14-8.89z"/>
    <filter id="V" width="215.7%" height="252.5%" x="-57.9%" y="-76.2%" filterUnits="objectBoundingBox">
      <feOffset dx="3" dy="17" in="SourceAlpha" result="shadowOffsetInner1"/>
      <feComposite in="shadowOffsetInner1" in2="SourceAlpha" k2="-1" k3="1" operator="arithmetic" result="shadowInnerInner1"/>
      <feColorMatrix in="shadowInnerInner1" values="0 0 0 0 0.921568627 0 0 0 0 0.968627451 0 0 0 0 0.984313725 0 0 0 0.661911232 0"/>
    </filter>
    <path id="W" d="M4.7 2.1c-.357.595 1.38.666.368 4.974-1.011 4.307-4.071 7.198-3.226 7.198.317 0 2.7 1.948 4.464 1.053 2.935-1.488 6.546-4.97 7.009-5.505.742-.858-2.575-3.094-3.33-5.709-.25-.863-.396-2.515-.62-2.805-.197-.256-.696 1.026-1.943 1.18-1.14.14-2.553-.669-2.723-.385z"/>
    <filter id="X" width="132%" height="126.3%" x="-16%" y="-13.1%" filterUnits="objectBoundingBox">
      <feOffset dx="-3" dy="-2" in="SourceAlpha" result="shadowOffsetInner1"/>
      <feComposite in="shadowOffsetInner1" in2="SourceAlpha" k2="-1" k3="1" operator="arithmetic" result="shadowInnerInner1"/>
      <feColorMatrix in="shadowInnerInner1" values="0 0 0 0 0.734659435 0 0 0 0 0.839655771 0 0 0 0 0.874654549 0 0 0 0.661911232 0"/>
    </filter>
    <path id="Y" d="M6.174 10.414c-.421.87-3.226 1.73.03 3.363 3.255 1.632 3.355 1.027 6.666-1.206 2.207-1.488 3.338-2.714 3.393-3.676 1.029 1.68.944 3.135-.256 4.365-1.799 1.845-6.13 5.27-8.267 6.526-1.005.591-3.554 1.322-5.718-.564-2.165-1.885 4.45-9.423 4.152-8.808z"/>
    <filter id="Z" width="215.4%" height="253.9%" x="-57.7%" y="-76.9%" filterUnits="objectBoundingBox">
      <feOffset dx="3" dy="17" in="SourceAlpha" result="shadowOffsetInner1"/>
      <feComposite in="shadowOffsetInner1" in2="SourceAlpha" k2="-1" k3="1" operator="arithmetic" result="shadowInnerInner1"/>
      <feColorMatrix in="shadowInnerInner1" values="0 0 0 0 0.921568627 0 0 0 0 0.968627451 0 0 0 0 0.984313725 0 0 0 0.661911232 0"/>
    </filter>
    <path id="aa" d="M12.386 68.105c.322 1.097.498 2.029.528 2.794.03.765-.06 1.974-.273 3.627l3.067-.212a9.276 9.276 0 0 1-.371-2.595c0-.874.028-2.41.085-4.604l-3.036.99z"/>
    <filter id="ab" width="213%" height="150.7%" x="-56.5%" y="-25.3%" filterUnits="objectBoundingBox">
      <feOffset dx="3" dy="3" in="SourceAlpha" result="shadowOffsetInner1"/>
      <feComposite in="shadowOffsetInner1" in2="SourceAlpha" k2="-1" k3="1" operator="arithmetic" result="shadowInnerInner1"/>
      <feColorMatrix in="shadowInnerInner1" values="0 0 0 0 0.68627451 0 0 0 0 0.854901961 0 0 0 0 0.91372549 0 0 0 1 0"/>
    </filter>
    <path id="ac" d="M9.35 1.999c.264 1.845 1.402 9.252 2.013 11.53.402 1.502 1.435 5.441 2.076 9.255.121.72.91 2.45 2.367 5.192.474 2.11.576 3.578.308 4.404-.149.46-1.009 2.216-1.473 2.668-.33.321-.278-.888-.752-.085-.82 1.387-1.929.91-2.214.686-.194-.153 1.06-1.457 1.287-3.182.107-.814-.8-.965-.7-1.236.128-.346-.642.61-1.02 1.892-.559 1.899-.613-.59-.72-2.51-.046-.8-.007-1.735.197-2.203.585-1.344.885-1.399.677-1.948-.604-1.596-1.296-4.353-2.193-6.343-1.232-2.73-2.622-4.588-2.61-5.227.035-2.044-.2-5.588-.637-8.68-.138-.984-1.15-4.622.822-4.898 1.97-.276 2.406-.474 2.572.685z"/>
    <filter id="ad" width="135.2%" height="110.8%" x="-17.6%" y="-5.4%" filterUnits="objectBoundingBox">
      <feOffset dx="3" dy="2" in="SourceAlpha" result="shadowOffsetInner1"/>
      <feComposite in="shadowOffsetInner1" in2="SourceAlpha" k2="-1" k3="1" operator="arithmetic" result="shadowInnerInner1"/>
      <feColorMatrix in="shadowInnerInner1" values="0 0 0 0 0.755504261 0 0 0 0 0.942093115 0 0 0 0 1 0 0 0 0.492753623 0"/>
    </filter>
    <path id="ae" d="M8.66 29.749l.002-.015c.225-1.314 6.686-1.38 8.433-1.38.472 0 1.089 0 1.764.026 2.09-1.457 4.765-1.702 5.663-1.702 1.747 0 1.235 5.974 1.508 12.434.155 3.677-1.825 21.443-.758 32.293.199 2.026-8.165 1.616-7.478.365.607-1.106.509-14.001-.058-18.774-.363-3.06-.547-8.625-.809-12.534.08 4.166-.216 8.777-.216 12.37 0 3.75-.222 2.622-.55 6.862-.354 4.55.224 14.231.224 15.89 0 2.308-7.673 1.95-7.673.392 0-4.468-.372-11.245-.102-17.018.225-4.807-3.806-18.663-3.446-24.457.205-3.3.829-4.4 3.496-4.752z"/>
    <filter id="af" width="118%" height="107.4%" x="-9%" y="-3.7%" filterUnits="objectBoundingBox">
      <feOffset dx="-3" dy="-3" in="SourceAlpha" result="shadowOffsetInner1"/>
      <feComposite in="shadowOffsetInner1" in2="SourceAlpha" k2="-1" k3="1" operator="arithmetic" result="shadowInnerInner1"/>
      <feColorMatrix in="shadowInnerInner1" values="0 0 0 0 0.921568627 0 0 0 0 0.968627451 0 0 0 0 0.984313725 0 0 0 0.661911232 0"/>
    </filter>
    <path id="ag" d="M27.015 11.852a5.94 5.94 0 0 1 .409 2.084c0 1.668-1.55 3.366-3.455 4.287-.46 2.467-.354 4.831.511 7.237.518 1.439 2.81 6.889.232 8.076-2.578 1.187-5.3 2.47-8.607 2.745-2.63.219-10.643 1.36-10.758-1.255-.054-1.247.097-3.856.384-7.189.287-3.332.725-2.37 1.052-3.652.37-1.452-2.11-5.909-1.597-7.452.71-2.133 4.078-2.348 3.002-1.83-2.541 1.222-6.263 1.053-6.697-.041-.434-1.095-.656-3.251 1.414-7.167.825-1.562 4.372-4.408 5.254-4.731C13.693.937 12.004 1.435 18.784.065c1.555.296-.07.676 2.19.909 2.261.233 4.763 2.327 5.624 3.622 1.74 2.619 1.758 6.195 2.062 6.597.096.128-.75.181-1.645.659z"/>
    <filter id="ah" width="113.9%" height="110.4%" x="-7%" y="-5.2%" filterUnits="objectBoundingBox">
      <feOffset dx="3" dy="-3" in="SourceAlpha" result="shadowOffsetInner1"/>
      <feComposite in="shadowOffsetInner1" in2="SourceAlpha" k2="-1" k3="1" operator="arithmetic" result="shadowInnerInner1"/>
      <feColorMatrix in="shadowInnerInner1" values="0 0 0 0 0.68627451 0 0 0 0 0.850980392 0 0 0 0 0.91372549 0 0 0 1 0"/>
    </filter>
    <path id="ai" d="M18.525 21.51c-2.884-.866-5.93-1.982-7.091-2.689-1.476-.898-2.996 4.258-3.093 4.567-.487 1.562-.23 6.336-4.366 2.985-1.154-.935-2.543-1.731-2.562-2.356-.02-.625 5.724-10.847 8.341-11.525 2.064-.534 12.131 7.813 14.02 9.16.693.403.927.698 1.976.743.32.014.592.124 1.036.245.594.162 1.369.386 1.753.823.142.161.316.502.53.895.395.724.845 1.602.916 1.711.318.488.075.657.162 1.353.104.827.169 1.382-.43 1.508-.598.126-.817-1.36-1.107-2.144-.075-.205-.21-.402-.26-.542-.027-.078.019 2.246-.76 2.203-.99-.055-.67-2.13-.724-2.239-.042-.084-.695-.439-1.072-.716-.372-.274-.679-.23-.848-.055-.133.138-.488.756-.47 1.638.015.813-.527.9-.682.922-.206.028-.69-.45-.783-1.051-.103-.673-.55-.782-.69-1.161-.377-1.035-.152-1.2-1.119-2.435-.366-.468-1.643-1.24-2.677-1.84z"/>
    <filter id="aj" width="113%" height="122.8%" x="-6.5%" y="-11.4%" filterUnits="objectBoundingBox">
      <feOffset dx="2" dy="3" in="SourceAlpha" result="shadowOffsetInner1"/>
      <feComposite in="shadowOffsetInner1" in2="SourceAlpha" k2="-1" k3="1" operator="arithmetic" result="shadowInnerInner1"/>
      <feColorMatrix in="shadowInnerInner1" values="0 0 0 0 0.523261994 0 0 0 0 0.822939223 0 0 0 0 0.922831633 0 0 0 0.293563179 0"/>
    </filter>
    <path id="ak" d="M18.107 33.64c-3.982.521-6.11-4.918-6.69-6.972-.235-.832 2.25-1.787 2.56-2.97.134-.511.134-1.432 0-2.763l5.52-2.472v5.234c0 .652 2.054 1.193 2.333 1.965.45 1.247.259 7.457-3.723 7.978z"/>
    <filter id="al" width="135.4%" height="124.7%" x="-17.7%" y="-12.3%" filterUnits="objectBoundingBox">
      <feOffset dx="3" dy="2" in="SourceAlpha" result="shadowOffsetInner1"/>
      <feComposite in="shadowOffsetInner1" in2="SourceAlpha" k2="-1" k3="1" operator="arithmetic" result="shadowInnerInner1"/>
      <feColorMatrix in="shadowInnerInner1" values="0 0 0 0 0.691841136 0 0 0 0 0.902213186 0 0 0 0 0.967501063 0 0 0 0.459776947 0"/>
    </filter>
    <path id="am" d="M4.025 9.397c.483-1.956 1.04-2.817 4.12-3.463 4.748-.995 1.607-2.436 2.52-1.014.5.776.37-1.323 4.734 3.206.363.377.89 2.36 1.072 3.342.192 1.038 1.548 2.164 1.498 4.247-.069 2.868-2.502 4.223-4.035 4.67-1.326.386-5.196-.758-5.313-.82-.87-.546-1.746-.623-2.384-2.02 0-.522-.724 1.181-1.732-.99-.144-.3-1.385-1.183-1.185-2.306.2-1.123.882-.604 1.262-.758 0-1.163-1.195-1.509-.557-4.094z"/>
    <filter id="an" width="139.2%" height="135.7%" x="-19.6%" y="-17.8%" filterUnits="objectBoundingBox">
      <feOffset dx="2" dy="5" in="SourceAlpha" result="shadowOffsetInner1"/>
      <feComposite in="shadowOffsetInner1" in2="SourceAlpha" k2="-1" k3="1" operator="arithmetic" result="shadowInnerInner1"/>
      <feColorMatrix in="shadowInnerInner1" values="0 0 0 0 0.591316724 0 0 0 0 0.807548222 0 0 0 0 0.874654549 0 0 0 0.514945652 0"/>
    </filter>
    <path id="ao" d="M3.4 4.999c-.672-.19-.93-.652-.93-1.769C2.47 1.442 3.28.13 5.186.012c1.905-.117 3.187.998 3.187 2.786 0 .146-.009.283-.026.413.262.01.574.018.964.008 1.16-.03 1.481-.578 2.497-.416 1.8.286 3.234.754 5.005 2.77.807.918 1.73 1.854 2.072 2.866.511 1.516-.594 2.035-.442 3.396.254 2.268-1.596-1.56-4.44-1.63-2.97-.072-4.666-2.41-4.763-2.392-.286.062.175 3.133-2.066 3.133-.768 0-.417.297-1.23 2.479-.225.604-1.3 5.035-2.142 4.693-.613-.248 1.04-2.204.86-4.91-.088-1.328-.703-1.652-.835-2.633-.082-.611-.972.241-.936.67.038.457.544 3.677.428 3.24-.081-.306-1.545-2.048-2.02-3.539-.416-1.3.955-3.756 1.256-4.467.256-.606.484-1.07.844-1.48z"/>
    <filter id="ap" width="121.1%" height="120.7%" x="-10.6%" y="-10.4%" filterUnits="objectBoundingBox">
      <feOffset dx="2" dy="3" in="SourceAlpha" result="shadowOffsetInner1"/>
      <feComposite in="shadowOffsetInner1" in2="SourceAlpha" k2="-1" k3="1" operator="arithmetic" result="shadowInnerInner1"/>
      <feColorMatrix in="shadowInnerInner1" values="0 0 0 0 0.721926294 0 0 0 0 0.928084386 0 0 0 0 1 0 0 0 0.535609149 0"/>
    </filter>
    <linearGradient id="aq" x1="-21.491%" x2="39.798%" y1="104.095%" y2="16.186%">
      <stop offset="0%" stop-color="#FEFEFE" stop-opacity="0"/>
      <stop offset="100%" stop-color="#EBF7FB"/>
    </linearGradient>
    <path id="ar" d="M134.161 4.28L30.674 64.334c-5.997 3.464-5.938 12.093 0 15.557l99.724 57.471a22.386 22.386 0 0 0 22.52-.058l98.96-57.413c5.997-3.464 5.938-12.093 0-15.557L147.684 4.28a13.567 13.567 0 0 0-13.524 0z"/>
    <path id="as" d="M135.83 1.979l-82.746 48.12c-4.795 2.776-4.748 9.69 0 12.466l79.737 46.051a17.867 17.867 0 0 0 18.007-.047l79.125-46.004c4.796-2.775 4.749-9.69 0-12.465l-83.31-48.121a10.828 10.828 0 0 0-10.813 0z"/>
    <path id="at" d="M9.141.81l.05-.03a4.412 4.412 0 0 1 6.656 3.807v.138A13.327 13.327 0 0 1 9.176 16.25h-.001a4.438 4.438 0 0 1-6.655-3.847A13.47 13.47 0 0 1 9.141.81z"/>
    <filter id="au" width="143.1%" height="134.5%" x="-21.6%" y="-17.2%" filterUnits="objectBoundingBox">
      <feOffset dx="-5" dy="-3" in="SourceAlpha" result="shadowOffsetInner1"/>
      <feComposite in="shadowOffsetInner1" in2="SourceAlpha" k2="-1" k3="1" operator="arithmetic" result="shadowInnerInner1"/>
      <feColorMatrix in="shadowInnerInner1" values="0 0 0 0 0.839215686 0 0 0 0 0.952941176 0 0 0 0 0.988235294 0 0 0 1 0"/>
    </filter>
    <path id="av" d="M7.537 1.973l.05-.03a4.412 4.412 0 0 1 6.656 3.806v.139a13.327 13.327 0 0 1-6.671 11.524H7.57a4.438 4.438 0 0 1-6.655-3.846A13.47 13.47 0 0 1 7.537 1.973z"/>
    <filter id="aw" width="143.1%" height="134.5%" x="-21.6%" y="-17.2%" filterUnits="objectBoundingBox">
      <feOffset dx="-5" dy="-3" in="SourceAlpha" result="shadowOffsetInner1"/>
      <feComposite in="shadowOffsetInner1" in2="SourceAlpha" k2="-1" k3="1" operator="arithmetic" result="shadowInnerInner1"/>
      <feColorMatrix in="shadowInnerInner1" values="0 0 0 0 0.839215686 0 0 0 0 0.952941176 0 0 0 0 0.988235294 0 0 0 1 0"/>
    </filter>
    <path id="ax" d="M5.834 7.421a1.321 1.321 0 0 0-2.026 1.12v.28a4.267 4.267 0 0 0 2.03 3.628 1.329 1.329 0 0 0 2.027-1.133V11.1a4.351 4.351 0 0 0-2.03-3.679z"/>
    <filter id="ay" width="192.4%" height="169.1%" x="-46.2%" y="-34.5%" filterUnits="objectBoundingBox">
      <feOffset dx="3" dy="-2" in="SourceAlpha" result="shadowOffsetInner1"/>
      <feComposite in="shadowOffsetInner1" in2="SourceAlpha" k2="-1" k3="1" operator="arithmetic" result="shadowInnerInner1"/>
      <feColorMatrix in="shadowInnerInner1" values="0 0 0 0 0.438027172 0 0 0 0 0.764489731 0 0 0 0 0.865805697 0 0 0 1 0"/>
    </filter>
    <path id="az" d="M6.733 4.264a9.39 9.39 0 0 1 4.613 8.08v.002a3.091 3.091 0 0 1-4.635 2.68 9.286 9.286 0 0 1-4.646-8.03v-.101A3.072 3.072 0 0 1 6.7 4.245l.033.02zm-.899 3.157a1.321 1.321 0 0 0-2.026 1.12v.28a4.267 4.267 0 0 0 2.03 3.628 1.329 1.329 0 0 0 2.027-1.133V11.1a4.351 4.351 0 0 0-2.03-3.679z"/>
    <filter id="aA" width="140.4%" height="132.3%" x="-20.2%" y="-16.1%" filterUnits="objectBoundingBox">
      <feOffset dx="-3" dy="-3" in="SourceAlpha" result="shadowOffsetInner1"/>
      <feComposite in="shadowOffsetInner1" in2="SourceAlpha" k2="-1" k3="1" operator="arithmetic" result="shadowInnerInner1"/>
      <feColorMatrix in="shadowInnerInner1" values="0 0 0 0 0.839215686 0 0 0 0 0.952941176 0 0 0 0 0.988235294 0 0 0 1 0"/>
    </filter>
    <path id="aB" d="M117.354 160.173c-.09 2.438-2.771 3.935-4.848 2.7L3.756 99.903C1.407 98.566 0 96.054 0 93.384V4.947C0 2.434 2.738.864 4.85 2.12l108.751 62.97c2.347 1.335 3.756 3.848 3.756 6.517v88.567z"/>
    <path id="aC" d="M5.698 92.053v-80.48l106.56 61.793v80.401z"/>
    <filter id="aD" width="102.8%" height="102.1%" x="-1.4%" y="-1.1%" filterUnits="objectBoundingBox">
      <feOffset dx="-3" dy="2" in="SourceAlpha" result="shadowOffsetInner1"/>
      <feComposite in="shadowOffsetInner1" in2="SourceAlpha" k2="-1" k3="1" operator="arithmetic" result="shadowInnerInner1"/>
      <feColorMatrix in="shadowInnerInner1" values="0 0 0 0 0.490196078 0 0 0 0 0.874509804 0 0 0 0 1 0 0 0 1 0"/>
    </filter>
    <path id="aE" d="M.253 1.987v24.81c0 1.827 1.72 4.163 3.842 5.218l17.607 8.753c2.122 1.055 3.842.429 3.842-1.398V14.56c0-1.827-1.72-4.163-3.842-5.218L4.095.59C3.396.24 2.74.076 2.177.076 1.027.076.253.761.253 1.987z"/>
    <path id="aG" d="M.07 1.62v18.745c0 1.37 1.29 3.122 2.88 3.913l13.126 6.526c1.592.79 2.882.322 2.882-1.049V11.01c0-1.37-1.29-3.122-2.882-3.913L2.95.57C2.426.311 1.935.187 1.512.187.65.187.07.7.07 1.62z"/>
    <path id="aI" d="M.174.914V10.7c0 .799.752 1.821 1.68 2.283l6.883 3.421c.928.462 1.681.188 1.681-.611V6.007c0-.8-.753-1.822-1.68-2.283L1.853.302C1.548.15 1.262.078 1.015.078c-.503 0-.841.3-.841.836z"/>
    <path id="aK" d="M56.521 148.555l72.055 41.203a2.161 2.161 0 0 1 1.089 1.877.727.727 0 0 1-1.089.631L56.408 151a2.002 2.002 0 0 1-1.006-1.83.748.748 0 0 1 1.12-.615z"/>
    <filter id="aL" width="105%" height="108.3%" x="-2.5%" y="-4.2%" filterUnits="objectBoundingBox">
      <feOffset dx="3" in="SourceAlpha" result="shadowOffsetInner1"/>
      <feComposite in="shadowOffsetInner1" in2="SourceAlpha" k2="-1" k3="1" operator="arithmetic" result="shadowInnerInner1"/>
      <feColorMatrix in="shadowInnerInner1" values="0 0 0 0 0.596286908 0 0 0 0 0.792544016 0 0 0 0 0.853874362 0 0 0 1 0"/>
    </filter>
    <path id="aM" d="M156.362 148.555l72.055 41.203a2.161 2.161 0 0 1 1.088 1.877.727.727 0 0 1-1.088.631L156.249 151a2.002 2.002 0 0 1-1.006-1.83.748.748 0 0 1 1.119-.615z"/>
    <filter id="aN" width="105%" height="108.3%" x="-2.5%" y="-4.2%" filterUnits="objectBoundingBox">
      <feOffset dx="3" in="SourceAlpha" result="shadowOffsetInner1"/>
      <feComposite in="shadowOffsetInner1" in2="SourceAlpha" k2="-1" k3="1" operator="arithmetic" result="shadowInnerInner1"/>
      <feColorMatrix in="shadowInnerInner1" values="0 0 0 0 0.596286908 0 0 0 0 0.792544016 0 0 0 0 0.853874362 0 0 0 1 0"/>
    </filter>
    <linearGradient id="aO" x1="106.54%" x2="43.296%" y1="100%" y2="41.284%">
      <stop offset="0%" stop-color="#FEFEFE" stop-opacity="0"/>
      <stop offset="100%" stop-color="#EBF7FB"/>
    </linearGradient>
  </defs>
  <g fill="none" fill-rule="evenodd">
    <g transform="rotate(-56 181.527 -103.803)">
      <use fill="#D6F3FC" xlink:href="#a"/>
      <use fill="#000" filter="url(#b)" xlink:href="#a"/>
      <use stroke="#429CB5" stroke-width=".756" xlink:href="#a"/>
    </g>
    <g stroke-linecap="round" stroke-linejoin="round">
      <g transform="rotate(-1 6223.519 -12042.366)">
        <use fill="#F4FCFF" xlink:href="#c"/>
        <use fill="#000" filter="url(#d)" xlink:href="#c"/>
        <use stroke="#429CB5" stroke-width=".756" xlink:href="#c"/>
      </g>
      <g transform="rotate(-1 6223.519 -12042.366)">
        <use fill="#F4FCFF" xlink:href="#e"/>
        <use fill="#000" filter="url(#f)" xlink:href="#e"/>
        <use stroke="#429CB5" stroke-width=".756" xlink:href="#e"/>
      </g>
      <path fill="#F6F6F6" stroke="#429CB5" stroke-width=".756" d="M222.347 114.686c.662-2.292 3.645-4.381 3.74 1.045.027 1.54.354-11.048.535-8.959.117 1.36-1.86 4.223-.657 8.785.048.184.092.403.133.65 5.652 1.334 6.215-3.569 8.772-2.291.365.182.575.884.67 1.894.398.806.55 2.325.578 4.93.068 6.55-1.843 11.154-1.865 16.566-.01 2.578.912 5.408 1.091 7.008.327 2.908 2.189 13.998.545 13.781-1.816-.24-1.509.17-4.224-.803-1.917-.686-1.288-.557-1.608-1.781-.428-1.636-1.142-7.801-1.553-10.107-.762-4.277-.124-.545-.628-3.707-.174-1.095-.735-8.067-1.213-14.967a65.802 65.802 0 0 1-.094-2.277 45.358 45.358 0 0 1-.425-.322 34.576 34.576 0 0 1-.177 3.987c-.36 3.725-1.075 4.49-.748 9.567.192 2.983 3.006 12.12 2.491 15.07-.292 1.673-2.304 1.153-4.401.744-.171-.033-1.558-.747-2.087-1.586-.46-.729-.527-4.933-.797-6.312-.599-3.06-1.192-5.766-1.476-8.744-.425-4.475-.835-4.912-1.007-11.858-.03-1.222-.057-2.263-.075-3.15-.255-4.215-.378-10.885.241-11.356 2.146-1.634-.305 1.489 4.239 4.193z"/>
    </g>
    <g transform="matrix(-1 0 0 1 245.253 62.636)">
      <use fill="#D6F3FC" xlink:href="#g"/>
      <use fill="#000" filter="url(#h)" xlink:href="#g"/>
      <use stroke="#429CB5" stroke-width=".756" xlink:href="#g"/>
    </g>
    <g stroke-linejoin="round" transform="rotate(31 -49.391 421.448)">
      <use fill="#98DAED" fill-opacity=".03" xlink:href="#i"/>
      <use fill="#000" filter="url(#j)" xlink:href="#i"/>
      <use stroke="#429CB5" stroke-width=".756" xlink:href="#i"/>
    </g>
    <g stroke-linejoin="round" transform="translate(210.643 62.636)">
      <use fill="#98DAED" xlink:href="#k"/>
      <use fill="#000" filter="url(#l)" xlink:href="#k"/>
      <use stroke="#429CB5" stroke-width=".756" xlink:href="#k"/>
    </g>
    <g transform="rotate(-85 166.797 -53.578)">
      <use fill="#D6F3FC" xlink:href="#m"/>
      <use fill="#000" filter="url(#n)" xlink:href="#m"/>
      <use stroke="#429CB5" stroke-width=".756" xlink:href="#m"/>
    </g>
    <g stroke-linejoin="round" transform="scale(-1 1) rotate(-26 82.842 593.544)">
      <use fill="#98DAED" xlink:href="#o"/>
      <use fill="#000" filter="url(#p)" xlink:href="#o"/>
      <use stroke="#429CB5" stroke-width=".756" xlink:href="#o"/>
    </g>
    <g>
      <g transform="scale(-1 1) rotate(-36 -9.483 412.252)">
        <use fill="#D7F1FA" xlink:href="#q"/>
        <use fill="#000" filter="url(#r)" xlink:href="#q"/>
        <use stroke="#429CB5" stroke-width=".756" xlink:href="#q"/>
      </g>
      <g fill="#429DB8" stroke="#429CB5" stroke-width=".2">
        <path d="M228.265 74.892c.482-.175.854.035 1.135.13.489.166 1.186.708 1.087.818-.1.11-1.021-.38-1.163-.43-.231-.08-.588-.159-.89-.106-.301.053-.616.258-.822.56-.241.357-.332.747-.394.737-.392-.062.118-1.371 1.047-1.709zM234.6 74.777c-.117-.251-.423-.327-.617-.38-.194-.054-.475-.009-.759.144-.283.152-.469.524-.5.587-.304.624-.077.193.488-.05.081-.035-.074.027.058-.119.14-.156.427-.303.9-.143.474.16.234.555.274.57.15.059.273-.358.156-.61z"/>
        <path d="M233.224 76.72c.112.097 1.606 1.018 1.46 1.503-.17.56-1.962.688-1.415.697 1.019.018 1.57-.434 1.578-.94a.808.808 0 0 0-.207-.555c-.084-.103-.132-.22-.36-.332-.271-.134-.654-.442-.97-.779-.245-.26-.416-.446-.389-.654.044-.34.426-.656.46-.814.03-.147-.549-.196-.782.587-.176.59.316 1.02.625 1.287z"/>
      </g>
      <g stroke-linecap="round" stroke-linejoin="round" transform="rotate(3 -1089.565 4176.393)">
        <use fill="#83ACBA" xlink:href="#s"/>
        <use fill="#000" filter="url(#t)" xlink:href="#s"/>
        <use stroke="#429CB5" stroke-width=".756" xlink:href="#s"/>
      </g>
      <g stroke-linecap="round" transform="scale(-1 1) rotate(-3 1292.597 4537.714)">
        <ellipse cx="6.481" cy="2.333" fill="#FFF" fill-opacity=".9" stroke="#429CB5" stroke-linejoin="round" stroke-width=".756" rx="1.815" ry="1.815"/>
        <g stroke-linejoin="round">
          <use fill="#FFF" fill-opacity=".67" xlink:href="#u"/>
          <use fill="#000" filter="url(#v)" xlink:href="#u"/>
          <use stroke="#429CB5" stroke-width=".756" xlink:href="#u"/>
        </g>
        <path stroke="#429CB5" stroke-width=".756" d="M3.213 1.788c.012-.47.23-.687.653-.648.424.038.665.252.725.642M8.292 1.722h2.383"/>
      </g>
    </g>
    <g>
      <g stroke-linecap="round" stroke-linejoin="round">
        <g transform="translate(251.637 126.798)">
          <use fill="#98DAED" xlink:href="#w"/>
          <use fill="#000" filter="url(#x)" xlink:href="#w"/>
          <use stroke="#429CB5" stroke-width=".865" xlink:href="#w"/>
        </g>
        <g transform="translate(251.637 126.798)">
          <use fill="#98DAED" xlink:href="#y"/>
          <use fill="#000" filter="url(#z)" xlink:href="#y"/>
          <use stroke="#429CB5" stroke-width=".865" xlink:href="#y"/>
        </g>
        <g transform="translate(251.637 126.798)">
          <use fill="#D7F1FA" xlink:href="#A"/>
          <use fill="#000" filter="url(#B)" xlink:href="#A"/>
          <use stroke="#429CB5" stroke-width=".865" xlink:href="#A"/>
        </g>
      </g>
      <g transform="matrix(-1 0 0 1 308.319 76.34)">
        <use fill="#A1DFF0" xlink:href="#C"/>
        <use fill="#000" filter="url(#D)" xlink:href="#C"/>
        <use stroke="#429CB5" stroke-width=".865" xlink:href="#C"/>
      </g>
      <g transform="rotate(-28 340.136 -392.114)">
        <use fill="#A1DFF0" xlink:href="#E"/>
        <use fill="#000" filter="url(#F)" xlink:href="#E"/>
        <use stroke="#429CB5" stroke-width=".865" xlink:href="#E"/>
      </g>
      <g stroke-linejoin="round" transform="scale(-1 1) rotate(-31 34.951 576.414)">
        <use fill="#F2FCFF" xlink:href="#G"/>
        <use fill="#000" filter="url(#H)" xlink:href="#G"/>
        <use stroke="#429CB5" stroke-width=".865" xlink:href="#G"/>
      </g>
      <g stroke-linejoin="round" transform="rotate(-7 778.239 -1768.01)">
        <use fill="#F2FCFF" xlink:href="#I"/>
        <use fill="#000" filter="url(#J)" xlink:href="#I"/>
        <use stroke="#429CB5" stroke-width=".865" xlink:href="#I"/>
      </g>
      <g stroke="#429CB5" stroke-linejoin="round">
        <path fill="#FFF" stroke-width=".975" d="M245.66 177.964l5.948-3.869.003-16.467-5.947-3.619z"/>
        <path fill="#E0F5FC" stroke-width=".975" d="M233.731 145.701l-.003 16.583 11.939 6.162.002-15.536z"/>
        <path fill="#EDFAFF" stroke-width=".975" d="M270.99 155.338l.21-.101c.603-.29.984-.902.978-1.571l-.055-6.867a5.184 5.184 0 0 0-3.915-4.985l-25.197-6.36-6.998-4.137a6.912 6.912 0 0 0-6.86-.1l-.917.506-8.898-2.246-.126 7c-.003.194.026.384.084.563a1.726 1.726 0 0 0 .707 2.23l36.348 20.84a6.912 6.912 0 0 0 7.06-.109l7.579-4.663z"/>
        <path fill="#FFF" stroke-width=".975" d="M263.413 151.331l7.912-4.868a1.728 1.728 0 0 0-.026-2.96l-35.285-20.856a6.912 6.912 0 0 0-6.859-.1l-9.127 5.041a1.728 1.728 0 0 0-.024 3.012l36.348 20.84a6.912 6.912 0 0 0 7.06-.109z"/>
        <path fill="#FFF" stroke-width=".75" d="M258.303 145.528l2.954-1.818a1.728 1.728 0 0 0-.027-2.959l-20.551-12.147a6.912 6.912 0 0 0-6.86-.1l-3.658 2.02a1.728 1.728 0 0 0-.024 3.012l21.105 12.101a6.912 6.912 0 0 0 7.06-.109z"/>
      </g>
      <g transform="rotate(-89 206.62 -38.402)">
        <use fill="#A1DFF0" xlink:href="#K"/>
        <use fill="#000" filter="url(#L)" xlink:href="#K"/>
        <use stroke="#429CB5" stroke-width=".865" xlink:href="#K"/>
      </g>
      <g stroke-linejoin="round" transform="scale(-1 1) rotate(-16 268.19 1208.42)">
        <use fill="#F2FCFF" xlink:href="#M"/>
        <use fill="#000" filter="url(#N)" xlink:href="#M"/>
        <use stroke="#429CB5" stroke-width=".865" xlink:href="#M"/>
      </g>
      <g>
        <g transform="rotate(-36 271.027 -335.19)">
          <use fill="#A1DFF0" xlink:href="#O"/>
          <use fill="#000" filter="url(#P)" xlink:href="#O"/>
          <use stroke="#429CB5" stroke-width=".865" xlink:href="#O"/>
        </g>
        <g fill="#429CB5">
          <path d="M265.272 97.533c-.487-.176-.863.038-1.148.136-.495.17-1.202.722-1.102.834.1.112 1.034-.39 1.177-.44.234-.082.596-.163.9-.11.305.052.623.259.83.566.243.361.334.757.397.747.396-.065-.116-1.393-1.054-1.733zM258.842 97.432c.117-.254.426-.33.622-.384.196-.054.481-.006.769.149.287.155.475.534.506.598.31.635.08.197-.492-.052-.083-.036.074.028-.06-.121-.142-.159-.432-.31-.91-.148-.48.16-.235.563-.275.578-.152.059-.277-.365-.16-.62z"/>
          <path d="M260.229 99.401c-.108.094-.927.54-.936 1.282-.008.691 1.873.945 1.33 1.299-.515.336-.837.275-1.179.083-.434-.244-.85-1.094-.854-1.382-.003-.144.004-.104.09-.25.026-.045.06.131.17-.229.05-.162.082-.31.312-.424.274-.136.66-.449.98-.792.247-.265.419-.453.392-.665-.045-.347-.43-.667-.464-.829-.031-.149.554-.199.79.598.177.601-.32 1.038-.631 1.31z"/>
        </g>
        <g stroke-linecap="round" stroke-linejoin="round" transform="scale(-1 1) rotate(-2 2351.225 8104.72)">
          <use fill="#429CB5" xlink:href="#Q"/>
          <use fill="#000" filter="url(#R)" xlink:href="#Q"/>
          <use stroke="#429CB5" stroke-width=".865" xlink:href="#Q"/>
        </g>
      </g>
    </g>
    <g>
      <g stroke-linecap="round" stroke-linejoin="round">
        <g transform="rotate(11 -801.147 1562.266)">
          <use fill="#FFF" xlink:href="#S"/>
          <use fill="#000" filter="url(#T)" xlink:href="#S"/>
          <use stroke="#429CB5" stroke-width=".756" xlink:href="#S"/>
        </g>
        <g transform="translate(278.113 182.836)">
          <use fill="#E4F4FA" xlink:href="#U"/>
          <use fill="#000" filter="url(#V)" xlink:href="#U"/>
          <use stroke="#429CB5" stroke-width=".756" xlink:href="#U"/>
        </g>
      </g>
      <g stroke-linecap="round" stroke-linejoin="round">
        <g transform="rotate(11 -817.575 1610.94)">
          <use fill="#FFF" xlink:href="#W"/>
          <use fill="#000" filter="url(#X)" xlink:href="#W"/>
          <use stroke="#429CB5" stroke-width=".756" xlink:href="#W"/>
        </g>
        <g transform="translate(287.173 186.886)">
          <use fill="#D7F1FA" xlink:href="#Y"/>
          <use fill="#000" filter="url(#Z)" xlink:href="#Y"/>
          <use stroke="#429CB5" stroke-width=".756" xlink:href="#Y"/>
        </g>
      </g>
      <g stroke-linejoin="round" transform="matrix(-1 0 0 1 311.299 113.88)">
        <use fill="#CEECF6" xlink:href="#aa"/>
        <use fill="#000" filter="url(#ab)" xlink:href="#aa"/>
        <use stroke="#429CB5" stroke-width=".756" xlink:href="#aa"/>
      </g>
      <g transform="scale(-1 1) rotate(2 -3589.26 -8352.806)">
        <use fill="#FFF" xlink:href="#ac"/>
        <use fill="#000" filter="url(#ad)" xlink:href="#ac"/>
        <use stroke="#429CB5" stroke-width=".756" xlink:href="#ac"/>
      </g>
      <g stroke-linecap="round" stroke-linejoin="round" transform="matrix(-1 0 0 1 311.299 113.88)">
        <use fill="#FFF" xlink:href="#ae"/>
        <use fill="#000" filter="url(#af)" xlink:href="#ae"/>
        <use stroke="#429CB5" stroke-width=".756" xlink:href="#ae"/>
      </g>
      <g stroke-linejoin="round" transform="matrix(-1 0 0 1 311.299 113.88)">
        <use fill="#C5E6F0" xlink:href="#ag"/>
        <use fill="#000" filter="url(#ah)" xlink:href="#ag"/>
        <use stroke="#429CB5" stroke-width=".826" xlink:href="#ag"/>
      </g>
      <g stroke-linecap="round" stroke-linejoin="round" transform="rotate(168 149.665 92.338)">
        <use fill="#FFF" xlink:href="#ai"/>
        <use fill="#000" filter="url(#aj)" xlink:href="#ai"/>
        <use stroke="#429CB5" stroke-width=".756" xlink:href="#ai"/>
      </g>
      <g transform="matrix(-1 0 0 1 311.299 90.122)">
        <use fill="#FFF" xlink:href="#ak"/>
        <use fill="#000" filter="url(#al)" xlink:href="#ak"/>
        <use stroke="#429CB5" stroke-width=".756" xlink:href="#ak"/>
      </g>
      <g>
        <g transform="scale(-1 1) rotate(8 -806.235 -2122.53)">
          <use fill="#FFF" xlink:href="#am"/>
          <use fill="#000" filter="url(#an)" xlink:href="#am"/>
          <use stroke="#429CB5" stroke-width=".756" xlink:href="#am"/>
        </g>
        <g fill="#429CB5" stroke="#429CB5" stroke-width=".2">
          <path d="M295.573 105.495c-.157-.221-.529-.538-1.139-.733-.192-.06-1.41.03-1.534.27-.145.283 1.057-.118 1.552.006.401.101.508.35.712.488.586.398.707.389.41-.03zM290.1 104.581c-.188-.055-.38-.104-.66.041-.28.146-.398.233-.354.317.097.184.576-.295 1.035-.131.46.163.54.25.87.294.131.018-.702-.465-.89-.52z"/>
          <path d="M289.688 107.151c-.774.372-.733.8-.702.907.084.28.211.383.286.45.48.434 1.848.454 1.285.514-.227.024-.916-.053-1.402-.264-.26-.113-.56-.532-.512-.814.135-.81.865-.859 1.293-1.075.33-.167.662-.202.978-.663.317-.46-.381-1.06-.113-1.088.269-.029.554 1.012.273 1.286-.209.204-.611.375-1.386.747z"/>
        </g>
        <g stroke-linejoin="round" transform="scale(-1 1) rotate(-17 168.933 1079.496)">
          <use fill="#D7F1FA" xlink:href="#ao"/>
          <use fill="#000" filter="url(#ap)" xlink:href="#ao"/>
          <use stroke="#429CB5" stroke-width=".756" xlink:href="#ao"/>
        </g>
      </g>
    </g>
    <g>
      <path fill="url(#aq)" fill-rule="nonzero" d="M108.213 43.812L4.726 103.866c-5.997 3.464-5.938 12.094 0 15.557l99.724 57.472a22.386 22.386 0 0 0 22.52-.059l98.96-57.413c5.997-3.463 5.938-12.093 0-15.557L121.736 43.812a13.567 13.567 0 0 0-13.524 0z" style="mix-blend-mode:multiply" transform="translate(48.43 134.273)"/>
      <path fill="#EDFAFF" fill-rule="nonzero" stroke="#429CB5" stroke-linecap="round" stroke-linejoin="round" stroke-width="2.592" d="M277.466 204.864h24.41c1.607 0 2.911 1.301 2.916 2.909l.046 17.574c0 .227-.018.451-.056.67-.06 2.953-1.545 5.878-4.474 7.57l-98.96 57.412a22.386 22.386 0 0 1-22.52.059l-99.723-57.472c-2.961-1.727-4.46-4.738-4.476-7.753a2.92 2.92 0 0 1-.018-.32l-.01-17.737h-.003v-.002a2.916 2.916 0 0 1 2.917-2.916l24.286.001 80.79-46.884a13.567 13.567 0 0 1 13.524 0l81.35 46.889z"/>
      <g fill-rule="nonzero" stroke-linecap="round" stroke-linejoin="round" transform="translate(48.43 134.273)">
        <use fill="#FFF" style="mix-blend-mode:screen" xlink:href="#ar"/>
        <use stroke="#429CB5" stroke-width="1.299" xlink:href="#ar"/>
      </g>
      <path fill="#EDFAFF" fill-rule="nonzero" stroke="#429CB5" stroke-linecap="round" stroke-linejoin="round" stroke-width="2.592" d="M263.01 186.737h14.492a4.86 4.86 0 0 1 4.56 3.18l4.302 11.682c1.882 3.476.944 8.178-2.875 10.401l-84.345 49.327a18.95 18.95 0 0 1-19.195.05L94.953 212c-3.911-2.299-4.83-7.247-2.688-10.751.039-.13.087-.26.145-.387l5.696-12.424a2.916 2.916 0 0 1 2.65-1.7h14.536l67.865-39.7a11.484 11.484 0 0 1 11.526 0l68.328 39.7z"/>
      <g fill-rule="nonzero" stroke-linecap="round" stroke-linejoin="round" transform="translate(48.43 134.273)">
        <use fill="#FFF" style="mix-blend-mode:screen" xlink:href="#as"/>
        <use stroke="#429CB5" stroke-width=".972" xlink:href="#as"/>
      </g>
      <path fill="#FFF" stroke="#429CB5" stroke-linejoin="round" stroke-width=".75" d="M229.04 194.6c2.82-1.656 2.82-4.367 0-6.024l-37.303-21.922c-2.819-1.656-7.432-1.656-10.251 0l-32.178 18.91c-2.819 1.657-2.819 4.368 0 6.024l37.304 21.922c2.82 1.657 7.432 1.657 10.252 0l32.177-18.91zm-57.635-6.176c-.016-5.741 7.933-10.418 17.755-10.446 9.822-.028 17.798 4.604 17.814 10.345.016 5.742-7.933 10.419-17.755 10.446-9.822.028-17.797-4.604-17.814-10.345z"/>
      <g>
        <g transform="translate(240.708 245.743)">
          <use fill="#FFF" fill-opacity=".68" xlink:href="#at"/>
          <use fill="#000" filter="url(#au)" xlink:href="#at"/>
          <use stroke="#429CB5" stroke-width=".75" xlink:href="#at"/>
        </g>
        <g transform="translate(243.916 245.743)">
          <use fill="#FFF" xlink:href="#av"/>
          <use fill="#000" filter="url(#aw)" xlink:href="#av"/>
          <use stroke="#429CB5" stroke-width=".75" xlink:href="#av"/>
        </g>
        <g transform="matrix(-1 0 0 1 259.076 245.743)">
          <use fill="#B4E8FC" xlink:href="#ax"/>
          <use fill="#000" filter="url(#ay)" xlink:href="#ax"/>
          <use stroke="#429CB5" stroke-width=".75" xlink:href="#ax"/>
        </g>
        <g transform="matrix(-1 0 0 1 259.076 245.743)">
          <use fill="#FFF" xlink:href="#az"/>
          <use fill="#000" filter="url(#aA)" xlink:href="#az"/>
          <use stroke="#429CB5" stroke-width=".75" xlink:href="#az"/>
        </g>
      </g>
      <g opacity=".827">
        <path fill="#29CDFF" fill-rule="nonzero" stroke="#7EDFFF" stroke-width="1.159" d="M252.951 182.58l.861 31.664c0 .937-.008 1.568-.555 2.115-.157.156-5.397 4.628-6.728 3.847.568-3.18.776-4.814.626-4.9l-2.268-1.307-105.772-60.944c-2.347-1.328-3.755-3.828-3.755-6.484l.381-20.355-1.163-64.593c0-.938.39-1.719.938-2.266l1.174-1.172c.939-.86 2.425-1.172 3.755-.39l108.751 62.66c2.347 1.327 3.755 3.828 3.755 6.484v55.64z" opacity=".887" style="mix-blend-mode:screen"/>
        <g fill-rule="nonzero" opacity=".886" transform="translate(131.448 57.24)">
          <use fill="#CAF7FF" style="mix-blend-mode:multiply" xlink:href="#aB"/>
          <use stroke="#7DDFFF" stroke-width="2.592" xlink:href="#aB"/>
        </g>
        <g fill-rule="nonzero" transform="translate(131.448 57.24)">
          <use fill="#41D3FF" style="mix-blend-mode:multiply" xlink:href="#aC"/>
          <use fill="#000" filter="url(#aD)" xlink:href="#aC"/>
        </g>
        <path stroke="#AFEDFF" stroke-width="1.448" d="M201.993 168.17c.909.439 2.172 1.131 3.789 2.078 2.425 1.42 1.344-.64 2.011-3.06s4.222-.365 4.798 2.772c.576 3.137.187 5.28 2.37 6.502 2.182 1.222 1.248-4.767 2.09-7.206.84-2.438 3.705-.635 4.496 2.715.79 3.35-.445 10.29 2.765 12.23 3.211 1.942.742-6.003 4.245-3.735 3.504 2.267.187 6.114 3.455 8.189" opacity=".785"/>
        <g fill="#7FE0FF" fill-rule="nonzero">
          <path d="M174.87 105.872l-28.713-16.567v1.727l28.713 16.645v-1.805M174.792 110.504l-28.635-16.646v1.806l28.635 16.567v-1.727M146.157 98.491v1.727l18.855 10.993v-1.806z"/>
        </g>
      </g>
      <g>
        <g transform="rotate(2 -3334.765 4748.11)">
          <mask id="aF" fill="#fff">
            <use xlink:href="#aE"/>
          </mask>
          <path stroke="#85E1FE" stroke-width="3" d="M4.095.589l17.607 8.753c2.122 1.055 3.842 3.391 3.842 5.218v24.81c0 1.827-1.72 2.453-3.842 1.398L4.095 32.015C1.973 30.96.253 28.624.253 26.797V1.987C.253.16 1.973-.466 4.095.589z" mask="url(#aF)"/>
        </g>
        <g transform="rotate(2 -3270.618 4240.805)">
          <mask id="aH" fill="#fff">
            <use xlink:href="#aG"/>
          </mask>
          <path stroke="#7DDFFF" stroke-width="3" d="M2.95.571l13.126 6.526c1.591.79 2.881 2.543 2.881 3.913v18.745c0 1.37-1.29 1.84-2.881 1.049L2.951 24.278c-1.592-.79-2.882-2.543-2.882-3.913V1.62C.07.25 1.36-.22 2.951.57z" mask="url(#aH)"/>
        </g>
        <g transform="rotate(2 -3954.562 4959.727)">
          <mask id="aJ" fill="#fff">
            <use xlink:href="#aI"/>
          </mask>
          <path stroke="#7DDFFF" stroke-width="3" d="M1.854.302l6.883 3.422c.929.461 1.681 1.484 1.681 2.283v9.786c0 .8-.752 1.073-1.68.611l-6.884-3.421C.926 12.52.174 11.499.174 10.7V.914c0-.8.752-1.073 1.68-.612z" mask="url(#aJ)"/>
        </g>
        <path d="M183.245 134.853l-3.458-1.872 3.458 1.872z"/>
        <path stroke="#86DDF9" stroke-linecap="round" stroke-width="1.5" d="M179.787 132.98l3.458 1.873"/>
        <path d="M183.1 138.986l-3.458-1.873 3.459 1.873z"/>
        <path stroke="#86DDF9" stroke-linecap="round" stroke-width="1.5" d="M179.643 137.113l3.458 1.873"/>
        <path d="M182.956 143.118l-3.458-1.872 3.458 1.872z"/>
        <path stroke="#86DDF9" stroke-linecap="round" stroke-width="1.5" d="M179.498 141.246l3.458 1.872"/>
        <path d="M173.813 129.747l-3.458-1.873 3.458 1.873z"/>
        <path stroke="#86DDF9" stroke-linecap="round" stroke-width="1.5" d="M170.355 127.874l3.458 1.872"/>
        <path d="M173.67 133.879l-3.46-1.873 3.46 1.873z"/>
        <path stroke="#86DDF9" stroke-linecap="round" stroke-width="1.5" d="M170.21 132.006l3.46 1.873"/>
        <path d="M173.525 138.012l-3.459-1.873 3.459 1.873z"/>
        <path stroke="#86DDF9" stroke-linecap="round" stroke-width="1.5" d="M170.066 136.139l3.459 1.873"/>
      </g>
      <g fill-rule="nonzero" transform="translate(48.43 57.24)">
        <use fill="#FFF" xlink:href="#aK"/>
        <use fill="#000" filter="url(#aL)" xlink:href="#aK"/>
        <use stroke="#429CB5" stroke-width=".75" xlink:href="#aK"/>
      </g>
      <g fill-rule="nonzero" transform="matrix(-1 0 0 1 433.122 57.24)">
        <use fill="#FFF" xlink:href="#aM"/>
        <use fill="#000" filter="url(#aN)" xlink:href="#aM"/>
        <use stroke="#429CB5" stroke-width=".75" xlink:href="#aM"/>
      </g>
    </g>
    <path fill="url(#aO)" fill-rule="nonzero" d="M54.66 149.31l-10.456 8.125-.48 19.842h-3.88L7.168 195.692a4.5 4.5 0 0 0-.108 7.777l78.5 47.165a18 18 0 0 0 18.514.016l33.818-20.239 1.165-18.62 10.954-6.722c-3.65-.48-6.745-1.345-9.284-2.596-16.858-8.31-32.518-18.358-41.498-23.609-9.447-5.524-24.86-12.473-39.976-23.027-1.665-1.163-3.196-3.339-4.594-6.528z" opacity=".572" style="mix-blend-mode:multiply" transform="translate(38 57)"/>
    <g>
      <path fill="#8BE4FF" d="M231.539 142.222v23.536l-1.978-1.096v-23.537z"/>
      <path fill="#28C3FF" d="M228.149 150.15v13.343l-1.978-1.095v-13.345z"/>
      <path fill="#8BE4FF" d="M222.498 132.31v28.07l-1.978-1.096v-28.069z"/>
      <path fill="#28C3FF" d="M219.108 144.77v13.344l-1.978-1.096v-13.345z"/>
      <path fill="#8BE4FF" d="M212.892 138.544V155l-1.978-1.099v-16.456z"/>
      <path fill="#28C3FF" d="M209.501 143.362v9.372l-1.977-1.105v-9.37z"/>
    </g>
  </g>
</svg>