<svg xmlns="http://www.w3.org/2000/svg" width="71" height="81" viewBox="0 0 71 81">
  <g fill="none" fill-rule="evenodd" stroke="#111" stroke-linecap="square" stroke-width="3" transform="translate(1 1)">
    <polyline points="53.548 34.194 53.548 8.387 14.839 8.387 14.839 41.935"/>
    <path d="M29.0322581 78.0645161L39.3548387 78.0645161M34.1935484.64516129L34.1935484 8.38709677"/>
    <rect width="28.387" height="28.387" x=".645" y="49.677"/>
    <rect width="28.387" height="36.129" x="39.355" y="41.935"/>
    <path d="M25.1612903 17.4193548L43.2258065 17.4193548M25.1612903 25.1612903L43.2258065 25.1612903M25.1612903 32.9032258L43.2258065 32.9032258M10.9677419 60L18.7096774 60M49.6774194 52.2580645L57.4193548 52.2580645M49.6774194 60L57.4193548 60M49.6774194 67.7419355L57.4193548 67.7419355M10.9677419 67.7419355L18.7096774 67.7419355"/>
  </g>
</svg>
