<svg width="48" height="48" viewBox="0 0 48 48" fill="none" xmlns="http://www.w3.org/2000/svg">
<rect width="48" height="48" fill="white"/>
<path fill-rule="evenodd" clip-rule="evenodd" d="M26.2932 28.707C26.4807 28.8945 26.735 28.9998 27.0002 28.9998C27.2654 28.9998 27.5197 28.8945 27.7072 28.707L31.7072 24.707C31.8947 24.5195 32 24.2652 32 24C32 23.7349 31.8947 23.4806 31.7072 23.293L27.7072 19.293C27.5186 19.1109 27.266 19.0101 27.0038 19.0124C26.7416 19.0146 26.4908 19.1198 26.3054 19.3052C26.12 19.4906 26.0148 19.7414 26.0125 20.0036C26.0103 20.2658 26.1111 20.5184 26.2932 20.707L28.5862 23H17.0002C16.735 23 16.4806 23.1054 16.2931 23.2929C16.1056 23.4805 16.0002 23.7348 16.0002 24C16.0002 24.2653 16.1056 24.5196 16.2931 24.7071C16.4806 24.8947 16.735 25 17.0002 25H28.5862L26.2932 27.293C26.1057 27.4806 26.0004 27.7349 26.0004 28C26.0004 28.2652 26.1057 28.5195 26.2932 28.707Z" fill="black"/>
</svg>
