<svg width="16" height="16" xmlns="http://www.w3.org/2000/svg"><path d="M6.57 8.667a2.334 2.334 0 0 1-4.473 0H.667a.667.667 0 1 1 0-1.333h1.43a2.334 2.334 0 0 1 4.473 0h8.763a.667.667 0 0 1 0 1.333H6.57zM9.43 13a2.334 2.334 0 0 1 4.473 0h1.43a.667.667 0 1 1 0 1.333h-1.43a2.334 2.334 0 0 1-4.473 0H.667a.667.667 0 1 1 0-1.333H9.43zm0-11.333a2.334 2.334 0 0 1 4.473 0h1.43a.667.667 0 0 1 0 1.333h-1.43A2.334 2.334 0 0 1 9.43 3H.667a.667.667 0 1 1 0-1.333H9.43zm2.237 1.666a1 1 0 1 0 0-2 1 1 0 0 0 0 2zm0 11.334a1 1 0 1 0 0-2 1 1 0 0 0 0 2zM4.333 7a1 1 0 1 0 0 2 1 1 0 0 0 0-2z" fill-rule="nonzero"/></svg>