<svg width="15" height="15" viewBox="0 0 15 15" xmlns="http://www.w3.org/2000/svg">
  <path d="M11.5517 4.39266C11.6185 4.35012 11.6945 4.28328 11.7795 4.19214V4.20125C11.7795 4.21341 11.7507 4.24379 11.693 4.2924C11.6352 4.34101 11.6003 4.37747 11.5881 4.40177C11.5821 4.3957 11.5699 4.39266 11.5517 4.39266ZM11.497 4.40177C11.4909 4.3957 11.4833 4.38658 11.4742 4.37443C11.4651 4.36228 11.4605 4.35316 11.4605 4.34709C11.4788 4.35924 11.5091 4.37443 11.5517 4.39266C11.5152 4.41696 11.497 4.42 11.497 4.40177ZM7.31339 2.73381C7.21617 2.72165 7.13718 2.70646 7.07642 2.68823C7.08249 2.68823 7.10224 2.69127 7.13566 2.69735C7.16908 2.70342 7.20098 2.7095 7.23136 2.71558C7.26175 2.72165 7.28909 2.72773 7.31339 2.73381ZM7.72355 2.39657C7.76609 2.37226 7.8071 2.36466 7.8466 2.37378C7.88609 2.38289 7.90888 2.40568 7.91496 2.44214C7.88458 2.42391 7.82077 2.40872 7.72355 2.39657ZM7.65063 2.45125L7.62329 2.43302C7.61114 2.41479 7.59443 2.3996 7.57316 2.38745C7.55189 2.3753 7.53822 2.36922 7.53214 2.36922C7.5443 2.3753 7.6081 2.38441 7.72355 2.39657C7.68709 2.42087 7.66279 2.4391 7.65063 2.45125ZM6.72095 1.68563V1.6674C6.72702 1.67955 6.73614 1.69626 6.74829 1.71753C6.76044 1.7388 6.76956 1.75551 6.77563 1.76766L6.72095 1.68563ZM5.76392 2.05021C5.76392 2.06236 5.76088 2.06844 5.7548 2.06844L5.74569 2.05021H5.76392ZM9.18188 11.5658V11.575V11.5658ZM7.67798 0.610107C8.94794 0.610107 10.1192 0.923041 11.1917 1.54891C12.2641 2.17478 13.1133 3.02395 13.7392 4.09644C14.365 5.16892 14.678 6.34014 14.678 7.61011C14.678 8.88007 14.365 10.0513 13.7392 11.1238C13.1133 12.1963 12.2641 13.0454 11.1917 13.6713C10.1192 14.2972 8.94794 14.6101 7.67798 14.6101C6.40801 14.6101 5.23679 14.2972 4.16431 13.6713C3.09182 13.0454 2.24265 12.1963 1.61678 11.1238C0.990913 10.0513 0.677979 8.88007 0.677979 7.61011C0.677979 6.34014 0.990913 5.16892 1.61678 4.09644C2.24265 3.02395 3.09182 2.17478 4.16431 1.54891C5.23679 0.923041 6.40801 0.610107 7.67798 0.610107ZM11.9801 11.9669L12.0256 11.9213C11.9831 11.8605 11.895 11.8241 11.7613 11.8119C11.7674 11.739 11.7249 11.6585 11.6337 11.5704C11.5426 11.4823 11.4605 11.4352 11.3876 11.4291C11.3876 11.4048 11.3557 11.3714 11.2919 11.3289C11.2281 11.2863 11.1749 11.262 11.1324 11.2559C11.0777 11.2438 10.9957 11.2711 10.8863 11.338C10.8438 11.3562 10.8316 11.3714 10.8499 11.3835C10.8316 11.3653 10.7952 11.3319 10.7405 11.2833C10.6858 11.2347 10.6372 11.2013 10.5946 11.183C10.5825 11.1769 10.5597 11.1739 10.5263 11.1739C10.4929 11.1739 10.467 11.1678 10.4488 11.1557C10.4427 11.1496 10.4245 11.1359 10.3941 11.1147C10.3637 11.0934 10.3425 11.0797 10.3303 11.0736C10.3182 11.0676 10.2984 11.0585 10.2711 11.0463C10.2437 11.0342 10.2209 11.0296 10.2027 11.0326C10.1845 11.0357 10.1617 11.0433 10.1344 11.0554C10.107 11.0676 10.0812 11.0858 10.0569 11.1101C10.0326 11.1344 10.0189 11.1815 10.0159 11.2514C10.0128 11.3213 10.0052 11.3653 9.99308 11.3835C9.94447 11.3471 9.94295 11.2863 9.98853 11.2013C10.0341 11.1162 10.0387 11.0554 10.0022 11.019C9.95966 10.9764 9.89586 10.9749 9.81079 11.0144C9.72572 11.0539 9.66192 11.101 9.61938 11.1557C9.61331 11.1618 9.58445 11.1785 9.5328 11.2058C9.48115 11.2332 9.44621 11.2559 9.42798 11.2742C9.40367 11.3106 9.37633 11.3638 9.34595 11.4337C9.31557 11.5036 9.29734 11.5446 9.29126 11.5567C9.29126 11.5446 9.28366 11.5248 9.26847 11.4975C9.25328 11.4701 9.24569 11.4504 9.24569 11.4382C9.17277 11.4504 9.12416 11.4413 9.09985 11.4109C9.13024 11.5081 9.15454 11.5598 9.17277 11.5658L9.13631 11.5476C9.13024 11.5841 9.13935 11.6296 9.16366 11.6843C9.18796 11.739 9.20011 11.7724 9.20011 11.7846C9.20619 11.815 9.20163 11.8545 9.18644 11.9031C9.17125 11.9517 9.16366 11.9851 9.16366 12.0033C9.16366 12.0155 9.17885 12.0489 9.20923 12.1036C9.23353 12.219 9.22746 12.3163 9.191 12.3953C9.191 12.4013 9.18037 12.4226 9.1591 12.4591C9.13783 12.4955 9.11808 12.5289 9.09985 12.5593L9.08162 12.6049L9.06339 12.5958C9.05732 12.5897 9.05124 12.5897 9.04517 12.5958C9.03909 12.6322 9.01175 12.6717 8.96313 12.7143C8.91452 12.7568 8.88414 12.7902 8.87199 12.8145C8.78084 12.9543 8.7535 13.0697 8.78996 13.1609C8.80819 13.2095 8.83857 13.2399 8.8811 13.252C8.89933 13.2581 8.90845 13.252 8.90845 13.2338C8.91452 13.2885 8.8811 13.3705 8.80819 13.4799C8.81426 13.486 8.82642 13.4951 8.84464 13.5072C8.74135 13.5072 8.71096 13.5498 8.7535 13.6348C9.98093 13.4161 11.0504 12.8662 11.9618 11.9851H11.9345L11.9801 11.9669ZM6.87589 10.2807C6.97312 10.2625 7.06578 10.3111 7.15389 10.4265C7.242 10.542 7.31036 10.6118 7.35897 10.6361C7.6081 10.7577 7.78735 10.7911 7.89673 10.7364C7.89673 10.7911 7.93926 10.8762 8.02433 10.9916C8.04256 11.0159 8.06231 11.0509 8.08358 11.0964C8.10484 11.142 8.12155 11.1739 8.13371 11.1921C8.16409 11.2347 8.22182 11.2833 8.30688 11.338C8.39195 11.3927 8.44968 11.4413 8.48006 11.4838C8.51652 11.4656 8.54386 11.4382 8.56209 11.4018C8.64109 11.6144 8.714 11.7177 8.78084 11.7117C8.81122 11.7117 8.83553 11.6874 8.85376 11.6388C8.85376 11.6448 8.85224 11.6539 8.8492 11.6661C8.84616 11.6782 8.84161 11.6874 8.83553 11.6934C8.87807 11.6023 8.89326 11.5233 8.8811 11.4565L8.93579 11.42C8.96617 11.3957 8.98136 11.3805 8.98136 11.3744C8.94491 11.338 8.91756 11.3471 8.89933 11.4018C8.71704 11.4868 8.57121 11.42 8.46183 11.2013C8.44968 11.183 8.43601 11.1587 8.42082 11.1283C8.40563 11.098 8.39043 11.0615 8.37524 11.019C8.36005 10.9764 8.3555 10.9415 8.36157 10.9141C8.36765 10.8868 8.38588 10.8731 8.41626 10.8731C8.4831 10.8731 8.52108 10.8686 8.53019 10.8595C8.53931 10.8503 8.53171 10.8321 8.50741 10.8048C8.4831 10.7774 8.47095 10.7546 8.47095 10.7364C8.46487 10.7121 8.46031 10.6741 8.45728 10.6225C8.45424 10.5708 8.44968 10.5329 8.4436 10.5085L8.39803 10.4539C8.36765 10.4174 8.33271 10.3764 8.29321 10.3308C8.25372 10.2852 8.23093 10.2564 8.22485 10.2442C8.20055 10.305 8.15042 10.3308 8.07446 10.3217C7.99851 10.3126 7.9423 10.2837 7.90584 10.2351C7.91192 10.2473 7.9104 10.267 7.90129 10.2944C7.89217 10.3217 7.88761 10.3414 7.88761 10.3536C7.80254 10.3536 7.75089 10.3506 7.73267 10.3445C7.73874 10.308 7.74786 10.2442 7.76001 10.1531C7.77216 10.0619 7.78432 9.99509 7.79647 9.95256C7.80254 9.92217 7.81925 9.88116 7.8466 9.82951C7.87394 9.77786 7.89825 9.73077 7.91951 9.68823C7.94078 9.6457 7.95445 9.60316 7.96053 9.56063C7.96661 9.51809 7.95293 9.48619 7.91951 9.46492C7.88609 9.44366 7.82989 9.43606 7.75089 9.44214C7.62937 9.44821 7.54126 9.51506 7.48657 9.64266C7.4805 9.66089 7.47138 9.69583 7.45923 9.74748C7.44708 9.79913 7.43188 9.8371 7.41366 9.86141C7.39543 9.88571 7.36808 9.90698 7.33162 9.92521C7.28301 9.94344 7.20098 9.94952 7.08553 9.94344C6.97008 9.93736 6.89109 9.92217 6.84855 9.89787C6.76348 9.84926 6.69057 9.75659 6.6298 9.61987C6.56904 9.48315 6.53562 9.35707 6.52954 9.24162C6.52954 9.18085 6.53866 9.0973 6.55688 8.99097C6.57511 8.88463 6.58423 8.8026 6.58423 8.74487C6.58423 8.68715 6.566 8.60663 6.52954 8.50334C6.54777 8.49118 6.57815 8.45928 6.62069 8.40763C6.66322 8.35598 6.69664 8.32104 6.72095 8.30282C6.7331 8.29066 6.74829 8.28459 6.76652 8.28459H6.81209L6.84855 8.26636C6.87286 8.2542 6.88197 8.23598 6.87589 8.21167C6.86982 8.20559 6.85767 8.19648 6.83944 8.18433C6.82121 8.1661 6.80905 8.15698 6.80298 8.15698C6.82728 8.17521 6.88501 8.17825 6.97616 8.1661C7.0673 8.15394 7.12503 8.14787 7.14933 8.14787C7.14933 8.14179 7.21617 8.14179 7.34985 8.14787C7.45315 8.22686 7.52607 8.22078 7.5686 8.12964C7.5686 8.12356 7.56101 8.09166 7.54582 8.03394C7.53063 7.97621 7.52911 7.93216 7.54126 7.90177C7.57164 8.07799 7.66886 8.10837 7.83293 7.99292C7.85116 8.01723 7.90129 8.03545 7.98332 8.04761C8.06535 8.05976 8.12155 8.07495 8.15194 8.09318C8.17017 8.10533 8.19143 8.12204 8.21574 8.14331C8.24004 8.16458 8.25827 8.17977 8.27043 8.18888C8.28258 8.198 8.30081 8.19952 8.32511 8.19344C8.34942 8.18736 8.37676 8.1661 8.40714 8.12964C8.47399 8.23294 8.51348 8.30889 8.52563 8.3575C8.59247 8.61879 8.65324 8.76462 8.70793 8.795C8.75654 8.80716 8.79451 8.81323 8.82186 8.81323C8.8492 8.81323 8.86439 8.78133 8.86743 8.71753C8.87047 8.65373 8.87047 8.60663 8.86743 8.57625C8.86439 8.54587 8.85984 8.50637 8.85376 8.45776L8.83553 8.12052C8.73831 8.10229 8.67754 8.06432 8.65324 8.00659C8.62893 7.94887 8.63349 7.8881 8.66691 7.8243C8.70033 7.7605 8.75046 7.70125 8.8173 7.64657C8.82338 7.64049 8.87351 7.61618 8.96769 7.57365C9.06188 7.53111 9.1272 7.49466 9.16366 7.46427C9.30949 7.34882 9.36114 7.23033 9.3186 7.10881C9.37329 7.12096 9.40671 7.09361 9.41886 7.02677L9.37329 6.99943C9.34899 6.9812 9.32468 6.96449 9.30037 6.9493C9.27607 6.93411 9.26088 6.92955 9.2548 6.93563C9.32164 6.89309 9.32772 6.83841 9.27303 6.77157C9.30341 6.75334 9.32772 6.7184 9.34595 6.66675C9.36418 6.6151 9.39152 6.58016 9.42798 6.56193C9.48267 6.647 9.54951 6.65611 9.6285 6.58927C9.67711 6.53459 9.68319 6.4799 9.64673 6.42521C9.67711 6.3766 9.74395 6.34166 9.84725 6.32039C9.95055 6.29913 10.0113 6.27026 10.0295 6.23381C10.0599 6.23988 10.0812 6.23988 10.0933 6.23381C10.1055 6.22773 10.1116 6.21406 10.1116 6.19279V6.12443L10.1207 6.04696C10.1268 5.99531 10.1359 5.97252 10.148 5.9786C10.1723 5.94214 10.2209 5.91024 10.2939 5.88289C10.3668 5.85555 10.4093 5.83884 10.4215 5.83276L10.5946 5.72339C10.619 5.69908 10.619 5.68693 10.5946 5.68693C10.704 5.69908 10.8012 5.66566 10.8863 5.58667C10.9653 5.51375 10.9501 5.44387 10.8407 5.37703C10.8529 5.3345 10.8407 5.3026 10.8043 5.28133C10.7678 5.26006 10.7192 5.24335 10.6584 5.2312C10.6767 5.22512 10.7131 5.22361 10.7678 5.22664C10.8225 5.22968 10.859 5.22512 10.8772 5.21297C10.9683 5.14613 10.9471 5.09448 10.8134 5.05802C10.6919 5.02764 10.5491 5.06714 10.385 5.17651C10.3668 5.18867 10.3273 5.22512 10.2665 5.28589C10.2058 5.34665 10.1541 5.38007 10.1116 5.38615C10.2027 5.27677 10.2179 5.20993 10.1571 5.18563C10.2058 5.1917 10.2741 5.16436 10.3622 5.1036C10.4503 5.04283 10.4974 5.00941 10.5035 5.00334C10.5278 4.99118 10.5597 4.98359 10.5992 4.98055C10.6387 4.97751 10.6645 4.97295 10.6767 4.96688C11.1081 4.81497 11.3876 4.81801 11.5152 4.97599C11.5638 4.90915 11.5972 4.86358 11.6155 4.83927C11.6337 4.81497 11.6626 4.78762 11.7021 4.75724C11.7416 4.72686 11.7887 4.70256 11.8433 4.68433C11.9709 4.64179 12.0408 4.61445 12.053 4.60229L12.0621 4.39266C11.9892 4.39874 11.9345 4.37443 11.898 4.31974C11.8616 4.26506 11.8403 4.19821 11.8342 4.11922L11.7795 4.19214C11.7795 4.15568 11.7689 4.13289 11.7476 4.12378C11.7264 4.11466 11.7036 4.11315 11.6793 4.11922C11.655 4.1253 11.6261 4.13137 11.5927 4.13745C11.5593 4.14353 11.5365 4.14353 11.5243 4.13745C11.4696 4.1253 11.4104 4.07821 11.3466 3.99618C11.2828 3.91414 11.2387 3.86401 11.2144 3.84578C11.2691 3.84578 11.2965 3.83059 11.2965 3.80021C11.2843 3.76983 11.2539 3.74552 11.2053 3.72729C11.2114 3.69084 11.2053 3.66653 11.1871 3.65438C11.1689 3.64223 11.1415 3.64223 11.1051 3.65438C11.0929 3.58146 11.0899 3.54196 11.0959 3.53589C11.0595 3.52981 11.0261 3.49639 10.9957 3.43563C10.9653 3.37486 10.941 3.34448 10.9228 3.34448C10.9106 3.34448 10.8969 3.35056 10.8818 3.36271C10.8666 3.37486 10.8514 3.39157 10.8362 3.41284L10.7906 3.47664L10.7587 3.52677L10.7405 3.545C10.6676 3.50854 10.5946 3.53893 10.5217 3.63615C10.467 3.63007 10.4154 3.63615 10.3668 3.65438C10.4579 3.61792 10.464 3.57842 10.385 3.53589C10.3182 3.50551 10.2544 3.49943 10.1936 3.51766C10.2665 3.48728 10.2969 3.44474 10.2847 3.39006C10.2726 3.33537 10.2361 3.28676 10.1754 3.24422C10.1815 3.24422 10.1936 3.24726 10.2118 3.25334C10.2301 3.25941 10.2422 3.26245 10.2483 3.26245C10.2422 3.23207 10.2134 3.20321 10.1617 3.17586C10.1101 3.14852 10.0508 3.12118 9.98397 3.09383C9.91713 3.06649 9.87459 3.04674 9.85636 3.03459C9.81383 3.0042 9.70445 2.9723 9.52824 2.93888C9.35202 2.90546 9.24265 2.90091 9.20011 2.92521C9.16973 2.94344 9.1515 2.96167 9.14543 2.9799C9.13935 2.99813 9.14391 3.02395 9.1591 3.05737C9.17429 3.09079 9.18492 3.11662 9.191 3.13485C9.22746 3.2746 9.24265 3.35664 9.23657 3.38094C9.2305 3.39917 9.20467 3.42348 9.1591 3.45386C9.11353 3.48424 9.09682 3.5207 9.10897 3.56323C9.11504 3.58754 9.14998 3.61792 9.21379 3.65438C9.27759 3.69084 9.31557 3.72729 9.32772 3.76375C9.3581 3.84275 9.34595 3.9187 9.29126 3.99162C9.26695 4.022 9.22138 4.05542 9.15454 4.09188C9.0877 4.12834 9.04517 4.15872 9.02694 4.18302C8.99655 4.21341 8.98592 4.24835 8.99504 4.28784C9.00415 4.32734 9.00567 4.3562 8.99959 4.37443C9.00567 4.36835 9.00871 4.36076 9.00871 4.35164C9.00871 4.34253 9.01175 4.33493 9.01782 4.32886C9.01782 4.40785 9.05124 4.47469 9.11808 4.52938C9.16669 4.56584 9.11808 4.62052 8.97225 4.69344C8.85072 4.76028 8.78996 4.77243 8.78996 4.7299C8.79603 4.68129 8.77325 4.63268 8.7216 4.58407C8.66995 4.53545 8.63805 4.499 8.62589 4.47469C8.61374 4.45039 8.60311 4.39266 8.59399 4.30151C8.58488 4.21037 8.55602 4.14657 8.50741 4.11011C8.47095 4.0858 8.41322 4.07365 8.33423 4.07365C8.25524 4.07365 8.20055 4.08884 8.17017 4.11922C8.17017 4.05846 8.02129 3.96731 7.72355 3.84578C7.62025 3.79717 7.44404 3.78502 7.19491 3.80933C7.23744 3.80325 7.23744 3.7516 7.19491 3.65438C7.14629 3.55716 7.08249 3.5207 7.0035 3.545C6.95489 3.39309 6.94274 3.28676 6.96704 3.22599C6.97919 3.19561 7.00654 3.15308 7.04907 3.09839C7.09161 3.0437 7.11895 2.99813 7.1311 2.96167C7.13718 2.94344 7.18427 2.92521 7.27238 2.90698C7.36049 2.88875 7.41062 2.86445 7.42277 2.83407C7.42885 2.80976 7.42125 2.79001 7.39998 2.77482C7.37872 2.75963 7.34985 2.74596 7.31339 2.73381C7.63544 2.77026 7.82685 2.71558 7.88761 2.56974C7.918 2.51506 7.92711 2.47252 7.91496 2.44214C7.91496 2.44821 7.92103 2.45125 7.93319 2.45125C7.94534 2.45125 7.95142 2.45429 7.95142 2.46037C8.02433 2.44214 8.0456 2.39049 8.01522 2.30542C8.13067 2.25681 8.20966 2.2325 8.2522 2.2325C8.28258 2.23858 8.316 2.25681 8.35246 2.28719C8.38892 2.31757 8.4193 2.33276 8.4436 2.33276C8.5469 2.35099 8.61222 2.32061 8.63957 2.24162C8.66691 2.16262 8.63805 2.09275 8.55298 2.03198C8.59551 2.05629 8.61678 2.03806 8.61678 1.97729C8.6107 1.8983 8.58944 1.84058 8.55298 1.80412C8.53475 1.79197 8.515 1.78437 8.49373 1.78133C8.47247 1.77829 8.45272 1.77829 8.43449 1.78133C8.41626 1.78437 8.39499 1.78285 8.37069 1.77677C8.36461 1.77677 8.3403 1.7707 8.29777 1.75854C8.29169 1.76462 8.28562 1.76766 8.27954 1.76766H8.20662C8.18232 1.77981 8.17017 1.795 8.17017 1.81323V1.82235C8.16409 1.84058 8.17624 1.85881 8.20662 1.87703L8.2522 1.88615L8.27954 1.90438C8.27346 1.90438 8.26587 1.91197 8.25675 1.92716C8.24764 1.94236 8.24004 1.94995 8.23397 1.94995C8.23397 1.96818 8.24308 1.98337 8.26131 1.99552C8.24916 2.0016 8.20662 2.02439 8.13371 2.06388C8.06079 2.10338 8.00914 2.13528 7.97876 2.15959C7.97268 2.16566 7.96053 2.17326 7.9423 2.18237C7.92407 2.19149 7.91192 2.19908 7.90584 2.20516C7.89369 2.21124 7.88154 2.20516 7.86938 2.18693C7.85723 2.1687 7.84508 2.14136 7.83293 2.1049C7.82077 2.06844 7.80862 2.0335 7.79647 2.00008C7.78432 1.96666 7.77064 1.93628 7.75545 1.90894C7.74026 1.88159 7.72355 1.86792 7.70532 1.86792C7.63241 1.86792 7.57772 1.91957 7.54126 2.02287C7.55949 1.9621 7.51999 1.90894 7.42277 1.86336C7.32555 1.81779 7.24959 1.795 7.19491 1.795C7.31643 1.70386 7.28909 1.61271 7.11287 1.52157L7.10376 1.51245C6.92147 1.53676 6.78475 1.55802 6.6936 1.57625C6.68145 1.61271 6.69057 1.64917 6.72095 1.68563C6.71487 1.72816 6.7331 1.75551 6.77563 1.76766C6.77563 1.77374 6.77715 1.77677 6.78019 1.77677C6.78323 1.77677 6.78475 1.77981 6.78475 1.78589C6.78475 1.77981 6.78323 1.77677 6.78019 1.77677C6.77715 1.77677 6.77563 1.77374 6.77563 1.76766C6.79386 1.77374 6.82576 1.77829 6.87134 1.78133C6.91691 1.78437 6.94577 1.78893 6.95793 1.795C6.97616 1.80108 6.98983 1.80716 6.99894 1.81323L7.0673 1.85881L7.11743 1.91349C7.15085 1.94995 7.14326 1.96514 7.09464 1.95907C7.08249 1.96514 7.05515 1.97729 7.01261 1.99552C6.97008 2.01375 6.9321 2.03046 6.89868 2.04565C6.86526 2.06085 6.84551 2.07148 6.83944 2.07756C6.82121 2.10794 6.82121 2.15655 6.83944 2.22339C6.85767 2.29023 6.85159 2.3358 6.82121 2.36011C6.79083 2.32973 6.76044 2.27352 6.73006 2.19149C6.69968 2.10946 6.67537 2.05629 6.65714 2.03198C6.70576 2.08667 6.61461 2.1049 6.38371 2.08667L6.31079 2.07756C6.28649 2.07756 6.24091 2.08363 6.17407 2.09578C6.10723 2.10794 6.05862 2.11098 6.02824 2.1049C5.9857 2.1049 5.8976 2.08667 5.76392 2.05021C5.80645 1.94691 5.82164 1.87096 5.80949 1.82235C5.83987 1.82235 5.86114 1.81627 5.87329 1.80412L5.8186 1.77677C5.80037 1.78285 5.72442 1.81019 5.59074 1.85881C5.60289 1.87703 5.6272 1.9059 5.66366 1.94539C5.70011 1.98489 5.72746 2.01983 5.74569 2.05021C5.61201 2.01375 5.52997 2.01983 5.49959 2.06844C5.49959 2.07452 5.47225 2.07452 5.41756 2.06844C5.26565 2.06236 5.19274 2.08363 5.19881 2.13224C5.20489 2.15655 5.23223 2.19301 5.28084 2.24162C5.28084 2.29631 5.2778 2.32365 5.27173 2.32365C5.10767 2.18997 5.01652 2.12009 4.99829 2.11401C3.95315 2.61835 3.11461 3.37183 2.48267 4.37443C2.48874 4.38658 2.49634 4.42 2.50545 4.47469C2.51457 4.52938 2.5252 4.5552 2.53735 4.55216C2.54951 4.54913 2.58293 4.53545 2.63761 4.51115C2.6923 4.56584 2.70142 4.62964 2.66496 4.70256C2.67711 4.6904 2.78649 4.7542 2.99308 4.89396C3.33336 5.13702 3.4002 5.29804 3.1936 5.37703V5.3269L3.20272 5.26766C3.14803 5.27374 3.0903 5.25854 3.02954 5.22209C3.01131 5.25854 3.01283 5.31931 3.0341 5.40438C3.05537 5.48945 3.0903 5.53198 3.13892 5.53198C3.0903 5.53198 3.0584 5.58363 3.04321 5.68693C3.02802 5.79023 3.02043 5.9072 3.02043 6.03784C3.02043 6.16848 3.01739 6.24596 3.01131 6.27026L3.02954 6.27938C3.01131 6.35837 3.02954 6.4723 3.08423 6.62117C3.13892 6.77005 3.21183 6.83233 3.30298 6.80802C3.27867 6.9174 3.29386 6.9812 3.34855 6.99943C3.34247 7.02374 3.34247 7.04804 3.34855 7.07235C3.35463 7.09665 3.3683 7.12248 3.38957 7.14982C3.41083 7.17716 3.42906 7.19843 3.44425 7.21362L3.51261 7.28198L3.5673 7.33667C3.73744 7.40351 3.86201 7.49162 3.941 7.60099C3.9653 7.63745 3.99721 7.71189 4.0367 7.8243C4.0762 7.93671 4.12329 8.01419 4.17798 8.05672C4.16583 8.09318 4.19621 8.1585 4.26912 8.25269C4.34204 8.34687 4.37546 8.42434 4.36938 8.48511C4.36331 8.48511 4.35571 8.48663 4.3466 8.48966C4.33748 8.4927 4.32989 8.49422 4.32381 8.49422C4.34204 8.54283 4.39217 8.59144 4.4742 8.64006C4.55623 8.68867 4.60636 8.7312 4.62459 8.76766C4.63675 8.78589 4.64434 8.81779 4.64738 8.86336C4.65042 8.90894 4.65953 8.94539 4.67472 8.97274C4.68991 9.00008 4.71574 9.00768 4.7522 8.99552C4.77043 8.84969 4.69143 8.64309 4.51522 8.37573C4.418 8.21167 4.36331 8.11749 4.35116 8.09318C4.33293 8.0628 4.31622 8.01267 4.30103 7.94279C4.28583 7.87291 4.27216 7.82582 4.26001 7.80151C4.42407 7.8562 4.50307 7.8957 4.49699 7.92C4.46661 7.98077 4.5456 8.13875 4.73397 8.39396C4.74612 8.41219 4.7765 8.44257 4.82511 8.48511C4.87372 8.52764 4.90715 8.5641 4.92537 8.59448C4.9436 8.61879 4.97247 8.66284 5.01196 8.72664C5.05146 8.79045 5.08336 8.83754 5.10767 8.86792C5.10159 8.86792 5.09247 8.874 5.08032 8.88615L5.05298 8.91349C5.07728 8.92565 5.10463 8.94084 5.13501 8.95907C5.16539 8.97729 5.1897 8.99097 5.20793 9.00008C5.22616 9.0092 5.24894 9.02439 5.27629 9.04565C5.30363 9.06692 5.32642 9.08971 5.34465 9.11401C5.44187 9.22339 5.50263 9.32365 5.52694 9.41479C5.53301 9.4391 5.53453 9.48619 5.53149 9.55607C5.52846 9.62595 5.53301 9.67608 5.54517 9.70646C5.55732 9.74292 5.57555 9.77634 5.59985 9.80672C5.62416 9.8371 5.6591 9.86749 5.70467 9.89787C5.75024 9.92825 5.78518 9.94952 5.80949 9.96167C5.83379 9.97382 5.87785 9.99357 5.94165 10.0209C6.00545 10.0483 6.04039 10.065 6.04647 10.071C6.05862 10.0771 6.11331 10.1105 6.21053 10.1713C6.30775 10.2321 6.38371 10.2746 6.43839 10.2989C6.49916 10.3232 6.54929 10.3369 6.58879 10.3399C6.62828 10.343 6.67689 10.3354 6.73462 10.3171C6.79234 10.2989 6.83944 10.2868 6.87589 10.2807Z"/>
</svg>
