<svg width="23" height="23" viewBox="0 0 23 23" fill="none" xmlns="http://www.w3.org/2000/svg">
<path d="M21.617 19.495L16.384 14.262C17.6966 12.4172 18.2681 10.1467 17.9853 7.90035C17.7025 5.65404 16.586 3.59597 14.8572 2.13413C13.1283 0.672285 10.9133 -0.0866125 8.65125 0.00787145C6.38917 0.102355 4.24517 1.04332 2.64425 2.64425C1.04332 4.24517 0.102355 6.38917 0.00787145 8.65125C-0.0866125 10.9133 0.672285 13.1283 2.13413 14.8572C3.59597 16.586 5.65404 17.7025 7.90035 17.9853C10.1467 18.2681 12.4172 17.6966 14.262 16.384L19.495 21.617C19.7764 21.8984 20.158 22.0565 20.556 22.0565C20.9539 22.0565 21.3356 21.8984 21.617 21.617C21.8984 21.3356 22.0565 20.9539 22.0565 20.556C22.0565 20.158 21.8984 19.7764 21.617 19.495ZM2.05598 9.05598C2.05598 7.67151 2.46652 6.31813 3.23569 5.16699C4.00486 4.01584 5.09811 3.11864 6.37719 2.58882C7.65628 2.05901 9.06374 1.92038 10.4216 2.19048C11.7795 2.46058 13.0268 3.12726 14.0057 4.10623C14.9847 5.0852 15.6514 6.33248 15.9215 7.69035C16.1916 9.04821 16.0529 10.4557 15.5231 11.7348C14.9933 13.0138 14.0961 14.1071 12.945 14.8763C11.7938 15.6454 10.4404 16.056 9.05598 16.056C7.20011 16.0539 5.42087 15.3157 4.10857 14.0034C2.79627 12.6911 2.0581 10.9118 2.05598 9.05598Z" fill="#747474"/>
</svg>
