<svg width="150" height="150" viewBox="0 0 150 150" fill="none" xmlns="http://www.w3.org/2000/svg">
<g filter="url(#filter0_d)">
<path fill-rule="evenodd" clip-rule="evenodd" d="M110 65C110 76.9347 105.259 88.3807 96.8198 96.8198C88.3807 105.259 76.9347 110 65 110C53.0653 110 41.6193 105.259 33.1802 96.8198C24.7411 88.3807 20 76.9347 20 65C20 53.0653 24.7411 41.6193 33.1802 33.1802C41.6193 24.7411 53.0653 20 65 20C76.9347 20 88.3807 24.7411 96.8198 33.1802C105.259 41.6193 110 53.0653 110 65V65ZM48.125 53.75C48.125 52.2582 48.7176 50.8274 49.7725 49.7725C50.8274 48.7176 52.2582 48.125 53.75 48.125C55.2418 48.125 56.6726 48.7176 57.7275 49.7725C58.7824 50.8274 59.375 52.2582 59.375 53.75V76.25C59.375 77.7418 58.7824 79.1726 57.7275 80.2275C56.6726 81.2824 55.2418 81.875 53.75 81.875C52.2582 81.875 50.8274 81.2824 49.7725 80.2275C48.7176 79.1726 48.125 77.7418 48.125 76.25V53.75ZM76.25 48.125C74.7582 48.125 73.3274 48.7176 72.2725 49.7725C71.2176 50.8274 70.625 52.2582 70.625 53.75V76.25C70.625 77.7418 71.2176 79.1726 72.2725 80.2275C73.3274 81.2824 74.7582 81.875 76.25 81.875C77.7418 81.875 79.1726 81.2824 80.2275 80.2275C81.2824 79.1726 81.875 77.7418 81.875 76.25V53.75C81.875 52.2582 81.2824 50.8274 80.2275 49.7725C79.1726 48.7176 77.7418 48.125 76.25 48.125Z" fill="white"/>
</g>
<defs>
<filter id="filter0_d" x="0" y="0" width="150" height="150" filterUnits="userSpaceOnUse" color-interpolation-filters="sRGB">
<feFlood flood-opacity="0" result="BackgroundImageFix"/>
<feColorMatrix in="SourceAlpha" type="matrix" values="0 0 0 0 0 0 0 0 0 0 0 0 0 0 0 0 0 0 127 0"/>
<feOffset dx="10" dy="10"/>
<feGaussianBlur stdDeviation="15"/>
<feColorMatrix type="matrix" values="0 0 0 0 0.682353 0 0 0 0 0.682353 0 0 0 0 0.752941 0 0 0 0.2 0"/>
<feBlend mode="normal" in2="BackgroundImageFix" result="effect1_dropShadow"/>
<feBlend mode="normal" in="SourceGraphic" in2="effect1_dropShadow" result="shape"/>
</filter>
</defs>
</svg>
