<svg xmlns="http://www.w3.org/2000/svg" width="22" height="23" fill="none">
  <path fill="#000" fill-rule="evenodd" d="M11.44 1.08L11 .75l-.44.33C7.741 3.194 3.493 4.6.733 4.6H0v.733c0 7.06 3.532 14.464 10.711 17.541l.289.124.289-.124C18.468 19.797 22 12.393 22 5.334V4.6h-.733c-2.76 0-7.008-1.406-9.827-3.52zM2.35 11.2a19.843 19.843 0 0 1-.87-5.16c2.653-.186 6.087-1.314 8.787-2.988V11.2H2.35zm.521 1.467c1.412 3.503 3.885 6.55 7.396 8.375v-8.375H2.87zm8.862 8.375c3.511-1.826 5.984-4.872 7.396-8.375h-7.396v8.375zM19.65 11.2c.518-1.67.809-3.415.87-5.16-2.653-.186-6.087-1.314-8.787-2.988V11.2h7.917z" clip-rule="evenodd"/>
</svg>