<svg width="48" height="48" viewBox="0 0 48 48" fill="none" xmlns="http://www.w3.org/2000/svg">
<rect width="48" height="48" transform="matrix(-1 0 0 1 48 0)" fill="white"/>
<path fill-rule="evenodd" clip-rule="evenodd" d="M21.7068 28.707C21.5193 28.8945 21.265 28.9998 20.9998 28.9998C20.7346 28.9998 20.4803 28.8945 20.2928 28.707L16.2928 24.707C16.1053 24.5195 16 24.2651 16 24C16 23.7348 16.1053 23.4805 16.2928 23.293L20.2928 19.293C20.4814 19.1108 20.734 19.01 20.9962 19.0123C21.2584 19.0146 21.5092 19.1198 21.6946 19.3052C21.88 19.4906 21.9852 19.7414 21.9875 20.0036C21.9897 20.2658 21.8889 20.5184 21.7068 20.707L19.4138 23H30.9998C31.265 23 31.5194 23.1053 31.7069 23.2929C31.8944 23.4804 31.9998 23.7348 31.9998 24C31.9998 24.2652 31.8944 24.5196 31.7069 24.7071C31.5194 24.8946 31.265 25 30.9998 25H19.4138L21.7068 27.293C21.8943 27.4805 21.9996 27.7348 21.9996 28C21.9996 28.2651 21.8943 28.5195 21.7068 28.707Z" fill="black"/>
</svg>
