<svg width="76" height="76" xmlns="http://www.w3.org/2000/svg"><g fill="#FFF" fill-rule="evenodd"><path d="M52.606 5.472a4.472 4.472 0 1 0 8.945 0 4.472 4.472 0 0 0-8.945 0zm6.192 0a1.72 1.72 0 1 1-3.44 0 1.72 1.72 0 0 1 3.44 0zM28.867 15.45a4.472 4.472 0 1 1 0-8.945 4.472 4.472 0 0 1 0 8.945zm0-2.753a1.72 1.72 0 1 0 0-3.44 1.72 1.72 0 0 0 0 3.44zM66.711 35.404a4.472 4.472 0 1 1 0-8.945 4.472 4.472 0 0 1 0 8.945zm0-2.753a1.72 1.72 0 1 0 0-3.44 1.72 1.72 0 0 0 0 3.44z"/><path d="M47.79 22.33c-.76 0-1.377.616-1.377 1.376v1.377h-1.376a1.376 1.376 0 0 0 0 2.752h1.376v1.376a1.376 1.376 0 0 0 2.752 0v-1.376h1.376a1.376 1.376 0 0 0 0-2.752h-1.376v-1.377c0-.76-.616-1.376-1.376-1.376zM62.927 60.174c-.76 0-1.376.616-1.376 1.376v1.377h-1.377a1.376 1.376 0 0 0 0 2.752h1.377v1.376a1.376 1.376 0 0 0 2.752 0v-1.376h1.376a1.376 1.376 0 0 0 0-2.752h-1.376V61.55c0-.76-.616-1.376-1.376-1.376zM13.385 7.88c-.76 0-1.376.617-1.376 1.377v1.376h-1.376a1.376 1.376 0 0 0 0 2.752h1.376v1.376a1.376 1.376 0 0 0 2.753 0v-1.376h1.376a1.376 1.376 0 0 0 0-2.752h-1.376V9.257c0-.76-.617-1.376-1.377-1.376zM65.679 45.037a1.376 1.376 0 1 1-2.752 0 1.376 1.376 0 0 1 2.752 0zM69.12 57.422a1.376 1.376 0 1 0 0-2.752 1.376 1.376 0 0 0 0 2.752zM50.541 14.073a1.376 1.376 0 1 1-2.752 0 1.376 1.376 0 0 1 2.752 0zM73.936 18.89a1.376 1.376 0 1 0 0-2.752 1.376 1.376 0 0 0 0 2.752zM21.642 4.44a1.376 1.376 0 1 1-2.752 0 1.376 1.376 0 0 1 2.752 0zM27.835 44.693a1.376 1.376 0 1 1-2.752 0 1.376 1.376 0 0 1 2.752 0z" fill-rule="nonzero"/><path d="M43.008 33.648c-2.606-2.606-4.994-4.814-7.176-6.622A41.446 41.446 0 0 0 43.661 2.72a1.376 1.376 0 0 0-2.753 0 38.695 38.695 0 0 1-7.236 22.596c-4.673-3.51-8.287-4.92-10.974-4.186a1.375 1.375 0 0 0-.917.82L1.344 73.524c-.443 1.12.666 2.23 1.787 1.786L54.68 54.885l.025-.01a1.379 1.379 0 0 0 .78-.792l.002-.004c.021-.055.038-.111.051-.168.72-2.74-.77-6.436-4.427-11.228a27.673 27.673 0 0 1 7.783-2.221 1.376 1.376 0 0 0-.36-2.729 30.425 30.425 0 0 0-9.196 2.74c-1.752-2.087-3.863-4.358-6.33-6.825zm-17.67 7.458c.681-.339.958-1.165.62-1.845a31.822 31.822 0 0 0-5.132-7.43l2.312-5.836c.904 1.753 2.043 3.578 3.416 5.476a29.096 29.096 0 0 1 4.308 15.286 29.1 29.1 0 0 1-5.214 16.67l-3.106 1.232a25.11 25.11 0 0 0 1.164-7.581c0-6.217-2.27-12.08-6.294-16.63l2.278-5.75a29.083 29.083 0 0 1 3.803 5.79c.34.68 1.166.957 1.846.618zm8.621-11.671a1.376 1.376 0 0 1-2.11-1.768l.139-.165c-2.855-2.148-5.16-3.383-6.874-3.72 2.147 4.567 6.164 9.812 12.056 15.704 5.892 5.892 11.137 9.909 15.704 12.056-.364-1.852-1.778-4.396-4.257-7.575-.606.351-1.2.726-1.778 1.123a1.376 1.376 0 0 1-1.557-2.27c.514-.352 1.039-.689 1.572-1.01-1.61-1.888-3.54-3.963-5.792-6.216-2.535-2.535-4.845-4.66-6.918-6.382l-.185.223zM10.92 69.264l-5.843 2.315 5.61-14.16a15.089 15.089 0 0 1 1.322 6.196c0 1.963-.373 3.871-1.089 5.649zm3.312-1.313l4.86-1.926a22.281 22.281 0 0 0 1.862-8.947c0-5.052-1.68-9.837-4.697-13.715L12.01 54.08a17.812 17.812 0 0 1 2.75 9.536c0 1.478-.18 2.932-.53 4.336zm15.662-6.205l7.766-3.077a29.045 29.045 0 0 0 3.768-11.51c-1.994-1.674-4.061-3.584-6.204-5.727-.92-.919-1.796-1.824-2.629-2.715a32.063 32.063 0 0 1 1.02 8.04c0 5.311-1.299 10.429-3.721 14.989zm20.766-8.228l-9.12 3.613a31.767 31.767 0 0 0 2.393-7.96c2.35 1.796 4.592 3.245 6.727 4.347z"/><path d="M68.854 15.715a1.376 1.376 0 0 1 .361 2.729 27.698 27.698 0 0 0-12.055 4.628 1.376 1.376 0 1 1-1.557-2.27 30.45 30.45 0 0 1 13.251-5.087z" fill-rule="nonzero"/></g></svg>