<svg xmlns="http://www.w3.org/2000/svg" viewBox="0 0 12 12" width="12" height="12"><title>url</title><g class="nc-icon-wrapper"><path d="M6.245.965,4.727,2.446A.75.75,0,0,0,5.773,3.521L7.3,2.033A1.875,1.875,0,1,1,9.944,4.691L8.463,6.21A.75.75,0,1,0,9.537,7.257l1.475-1.512a3.381,3.381,0,0,0,0-4.773A3.462,3.462,0,0,0,6.245.965Z"/> <path d="M6.227,8.446,4.7,9.935A1.875,1.875,0,1,1,2.056,7.276L3.537,5.757A.75.75,0,0,0,2.463,4.71L.988,6.222A3.375,3.375,0,0,0,5.755,11L7.273,9.521A.75.75,0,0,0,6.227,8.446Z"/> <path d="M3.47,8.514a.748.748,0,0,0,1.06,0l4-4A.75.75,0,1,0,7.47,3.453l-4,4A.75.75,0,0,0,3.47,8.514Z" data-color="color-2"/></g></svg>