<svg xmlns="http://www.w3.org/2000/svg" width="94" height="82" viewBox="0 0 94 82">
  <g fill="none" fill-rule="evenodd" stroke="#111" stroke-linecap="square" stroke-width="3" transform="translate(1 1)">
    <path d="M70.1886792 79.245283L91.3207547 79.245283 91.3207547 65.2196226C91.3209202 62.7508764 89.8181031 60.5307241 87.5260377 59.6135849L70.3396226 52.7366038C69.319843 52.3281628 68.602425 51.3980052 68.4664151 50.3079245L67.76 44.6566038C73.8178497 42.0191756 77.7354949 36.0410471 77.7358491 29.4339623L77.7358491 15.4339623C77.7358491 10.4321381 73.6810694 6.37735849 68.6792453 6.37735849L66.3350943 1.68754717C65.9352871.934638756 65.0510057.57952358 64.2415094.846792453L53.0626415 4.83773585C51.8316223 5.29110369 50.6874869 5.95226181 49.68 6.79245283M57.3373585 62.6324528L40.1509434 55.7554717C39.1311637 55.3470307 38.4137458 54.4168731 38.2777358 53.3267925L37.5803774 47.7524528C42.8084752 49.3379747 48.3991947 49.266265 53.5849057 47.5471698 49.6995052 41.1782527 47.6129558 33.8753299 47.5471698 26.4150943L47.5471698 24.9056604C47.5471698 15.7356494 40.1134072 8.30188679 30.9433962 8.30188679 21.7733853 8.30188679 14.3396226 15.7356494 14.3396226 24.9056604L14.3396226 26.4150943C14.2738367 33.8753299 12.1872873 41.1782527 8.30188679 47.5471698 13.489916 49.2678603 19.0835252 49.3395732 24.3139623 47.7524528L23.6166038 53.3267925C23.4805939 54.4168731 22.7631759 55.3470307 21.7433962 55.7554717L4.54943396 62.6324528C2.25736858 63.5495921.754551464 65.7697443.754716981 68.2384906L.754716981 79.245283 61.1320755 79.245283 61.1320755 68.2384906C61.132241 65.7697443 59.6294239 63.5495921 57.3373585 62.6324528z"/>
  </g>
</svg>
