<svg xmlns="http://www.w3.org/2000/svg" width="54" height="54" viewBox="0 0 54 54">
  <g fill="none" fill-rule="evenodd" stroke="#111" stroke-width="2.4" transform="translate(2 2)">
    <path d="M6.13636364 41.4772727C10.6818182 36.25 17.5 32.9545455 25 32.9545455 32.5 32.9545455 39.2045455 36.25 43.75 41.4772727M6.13636364 8.52272727C10.6818182 13.75 17.5 17.0454545 25 17.0454545 32.5 17.0454545 39.2045455 13.75 43.75 8.52272727"/>
    <path d="M25 50C33.8636364 45.7954545 38.6363636 36.1363636 38.6363636 25 38.6363636 13.8636364 33.8636364 4.20454545 25 0M25 50C16.1363636 45.7954545 11.3636364 36.1363636 11.3636364 25 11.3636364 13.8636364 16.1363636 4.20454545 25 0"/>
    <polyline points="25 50 25 47.727 25 2.273 25 0"/>
    <path d="M0,25 L50,25"/>
    <circle cx="25" cy="25" r="25" stroke-linecap="square"/>
  </g>
</svg>
