<svg width="22" height="22" viewBox="0 0 22 22" fill="none" xmlns="http://www.w3.org/2000/svg">
<path fill-rule="evenodd" clip-rule="evenodd" d="M14.2932 14.7069C14.4807 14.8944 14.735 14.9997 15.0002 14.9997C15.2654 14.9997 15.5197 14.8944 15.7072 14.7069L19.7072 10.7069C19.8947 10.5194 20 10.2651 20 9.99992C20 9.73475 19.8947 9.48045 19.7072 9.29292L15.7072 5.29292C15.5186 5.11076 15.266 5.00997 15.0038 5.01224C14.7416 5.01452 14.4908 5.11969 14.3054 5.3051C14.12 5.49051 14.0148 5.74132 14.0125 6.00352C14.0103 6.26571 14.1111 6.51832 14.2932 6.70692L16.5862 8.99992H5.00021C4.735 8.99992 4.48064 9.10528 4.29311 9.29281C4.10557 9.48035 4.00021 9.7347 4.00021 9.99992C4.00021 10.2651 4.10557 10.5195 4.29311 10.707C4.48064 10.8946 4.735 10.9999 5.00021 10.9999H16.5862L14.2932 13.2929C14.1057 13.4804 14.0004 13.7348 14.0004 13.9999C14.0004 14.2651 14.1057 14.5194 14.2932 14.7069Z" fill="#1B51A3"/>
</svg>
