<svg id="Layer_1" data-name="Layer 1" xmlns="http://www.w3.org/2000/svg" xmlns:xlink="http://www.w3.org/1999/xlink" viewBox="0 0 640.54 304.52"><defs><style>.cls-1{fill:none;}.cls-2{fill:url(#linear-gradient);}.cls-3{clip-path:url(#clip-path);}.cls-4{opacity:0.27;}.cls-5{fill:#fff;}</style><linearGradient id="linear-gradient" y1="149.49" x2="640.54" y2="149.49" gradientUnits="userSpaceOnUse"><stop offset="0" stop-color="#0b667f"/><stop offset="0.16" stop-color="#18778d"/><stop offset="0.51" stop-color="#3097a7"/><stop offset="0.8" stop-color="#3faab6"/><stop offset="1" stop-color="#44b1bc"/></linearGradient><clipPath id="clip-path" transform="translate(-179.96 -98.03)"><path class="cls-1" d="M424.61,388.1H216.45A36.49,36.49,0,0,1,180,351.6V143.44A36.49,36.49,0,0,1,216.45,107H424.61c20.16,0,136.1,16.34,136.1,36.49V351.6C560.71,371.76,444.77,388.1,424.61,388.1Z"/></clipPath></defs><title>designandoperations-Blue</title><rect class="cls-2" y="8.92" width="640.54" height="281.15" rx="29.31" ry="29.31"/><g class="cls-3"><g class="cls-4"><path class="cls-5" d="M485.56,310.73A142.36,142.36,0,0,1,358,390.88c-78,0-141.5-63.47-141.5-141.5A141.56,141.56,0,0,1,336.12,109.56L334.33,98A153.21,153.21,0,0,0,204.84,249.38c0,84.47,68.71,153.17,153.17,153.17a154.09,154.09,0,0,0,138.07-86.76Z" transform="translate(-179.96 -98.03)"/><path class="cls-5" d="M220.41,249.38a140.29,140.29,0,0,0,1,16.28L233,264.29a130,130,0,0,1-.87-14.91A126.08,126.08,0,0,1,358,123.45a128.72,128.72,0,0,1,12.88.65l1.18-11.61a140.37,140.37,0,0,0-14.06-.71c-75.88,0-137.61,61.73-137.61,137.6" transform="translate(-179.96 -98.03)"/><path class="cls-5" d="M358,375.31A126.52,126.52,0,0,1,256.54,324l-9.4,6.93a137.63,137.63,0,0,0,246.32-57.13l-11.49-2A125.72,125.72,0,0,1,358,375.31" transform="translate(-179.96 -98.03)"/><path class="cls-5" d="M358,371.42a120.79,120.79,0,0,0,75.3-26l-7.2-9.18A109.24,109.24,0,0,1,358,359.75a110.4,110.4,0,0,1-97-163l-10.27-5.57A122.08,122.08,0,0,0,358,371.42" transform="translate(-179.96 -98.03)"/><path class="cls-5" d="M263.23,249.38A95,95,0,0,1,294.48,179l-7.83-8.66A106.47,106.47,0,1,0,453.76,296l-10.49-5.12a94.8,94.8,0,0,1-180-41.48" transform="translate(-179.96 -98.03)"/><path class="cls-5" d="M337.26,172.91l-3-11.26a91,91,0,0,0-67.09,87.73,90,90,0,0,0,9.61,40.73l10.44-5.23a78.4,78.4,0,0,1-8.38-35.5,79.34,79.34,0,0,1,58.46-76.47" transform="translate(-179.96 -98.03)"/><path class="cls-5" d="M324.47,321.17l-5,10.57a91,91,0,0,0,85.21-4.38l-6-10a79.36,79.36,0,0,1-74.26,3.82" transform="translate(-179.96 -98.03)"/></g></g><path class="cls-5" d="M580.05,181.31h26.3c23.8,0,39.34,14.12,39.34,38.47s-15.54,38.68-39.34,38.68h-26.3Zm25.54,65.09c15.65,0,25.65-9.24,25.65-26.62,0-17.17-10.22-26.41-25.65-26.41H594.07v53Z" transform="translate(-179.96 -98.03)"/><path class="cls-5" d="M663.15,220.58v-.13s-6.56-2.08-6.56-10.43c0-7.23,5.55-11.91,14.11-11.91a30.88,30.88,0,0,1,5.35.67l-1.34,3.88a22.65,22.65,0,0,0-3.87-.47c-5.29,0-9.43,3-9.43,8.09,0,3.15,1.34,8.5,10.09,8.5h9.9v-6.62H686v6.62h6.35v4.14H686v6.89c0,11.23-6.16,16.92-15.58,16.92s-15.85-5.95-15.85-13.78C654.59,227.54,657.66,222.25,663.15,220.58Zm7.29,21.8c6.61,0,11-3.68,11-12.7v-6.76h-9.9c-8.15,0-12.16,3.88-12.16,9.76C659.34,238,663.48,242.38,670.44,242.38Z" transform="translate(-179.96 -98.03)"/><path class="cls-5" d="M740,180c22.72,0,39.89,17.28,39.89,39.34,0,22.71-17.17,40.43-39.89,40.43s-39.88-17.72-39.88-40.43C700.1,197.28,717.27,180,740,180Zm0,66.94c14.13,0,25.43-11.73,25.43-27.6,0-15.21-11.3-26.51-25.43-26.51s-25.42,11.3-25.42,26.51C714.56,235.21,725.86,246.94,740,246.94Z" transform="translate(-179.96 -98.03)"/><path class="cls-5" d="M288.46,234.69a62.31,62.31,0,0,1,1.43,8.28h.22a68.55,68.55,0,0,1,1.33-8.28l12.92-54.23h14.69l-20.21,78.42H282.38l-12-46.39a93.73,93.73,0,0,1-2-10.27h-.23a93.73,93.73,0,0,1-2,10.27l-12,46.39H237.65L218,180.46h14.69l12.37,54.23a71,71,0,0,1,1.33,8.28h.22a62.31,62.31,0,0,1,1.43-8.28l14.14-54.23h12.37Z" transform="translate(-179.96 -98.03)"/><path class="cls-5" d="M342.81,180.46h46.94v12.26h-32.7v20.54h26.4v12.26h-26.4v21.1h34.46v12.26h-48.7Z" transform="translate(-179.96 -98.03)"/><path class="cls-5" d="M417.37,180.46h14.24v66.16h33.91v12.26H417.37Z" transform="translate(-179.96 -98.03)"/><path class="cls-5" d="M488,180.46H502.2v66.16h33.9v12.26H488Z" transform="translate(-179.96 -98.03)"/><path class="cls-5" d="M232.1,285.19H242c9.19,0,15.38,5.62,15.38,15.29s-6.19,15.34-15.38,15.34h-9.9Zm9.59,27.93c7.54,0,12.55-4.44,12.55-12.64s-5.05-12.59-12.55-12.59h-6.58v25.23Z" transform="translate(-179.96 -98.03)"/><path class="cls-5" d="M267.83,285.19h17.26v2.7H270.84V299h11.64v2.71H270.84v11.37h15v2.7H267.83Z" transform="translate(-179.96 -98.03)"/><path class="cls-5" d="M295.72,310.11a12,12,0,0,0,8,3.36c3.36,0,6.1-2,6.1-5.32,0-7.71-15.3-5.75-15.3-15.25,0-4.4,3.88-8.24,9.55-8.24a11.85,11.85,0,0,1,8.19,3l-1.48,2.53a10.43,10.43,0,0,0-6.71-2.62c-3.92,0-6.45,2.57-6.45,5.27,0,7.28,15.3,5.19,15.3,15.26,0,4.57-3.53,8.28-9.29,8.28a13.51,13.51,0,0,1-9.72-3.93Z" transform="translate(-179.96 -98.03)"/><path class="cls-5" d="M323.13,285.19h3v30.63h-3Z" transform="translate(-179.96 -98.03)"/><path class="cls-5" d="M351.89,284.66c7.1,0,10.9,3.58,10.9,3.58l-1.62,2.26a15.06,15.06,0,0,0-9.15-3.05c-7.41,0-12.42,5.71-12.42,13,0,7.54,5.19,13.12,12.16,13.12a13.37,13.37,0,0,0,9.63-4.49v-5.19h-5.23v-2.7h8.11v14.64h-2.79v-2.31c0-.65,0-1.3,0-1.3h-.08a13.7,13.7,0,0,1-10,4.14c-8.37,0-15-6.76-15-15.87C336.46,291.64,343.09,284.66,351.89,284.66Z" transform="translate(-179.96 -98.03)"/><path class="cls-5" d="M375,285.19H378l15.64,22.05c1.05,1.52,2.53,4.14,2.53,4.14h.09s-.26-2.53-.26-4.14V285.19h3v30.63H396l-15.64-22.05c-1.05-1.52-2.53-4.14-2.53-4.14h-.09s.27,2.53.27,4.14v22.05h-3Z" transform="translate(-179.96 -98.03)"/><path class="cls-5" d="M430.28,299.31v-.09s-4.27-1.35-4.27-6.8c0-4.71,3.62-7.76,9.2-7.76a20,20,0,0,1,3.48.44l-.87,2.53a14.71,14.71,0,0,0-2.53-.31c-3.44,0-6.14,2-6.14,5.28,0,2,.87,5.53,6.58,5.53h6.45v-4.31h3v4.31h4.14v2.7h-4.14v4.49c0,7.32-4,11-10.16,11s-10.33-3.88-10.33-9A8.22,8.22,0,0,1,430.28,299.31Zm4.75,14.2c4.32,0,7.15-2.39,7.15-8.28v-4.4h-6.45c-5.32,0-7.93,2.53-7.93,6.36C427.8,310.68,430.5,313.51,435,313.51Z" transform="translate(-179.96 -98.03)"/><path class="cls-5" d="M488.11,284.66a15.49,15.49,0,0,1,15.6,15.65,15.61,15.61,0,1,1-31.2,0A15.49,15.49,0,0,1,488.11,284.66Zm0,28.9c6.88,0,12.46-5.76,12.46-13.25a12.47,12.47,0,1,0-24.93,0C475.64,307.8,481.18,313.56,488.11,313.56Z" transform="translate(-179.96 -98.03)"/><path class="cls-5" d="M514,285.19h10.59c5.49,0,9.46,3.57,9.46,9.24s-4,9.36-9.46,9.36H517v12h-3Zm10.2,15.9c4.09,0,6.75-2.48,6.75-6.66s-2.66-6.54-6.71-6.54H517v13.2Z" transform="translate(-179.96 -98.03)"/><path class="cls-5" d="M543.53,285.19h17.26v2.7H546.54V299h11.64v2.71H546.54v11.37h15v2.7H543.53Z" transform="translate(-179.96 -98.03)"/><path class="cls-5" d="M571.9,285.19H581c3.13,0,4.53.3,5.75.83,2.88,1.26,4.62,4.18,4.62,7.88,0,4.14-2.35,7.32-5.8,8.28v.09a11.05,11.05,0,0,1,.79,1.22L593,315.82h-3.44l-6.93-12.9h-7.71v12.9h-3Zm10.29,15c3.7,0,6-2.39,6-6.23,0-2.53-1-4.4-2.78-5.36a8.83,8.83,0,0,0-4.36-.74h-6.19v12.33Z" transform="translate(-179.96 -98.03)"/><path class="cls-5" d="M617.88,306.06H605.54l-3.48,9.76h-3.19l11.25-30.63h3.22l11.25,30.63H621.4Zm-6.19-17.69s-.66,2.53-1.18,4l-4.1,11.12H617l-4-11.12c-.52-1.43-1.18-4-1.18-4Z" transform="translate(-179.96 -98.03)"/><path class="cls-5" d="M638,287.89H627v-2.7h25v2.7H641v27.93h-3Z" transform="translate(-179.96 -98.03)"/><path class="cls-5" d="M660.23,285.19h3v30.63h-3Z" transform="translate(-179.96 -98.03)"/><path class="cls-5" d="M689.12,284.66a15.49,15.49,0,0,1,15.6,15.65,15.61,15.61,0,1,1-31.2,0A15.49,15.49,0,0,1,689.12,284.66Zm0,28.9c6.88,0,12.46-5.76,12.46-13.25a12.47,12.47,0,1,0-24.92,0C676.66,307.8,682.19,313.56,689.12,313.56Z" transform="translate(-179.96 -98.03)"/><path class="cls-5" d="M715,285.19h2.92l15.65,22.05c1,1.52,2.52,4.14,2.52,4.14h.09s-.26-2.53-.26-4.14V285.19h3v30.63H736l-15.65-22.05c-1-1.52-2.53-4.14-2.53-4.14h-.08s.26,2.53.26,4.14v22.05h-3Z" transform="translate(-179.96 -98.03)"/><path class="cls-5" d="M750.82,310.11a12,12,0,0,0,8,3.36c3.36,0,6.1-2,6.1-5.32,0-7.71-15.29-5.75-15.29-15.25,0-4.4,3.87-8.24,9.54-8.24a11.85,11.85,0,0,1,8.19,3l-1.48,2.53a10.43,10.43,0,0,0-6.71-2.62c-3.92,0-6.45,2.57-6.45,5.27,0,7.28,15.3,5.19,15.3,15.26,0,4.57-3.53,8.28-9.29,8.28a13.47,13.47,0,0,1-9.71-3.93Z" transform="translate(-179.96 -98.03)"/></svg>