<svg xmlns="http://www.w3.org/2000/svg" width="90" height="66" fill="none">
  <path fill="#515150" fill-rule="evenodd" d="M52.568 40.113c3.45-3.595 7.507-6.403 11.562-9.22 2.302-1.6 4.623-3.176 6.565-5.241 2.584-2.752 2.353-5.852.756-8.013-1.655-2.239-4.058-2.877-6.693-2.577-3.099.353-5.304 2.227-7.148 4.607-.534.692-.991 1.444-1.506 2.2L44.447 13.99c.92-1.981 2.105-3.722 3.492-5.323C52.647 3.231 58.596.37 65.728.036c5.575-.26 10.817.887 15.478 4.104 4.723 3.26 7.25 7.852 7.782 13.587.677 7.278-1.934 13.237-7.091 18.206-3.409 3.283-7.39 5.76-11.316 8.318-2.123 1.383-4.279 2.728-6.044 4.59-.924.974-1.677 2.048-1.788 3.532H90V66H45.551c-2.001-9.847-.018-18.557 7.017-25.887z" clip-rule="evenodd"/>
  <path fill="#515150" fill-rule="evenodd" d="M0 36.247V25.66h.716c4.632 0 15.383-.035 15.462.189 1.86 5.219 3.957 11.135 5.813 16.356l4.03 11.33c.066.182.148.357.293.7 5.66-12.612 11.259-25.08 16.886-37.616l10.994 7.579c-.964 2.052-1.906 4.068-2.853 6.082-5.488 11.674-10.982 23.346-16.458 35.026-.23.49-.475.697-1.043.694a1585.3 1585.3 0 0 0-14.903-.003c-.51.002-.725-.146-.893-.64-3.236-9.51-6.498-19.01-9.734-28.521-.164-.481-.402-.603-.869-.599-2.193.02-4.386.01-6.58.01H0z" clip-rule="evenodd"/>
</svg>