<svg xmlns="http://www.w3.org/2000/svg" width="106" height="28">
  <path fill-rule="evenodd" d="M7.721 28L.935.115h7.176l3.51 17.433c.351 1.716.351 2.925.351 2.925h.078s.039-1.209.468-2.925L16.808.115h5.499l4.173 17.433c.429 1.716.468 2.925.468 2.925h.078s0-1.209.351-2.925L31.199.115h7.059L31.199 28h-7.605l-3.51-14.079c-.429-1.794-.546-3.276-.546-3.276h-.078s-.117 1.482-.546 3.276L15.404 28H7.721zm34.593 0V.115h17.472v5.85H49.139v5.07h8.502v5.85h-8.502v5.265h11.193V28H42.314zm22.932 0V.115h6.825V22.15h11.388V28H65.246zm21.957 0V.115h6.825V22.15h11.388V28H87.203z"/>
</svg>