<svg width="24" height="24" viewBox="0 0 24 24" fill="none" xmlns="http://www.w3.org/2000/svg">
<path d="M24 12.0746C24 5.40932 18.624 0 12 0C5.37583 0 0 5.40932 0 12.0746C0 18.1057 4.38721 23.1046 10.1339 24V15.5565H7.06897V12.0746H10.1339V9.41345C10.1339 6.3917 11.9134 4.71294 14.657 4.71294C15.9671 4.71294 17.3265 4.96165 17.3265 4.96165V7.90879H15.8187C14.3234 7.90879 13.8538 8.85387 13.8538 9.79894V12.0621H17.1905L16.6591 15.544H13.8538V23.9875C19.6128 23.1046 24 18.1057 24 12.0746V12.0746Z" fill="#1B51A3"/>
</svg>
