<svg width="24" height="24" viewBox="0 0 24 24" fill="none" xmlns="http://www.w3.org/2000/svg">
<path fill-rule="evenodd" clip-rule="evenodd" d="M12 24C18.6274 24 24 18.6274 24 12C24 5.37258 18.6274 0 12 0C5.37258 0 0 5.37258 0 12C0 18.6274 5.37258 24 12 24ZM14.4639 6.59388C13.787 6.56299 13.5839 6.55647 11.8698 6.55647C10.1556 6.55647 9.95262 6.563 9.27566 6.59388C8.64978 6.62245 8.30983 6.72703 8.08362 6.81492C7.78398 6.93138 7.57013 7.07052 7.34547 7.29515C7.12084 7.51981 6.98171 7.73367 6.86525 8.03329C6.77736 8.25951 6.67277 8.59945 6.64421 9.22537C6.61332 9.9023 6.6068 10.1053 6.6068 11.8195C6.6068 13.5336 6.61332 13.7366 6.64421 14.4136C6.67277 15.0395 6.77735 15.3794 6.86525 15.6056C6.98171 15.9053 7.12084 16.1191 7.34547 16.3438C7.57013 16.5684 7.78399 16.7076 8.08362 16.824C8.30984 16.9119 8.64978 17.0165 9.27569 17.045C9.95252 17.0759 10.1556 17.0825 11.8698 17.0825C13.584 17.0825 13.7871 17.0759 14.4639 17.045C15.0898 17.0165 15.4297 16.9119 15.656 16.824C15.9556 16.7076 16.1695 16.5684 16.3941 16.3438C16.6187 16.1191 16.7579 15.9053 16.8743 15.6056C16.9622 15.3794 17.0668 15.0395 17.0954 14.4136C17.1263 13.7366 17.1328 13.5336 17.1328 11.8195C17.1328 10.1053 17.1263 9.9023 17.0954 9.22534C17.0668 8.59945 16.9622 8.25951 16.8743 8.03329C16.7579 7.73366 16.6187 7.51981 16.3941 7.29515C16.1695 7.07052 15.9556 6.93138 15.656 6.81492C15.4297 6.72703 15.0898 6.62245 14.4639 6.59388ZM9.22356 5.43837C9.90826 5.40713 10.1269 5.39973 11.8704 5.39973C13.6139 5.39973 13.8325 5.40713 14.5172 5.43837C15.2005 5.46956 15.6672 5.57807 16.0755 5.73677C16.4977 5.90083 16.8557 6.12034 17.2126 6.47723C17.5695 6.83412 17.789 7.19213 17.9531 7.61429C18.1118 8.02265 18.2203 8.4893 18.2515 9.17262C18.2827 9.85733 18.2901 10.0759 18.2901 11.8194C18.2901 13.5629 18.2827 13.7816 18.2515 14.4663C18.2203 15.1496 18.1118 15.6162 17.9531 16.0246C17.789 16.4468 17.5695 16.8048 17.2126 17.1617C16.8557 17.5185 16.4977 17.7381 16.0755 17.9021C15.6672 18.0608 15.2005 18.1693 14.5172 18.2005C13.8325 18.2318 13.6139 18.2392 11.8704 18.2392C10.1269 18.2392 9.90826 18.2318 9.22356 18.2005C8.54023 18.1693 8.07359 18.0608 7.66522 17.9021C7.24307 17.7381 6.88506 17.5186 6.52817 17.1617C6.17127 16.8048 5.95176 16.4467 5.78771 16.0246C5.629 15.6162 5.5205 15.1496 5.4893 14.4663C5.45806 13.7816 5.45067 13.5629 5.45067 11.8194C5.45067 10.0759 5.45806 9.85733 5.4893 9.17262C5.52049 8.4893 5.629 8.02265 5.78771 7.61429C5.95176 7.19213 6.17127 6.83412 6.52817 6.47723C6.88506 6.12034 7.24307 5.90083 7.66522 5.73677C8.07359 5.57807 8.54023 5.46956 9.22356 5.43837ZM11.8696 8.52271C10.049 8.52271 8.573 9.99866 8.573 11.8193C8.573 13.64 10.049 15.1159 11.8696 15.1159C13.6903 15.1159 15.1662 13.64 15.1662 11.8193C15.1662 9.99866 13.6903 8.52271 11.8696 8.52271ZM11.8703 13.9592C10.6884 13.9592 9.73035 13.0012 9.73035 11.8194C9.73035 10.6375 10.6884 9.67944 11.8703 9.67944C13.0521 9.67944 14.0102 10.6375 14.0102 11.8194C14.0102 13.0012 13.0521 13.9592 11.8703 13.9592ZM15.2965 9.16292C15.7219 9.16292 16.0669 8.81802 16.0669 8.39256C16.0669 7.9671 15.7219 7.62219 15.2965 7.62219C14.871 7.62219 14.5261 7.9671 14.5261 8.39256C14.5261 8.81802 14.871 9.16292 15.2965 9.16292Z" fill="#1B51A3"/>
</svg>
