<svg width="24" height="24" viewBox="0 0 24 24" fill="none" xmlns="http://www.w3.org/2000/svg">
<path fill-rule="evenodd" clip-rule="evenodd" d="M12 24C18.6274 24 24 18.6274 24 12C24 5.37258 18.6274 0 12 0C5.37258 0 0 5.37258 0 12C0 18.6274 5.37258 24 12 24ZM17.3068 9.6514C17.3068 13.2642 14.5567 17.4307 9.52753 17.4307C7.98325 17.4307 6.54648 16.978 5.33643 16.2026C5.55045 16.2279 5.76805 16.2405 5.98863 16.2405C7.26969 16.2405 8.44849 15.8034 9.38445 15.0701C8.18761 15.0478 7.17832 14.2573 6.83023 13.1711C6.99676 13.2029 7.16808 13.2204 7.34421 13.2204C7.59368 13.2204 7.83532 13.1867 8.06496 13.1242C6.81402 12.8735 5.87146 11.768 5.87146 10.4437C5.87146 10.4317 5.87146 10.4202 5.87205 10.4088C6.24055 10.6139 6.66193 10.7371 7.11035 10.7509C6.37637 10.261 5.89369 9.42362 5.89369 8.47498C5.89369 7.97428 6.02893 7.50475 6.26395 7.1008C7.61233 8.75516 9.62731 9.8432 11.8996 9.95743C11.8527 9.75721 11.8287 9.54863 11.8287 9.33401C11.8287 7.82453 13.0532 6.60004 14.5633 6.60004C15.3495 6.60004 16.0601 6.93245 16.559 7.46386C17.1818 7.3412 17.7667 7.11343 18.2951 6.80026C18.0907 7.43864 17.6573 7.97427 17.0928 8.31266C17.6459 8.24656 18.1731 8.09986 18.663 7.88226C18.2969 8.43046 17.8328 8.91203 17.299 9.29792C17.3044 9.41515 17.3068 9.533 17.3068 9.6514Z" fill="#1B51A3"/>
</svg>
