<?xml version="1.0" encoding="UTF-8"?>
<svg width="240px" height="220px" viewBox="0 0 240 220" version="1.1" xmlns="http://www.w3.org/2000/svg" xmlns:xlink="http://www.w3.org/1999/xlink">
    <!-- Generator: Sketch 51.3 (57544) - http://www.bohemiancoding.com/sketch -->
    <title>Group 6 Copy 43</title>
    <desc>Created with Sketch.</desc>
    <defs></defs>
    <g id="Page-1" stroke="none" stroke-width="1" fill="none" fill-rule="evenodd">
        <g id="Artboard-Copy-8" transform="translate(-78.000000, -33.000000)">
            <g id="Group-70-Copy-2" transform="translate(105.000000, 76.000000)">
                <g id="Group-50">
                    <g id="Group-45" fill-rule="nonzero">
                        <path d="M91.5995646,28.5 L188.25,28.5 C190.321068,28.5 192,30.1789322 192,32.25 L192,138.75 C192,140.821068 190.321068,142.5 188.25,142.5 L15.7896462,142.5 C13.7185784,142.5 12.0396462,140.821068 12.0396462,138.75 L12.0396462,37.222155 L12,37.222155 L12,13.35 C12,11.3617749 13.6117749,9.75 15.6,9.75 L78.8188666,9.75 C80.1120554,9.75 81.3058868,10.4436161 81.9463501,11.5670679 L91.5995646,28.5 Z" id="Combined-Shape-Copy-15" fill="#F6F6F6"></path>
                        <rect id="Rectangle-15" fill="#74B6CA" x="75.75" y="9" width="107.25" height="30" rx="3.75"></rect>
                        <rect id="Rectangle-32" fill="#E5E5E5" transform="translate(106.125000, 52.125000) rotate(1.000000) translate(-106.125000, -52.125000) " x="31.5" y="15" width="149.25" height="74.25"></rect>
                        <rect id="Rectangle-32-Copy" fill="#F2F2F2" transform="translate(106.125000, 53.625000) rotate(-2.000000) translate(-106.125000, -53.625000) " x="31.5" y="16.5" width="149.25" height="74.25"></rect>
                        <path d="M4.125,27.097155 L4.16464618,27.097155 L4.16464618,129 C4.16464618,130.863961 5.67568515,132.375 7.53964618,132.375 L180,132.375 C181.863961,132.375 183.375,130.863961 183.375,129 L183.375,22.5 C183.375,20.636039 181.863961,19.125 180,19.125 L83.1316896,19.125 L73.3705706,2.00278996 C72.7968222,0.996364407 71.7273482,0.375 70.5688666,0.375 L7.35,0.375 C5.56888168,0.375 4.125,1.81888168 4.125,3.6 L4.125,27.097155 Z" id="Combined-Shape-Copy-14" stroke="#51D6FF" stroke-width="0.75" fill="#80D7F2"></path>
                    </g>
                    <text id="Change-of-Owner-Agre" font-family="MuseoSans-700, Museo Sans" font-size="11.4" font-weight="500" line-spacing="12.6" letter-spacing="-0.5294666" fill="#FFFFFF">
                        <tspan x="19.25" y="63.7">Change of </tspan>
                        <tspan x="19.25" y="76.3">Owner </tspan>
                        <tspan x="19.25" y="88.9">Agreement</tspan>
                    </text>
                    <text id="Resource" font-family="MuseoSans-900, Museo Sans" font-size="3.6" font-weight="bold" letter-spacing="-0.044" fill="#FFFFFF">
                        <tspan x="19.85" y="45.5">Resource</tspan>
                    </text>
                    <text id="May-2018" font-family="MuseoSans-700, Museo Sans" font-size="3.6" font-weight="500" letter-spacing="-0.044" fill="#FFFFFF">
                        <tspan x="19.85" y="98.9">May 2018</tspan>
                    </text>
                </g>
            </g>
        </g>
    </g>
</svg>