<?xml version="1.0" encoding="UTF-8"?>
<svg width="189px" height="140px" viewBox="0 0 189 140" version="1.1" xmlns="http://www.w3.org/2000/svg" xmlns:xlink="http://www.w3.org/1999/xlink">
    <g id="Group-50" fill-rule="nonzero">
        <path d="M88.5995646,25.5 L185.25,25.5 C187.321068,25.5 189,27.1789322 189,29.25 L189,135.75 C189,137.821068 187.321068,139.5 185.25,139.5 L12.7896462,139.5 C10.7185784,139.5 9.03964618,137.821068 9.03964618,135.75 L9.03964618,34.222155 L9,34.222155 L9,10.35 C9,8.3617749 10.6117749,6.75 12.6,6.75 L75.8188666,6.75 C77.1120554,6.75 78.3058868,7.44361608 78.9463501,8.56706787 L88.5995646,25.5 Z" id="Combined-Shape-Copy-15" fill="#F6F6F6"></path>
        <rect id="Rectangle-15" fill="#7DBDD0" x="72.75" y="9" width="107.25" height="30" rx="3.75"></rect>
        <rect id="Rectangle-32" fill="#E5E5E5" transform="translate(103.125000, 52.125000) rotate(1.000000) translate(-103.125000, -52.125000) " x="28.5" y="15" width="149.25" height="74.25"></rect>
        <rect id="Rectangle-32-Copy" fill="#F2F2F2" transform="translate(103.125000, 53.625000) rotate(-2.000000) translate(-103.125000, -53.625000) " x="28.5" y="16.5" width="149.25" height="74.25"></rect>
        <path d="M1.125,27.097155 L1.16464618,27.097155 L1.16464618,129 C1.16464618,130.863961 2.67568515,132.375 4.53964618,132.375 L177,132.375 C178.863961,132.375 180.375,130.863961 180.375,129 L180.375,22.5 C180.375,20.636039 178.863961,19.125 177,19.125 L80.1316896,19.125 L70.3705706,2.00278996 C69.7968222,0.996364407 68.7273482,0.375 67.5688666,0.375 L4.35,0.375 C2.56888168,0.375 1.125,1.81888168 1.125,3.6 L1.125,27.097155 Z" id="Combined-Shape-Copy-14" stroke="#51D6FF" stroke-width="0.75" fill="#B7EEFF"></path>
    </g>
</svg>