<?xml version="1.0" encoding="UTF-8"?>
<svg width="240px" height="220px" viewBox="0 0 240 220" version="1.1" xmlns="http://www.w3.org/2000/svg" xmlns:xlink="http://www.w3.org/1999/xlink">
    <!-- Generator: Sketch 51.3 (57544) - http://www.bohemiancoding.com/sketch -->
    <title>Group 6 Copy 40</title>
    <desc>Created with Sketch.</desc>
    <defs></defs>
    <g id="Page-1" stroke="none" stroke-width="1" fill="none" fill-rule="evenodd">
        <g id="Artboard-Copy-5" transform="translate(-78.000000, -33.000000)">
            <g id="Group-8-Copy-4" transform="translate(84.000000, 60.000000)">
                <g id="Group-70">
                    <g id="Group-3"></g>
                    <g id="Group-50" transform="translate(11.250000, 11.250000)">
                        <g id="Group-45" fill-rule="nonzero">
                            <rect id="Combined-Shape" fill="#F6F6F6" style="mix-blend-mode: multiply;" x="6" y="5.25" width="204.239366" height="142.5" rx="2.25"></rect>
                            <rect id="Combined-Shape" stroke="#FFFFFF" stroke-width="1.5" fill="#51D6FF" x="0.75" y="0.75" width="202.739366" height="141" rx="2.25"></rect>
                        </g>
                        <g id="Group-15" transform="translate(61.750000, 37.000000)" fill="#FFFFFF">
                            <text id="WELL-Branding-Guidel" font-family="MuseoSans-700, Museo Sans" font-size="17.1" font-weight="500" line-spacing="18.9" letter-spacing="-0.7941998">
                                <tspan x="21.6020006" y="26.8">WELL</tspan>
                                <tspan x="9.0145002" y="45.7">Branding </tspan>
                                <tspan x="3.875" y="64.6">Guidelines</tspan>
                            </text>
                            <text id="Resource" font-family="MuseoSans-900, Museo Sans" font-size="5.4" font-weight="bold" letter-spacing="-0.0659999996">
                                <tspan x="30.275" y="5">Resource</tspan>
                            </text>
                            <text id="IWBI’s-branding,-des" font-family="MuseoSans-700, Museo Sans" font-size="5.4" font-weight="500" letter-spacing="-0.0659999996">
                                <tspan x="3.49219999" y="77.225">IWBI’s branding, design and style </tspan>
                                <tspan x="7.03279999" y="83.225">guidelines to learn how to use </tspan>
                                <tspan x="26.8466" y="89.225">WELL’s assets.</tspan>
                                <tspan x="44.075" y="95.225"></tspan>
                            </text>
                        </g>
                    </g>
                    <path d="M13.5,10.5 L213,10.5 C214.242641,10.5 215.25,11.5073593 215.25,12.75 L215.25,33.75 L11.25,33.75 L11.25,12.75 C11.25,11.5073593 12.2573593,10.5 13.5,10.5 Z" id="Rectangle-5" fill="#FFFFFF" fill-rule="nonzero"></path>
                </g>
                <path d="M49.9458011,112.652219 L43.1938426,121.612371 C42.9414466,121.947312 42.4653162,122.014227 42.1303755,121.761831 L39.3024151,119.63081 C38.9674744,119.378414 38.9005586,118.902284 39.1529545,118.567343 L45.9049131,109.607192 L39.8570693,105.049814 L62.1733831,92.25 L56.0206215,117.229925 L49.9458011,112.652219 Z" id="Combined-Shape" stroke="#51D6FF" stroke-width="2.025" fill="#FFFFFF" fill-rule="nonzero" stroke-linecap="round" stroke-linejoin="round"></path>
                <g id="Group-4" transform="translate(15.750000, 13.500000)" fill="#51D6FF" fill-rule="nonzero">
                    <circle id="Oval-18" cx="1.875" cy="1.875" r="1.875"></circle>
                    <circle id="Oval-18-Copy" cx="7.875" cy="1.875" r="1.875"></circle>
                    <circle id="Oval-18-Copy-2" cx="13.875" cy="1.875" r="1.875"></circle>
                </g>
                <rect id="Rectangle-36" stroke="#51D6FF" stroke-width="0.75" fill-rule="nonzero" x="46.125" y="18.375" width="157.5" height="6.75" rx="3"></rect>
            </g>
        </g>
    </g>
</svg>